StartChar: custom_3_5_0_0_0
Encoding: 10756 -1 10511
Width: 70
Flags: H
LayerCount: 2
Fore
SplineSet
17 25 m 1
 15 25 l 1
 15 27 l 1
 17 27 l 1
 17 25 l 1
17 29 m 1
 15 29 l 1
 15 31 l 1
 17 31 l 1
 17 29 l 1
17 33 m 1
 15 33 l 1
 15 35 l 1
 17 35 l 1
 17 33 l 1
23 25 m 1
 21 25 l 1
 21 27 l 1
 23 27 l 1
 23 25 l 1
26 25 m 1
 24 25 l 1
 24 27 l 1
 25 27 l 1
 25 26 l 1
 26 26 l 1
 26 25 l 1
27 26 m 1
 26 26 l 1
 26 27 l 1
 28 27 l 1
 28 25 l 1
 27 25 l 1
 27 26 l 1
31 25 m 1
 29 25 l 1
 29 27 l 1
 31 27 l 1
 31 25 l 1
23 33 m 1
 21 33 l 1
 21 35 l 1
 23 35 l 1
 23 33 l 1
25 33 m 1
 24 33 l 1
 24 35 l 1
 26 35 l 1
 26 34 l 1
 25 34 l 1
 25 33 l 1
28 33 m 1
 26 33 l 1
 26 34 l 1
 27 34 l 1
 27 35 l 1
 28 35 l 1
 28 33 l 1
31 29 m 1
 29 29 l 1
 29 31 l 1
 31 31 l 1
 31 29 l 1
36 31 m 1
 34 31 l 1
 34 33 l 1
 36 33 l 1
 36 31 l 1
31 33 m 1
 29 33 l 1
 29 35 l 1
 31 35 l 1
 31 33 l 1
36 35 m 1
 34 35 l 1
 34 37 l 1
 36 37 l 1
 36 35 l 1
17 37 m 1
 15 37 l 1
 15 39 l 1
 17 39 l 1
 17 37 l 1
17 41 m 1
 15 41 l 1
 15 43 l 1
 17 43 l 1
 17 41 l 1
23 37 m 1
 21 37 l 1
 21 39 l 1
 23 39 l 1
 23 37 l 1
23 41 m 1
 21 41 l 1
 21 43 l 1
 23 43 l 1
 23 41 l 1
26 41 m 1
 24 41 l 1
 24 43 l 1
 25 43 l 1
 25 42 l 1
 26 42 l 1
 26 41 l 1
27 42 m 1
 26 42 l 1
 26 43 l 1
 28 43 l 1
 28 41 l 1
 27 41 l 1
 27 42 l 1
31 41 m 1
 29 41 l 1
 29 43 l 1
 31 43 l 1
 31 41 l 1
41 25 m 1
 39 25 l 1
 39 27 l 1
 41 27 l 1
 41 25 l 1
44 25 m 1
 42 25 l 1
 42 27 l 1
 43 27 l 1
 43 26 l 1
 44 26 l 1
 44 25 l 1
45 26 m 1
 44 26 l 1
 44 27 l 1
 46 27 l 1
 46 25 l 1
 45 25 l 1
 45 26 l 1
49 25 m 1
 47 25 l 1
 47 27 l 1
 49 27 l 1
 49 25 l 1
41 33 m 1
 39 33 l 1
 39 35 l 1
 41 35 l 1
 41 33 l 1
43 33 m 1
 42 33 l 1
 42 35 l 1
 44 35 l 1
 44 34 l 1
 43 34 l 1
 43 33 l 1
49 29 m 1
 47 29 l 1
 47 31 l 1
 49 31 l 1
 49 29 l 1
46 33 m 1
 44 33 l 1
 44 34 l 1
 45 34 l 1
 45 35 l 1
 46 35 l 1
 46 33 l 1
49 33 m 1
 47 33 l 1
 47 35 l 1
 49 35 l 1
 49 33 l 1
55 25 m 1
 53 25 l 1
 53 27 l 1
 55 27 l 1
 55 25 l 1
58 25 m 1
 56 25 l 1
 56 27 l 1
 57 27 l 1
 57 26 l 1
 58 26 l 1
 58 25 l 1
59 26 m 1
 58 26 l 1
 58 27 l 1
 60 27 l 1
 60 25 l 1
 59 25 l 1
 59 26 l 1
63 25 m 1
 61 25 l 1
 61 27 l 1
 63 27 l 1
 63 25 l 1
55 29 m 1
 53 29 l 1
 53 31 l 1
 55 31 l 1
 55 29 l 1
55 33 m 1
 53 33 l 1
 53 35 l 1
 55 35 l 1
 55 33 l 1
57 33 m 1
 56 33 l 1
 56 35 l 1
 58 35 l 1
 58 34 l 1
 57 34 l 1
 57 33 l 1
60 33 m 1
 58 33 l 1
 58 34 l 1
 59 34 l 1
 59 35 l 1
 60 35 l 1
 60 33 l 1
63 33 m 1
 61 33 l 1
 61 35 l 1
 63 35 l 1
 63 33 l 1
41 41 m 1
 39 41 l 1
 39 43 l 1
 41 43 l 1
 41 41 l 1
44 41 m 1
 42 41 l 1
 42 43 l 1
 43 43 l 1
 43 42 l 1
 44 42 l 1
 44 41 l 1
49 37 m 1
 47 37 l 1
 47 39 l 1
 49 39 l 1
 49 37 l 1
45 42 m 1
 44 42 l 1
 44 43 l 1
 46 43 l 1
 46 41 l 1
 45 41 l 1
 45 42 l 1
49 41 m 1
 47 41 l 1
 47 43 l 1
 49 43 l 1
 49 41 l 1
55 41 m 1
 53 41 l 1
 53 43 l 1
 55 43 l 1
 55 41 l 1
58 41 m 1
 56 41 l 1
 56 43 l 1
 57 43 l 1
 57 42 l 1
 58 42 l 1
 58 41 l 1
59 42 m 1
 58 42 l 1
 58 43 l 1
 60 43 l 1
 60 41 l 1
 59 41 l 1
 59 42 l 1
63 37 m 1
 61 37 l 1
 61 39 l 1
 63 39 l 1
 63 37 l 1
63 41 m 1
 61 41 l 1
 61 43 l 1
 63 43 l 1
 63 41 l 1
EndSplineSet
Ligature2: "'liga' Standard Ligatures in Latin lookup 0-1" three five zero zero zero
LCarets2: 1 0
EndChar

StartChar: custom_3_5_0_0_1
Encoding: 10757 -1 10512
Width: 70
Flags: H
LayerCount: 2
Fore
SplineSet
17 25 m 1
 15 25 l 1
 15 27 l 1
 17 27 l 1
 17 25 l 1
17 29 m 1
 15 29 l 1
 15 31 l 1
 17 31 l 1
 17 29 l 1
17 33 m 1
 15 33 l 1
 15 35 l 1
 17 35 l 1
 17 33 l 1
23 25 m 1
 21 25 l 1
 21 27 l 1
 23 27 l 1
 23 25 l 1
26 25 m 1
 24 25 l 1
 24 27 l 1
 25 27 l 1
 25 26 l 1
 26 26 l 1
 26 25 l 1
27 26 m 1
 26 26 l 1
 26 27 l 1
 28 27 l 1
 28 25 l 1
 27 25 l 1
 27 26 l 1
31 25 m 1
 29 25 l 1
 29 27 l 1
 31 27 l 1
 31 25 l 1
23 33 m 1
 21 33 l 1
 21 35 l 1
 23 35 l 1
 23 33 l 1
25 33 m 1
 24 33 l 1
 24 35 l 1
 26 35 l 1
 26 34 l 1
 25 34 l 1
 25 33 l 1
28 33 m 1
 26 33 l 1
 26 34 l 1
 27 34 l 1
 27 35 l 1
 28 35 l 1
 28 33 l 1
31 29 m 1
 29 29 l 1
 29 31 l 1
 31 31 l 1
 31 29 l 1
36 31 m 1
 34 31 l 1
 34 33 l 1
 36 33 l 1
 36 31 l 1
31 33 m 1
 29 33 l 1
 29 35 l 1
 31 35 l 1
 31 33 l 1
36 35 m 1
 34 35 l 1
 34 37 l 1
 36 37 l 1
 36 35 l 1
17 37 m 1
 15 37 l 1
 15 39 l 1
 17 39 l 1
 17 37 l 1
17 41 m 1
 15 41 l 1
 15 43 l 1
 17 43 l 1
 17 41 l 1
23 37 m 1
 21 37 l 1
 21 39 l 1
 23 39 l 1
 23 37 l 1
23 41 m 1
 21 41 l 1
 21 43 l 1
 23 43 l 1
 23 41 l 1
26 41 m 1
 24 41 l 1
 24 43 l 1
 25 43 l 1
 25 42 l 1
 26 42 l 1
 26 41 l 1
27 42 m 1
 26 42 l 1
 26 43 l 1
 28 43 l 1
 28 41 l 1
 27 41 l 1
 27 42 l 1
31 41 m 1
 29 41 l 1
 29 43 l 1
 31 43 l 1
 31 41 l 1
41 25 m 1
 39 25 l 1
 39 27 l 1
 41 27 l 1
 41 25 l 1
44 25 m 1
 42 25 l 1
 42 27 l 1
 43 27 l 1
 43 26 l 1
 44 26 l 1
 44 25 l 1
45 26 m 1
 44 26 l 1
 44 27 l 1
 46 27 l 1
 46 25 l 1
 45 25 l 1
 45 26 l 1
49 25 m 1
 47 25 l 1
 47 27 l 1
 49 27 l 1
 49 25 l 1
41 33 m 1
 39 33 l 1
 39 35 l 1
 41 35 l 1
 41 33 l 1
43 33 m 1
 42 33 l 1
 42 35 l 1
 44 35 l 1
 44 34 l 1
 43 34 l 1
 43 33 l 1
49 29 m 1
 47 29 l 1
 47 31 l 1
 49 31 l 1
 49 29 l 1
46 33 m 1
 44 33 l 1
 44 34 l 1
 45 34 l 1
 45 35 l 1
 46 35 l 1
 46 33 l 1
49 33 m 1
 47 33 l 1
 47 35 l 1
 49 35 l 1
 49 33 l 1
55 25 m 1
 53 25 l 1
 53 27 l 1
 55 27 l 1
 55 25 l 1
58 25 m 1
 56 25 l 1
 56 27 l 1
 57 27 l 1
 57 26 l 1
 58 26 l 1
 58 25 l 1
59 26 m 1
 58 26 l 1
 58 27 l 1
 60 27 l 1
 60 25 l 1
 59 25 l 1
 59 26 l 1
63 25 m 1
 61 25 l 1
 61 27 l 1
 63 27 l 1
 63 25 l 1
55 29 m 1
 53 29 l 1
 53 31 l 1
 55 31 l 1
 55 29 l 1
55 33 m 1
 53 33 l 1
 53 35 l 1
 55 35 l 1
 55 33 l 1
57 33 m 1
 56 33 l 1
 56 35 l 1
 58 35 l 1
 58 34 l 1
 57 34 l 1
 57 33 l 1
60 33 m 1
 58 33 l 1
 58 34 l 1
 59 34 l 1
 59 35 l 1
 60 35 l 1
 60 33 l 1
63 33 m 1
 61 33 l 1
 61 35 l 1
 63 35 l 1
 63 33 l 1
41 41 m 1
 39 41 l 1
 39 43 l 1
 41 43 l 1
 41 41 l 1
44 41 m 1
 42 41 l 1
 42 43 l 1
 43 43 l 1
 43 42 l 1
 44 42 l 1
 44 41 l 1
49 37 m 1
 47 37 l 1
 47 39 l 1
 49 39 l 1
 49 37 l 1
45 42 m 1
 44 42 l 1
 44 43 l 1
 46 43 l 1
 46 41 l 1
 45 41 l 1
 45 42 l 1
49 41 m 1
 47 41 l 1
 47 43 l 1
 49 43 l 1
 49 41 l 1
55 41 m 1
 53 41 l 1
 53 43 l 1
 55 43 l 1
 55 41 l 1
58 41 m 1
 56 41 l 1
 56 43 l 1
 57 43 l 1
 57 42 l 1
 58 42 l 1
 58 41 l 1
59 42 m 1
 58 42 l 1
 58 43 l 1
 60 43 l 1
 60 41 l 1
 59 41 l 1
 59 42 l 1
63 37 m 1
 61 37 l 1
 61 39 l 1
 63 39 l 1
 63 37 l 1
63 41 m 1
 61 41 l 1
 61 43 l 1
 63 43 l 1
 63 41 l 1
EndSplineSet
Ligature2: "'liga' Standard Ligatures in Latin lookup 0-1" three five zero zero one
LCarets2: 1 0
EndChar

StartChar: custom_3_5_0_0_2
Encoding: 10758 -1 10513
Width: 70
Flags: H
LayerCount: 2
Fore
SplineSet
17 25 m 1
 15 25 l 1
 15 27 l 1
 17 27 l 1
 17 25 l 1
17 29 m 1
 15 29 l 1
 15 31 l 1
 17 31 l 1
 17 29 l 1
17 33 m 1
 15 33 l 1
 15 35 l 1
 17 35 l 1
 17 33 l 1
23 25 m 1
 21 25 l 1
 21 27 l 1
 23 27 l 1
 23 25 l 1
26 25 m 1
 24 25 l 1
 24 27 l 1
 25 27 l 1
 25 26 l 1
 26 26 l 1
 26 25 l 1
27 26 m 1
 26 26 l 1
 26 27 l 1
 28 27 l 1
 28 25 l 1
 27 25 l 1
 27 26 l 1
31 25 m 1
 29 25 l 1
 29 27 l 1
 31 27 l 1
 31 25 l 1
23 33 m 1
 21 33 l 1
 21 35 l 1
 23 35 l 1
 23 33 l 1
25 33 m 1
 24 33 l 1
 24 35 l 1
 26 35 l 1
 26 34 l 1
 25 34 l 1
 25 33 l 1
28 33 m 1
 26 33 l 1
 26 34 l 1
 27 34 l 1
 27 35 l 1
 28 35 l 1
 28 33 l 1
31 29 m 1
 29 29 l 1
 29 31 l 1
 31 31 l 1
 31 29 l 1
36 31 m 1
 34 31 l 1
 34 33 l 1
 36 33 l 1
 36 31 l 1
31 33 m 1
 29 33 l 1
 29 35 l 1
 31 35 l 1
 31 33 l 1
36 35 m 1
 34 35 l 1
 34 37 l 1
 36 37 l 1
 36 35 l 1
17 37 m 1
 15 37 l 1
 15 39 l 1
 17 39 l 1
 17 37 l 1
17 41 m 1
 15 41 l 1
 15 43 l 1
 17 43 l 1
 17 41 l 1
23 37 m 1
 21 37 l 1
 21 39 l 1
 23 39 l 1
 23 37 l 1
23 41 m 1
 21 41 l 1
 21 43 l 1
 23 43 l 1
 23 41 l 1
26 41 m 1
 24 41 l 1
 24 43 l 1
 25 43 l 1
 25 42 l 1
 26 42 l 1
 26 41 l 1
27 42 m 1
 26 42 l 1
 26 43 l 1
 28 43 l 1
 28 41 l 1
 27 41 l 1
 27 42 l 1
31 41 m 1
 29 41 l 1
 29 43 l 1
 31 43 l 1
 31 41 l 1
41 25 m 1
 39 25 l 1
 39 27 l 1
 41 27 l 1
 41 25 l 1
44 25 m 1
 42 25 l 1
 42 27 l 1
 43 27 l 1
 43 26 l 1
 44 26 l 1
 44 25 l 1
45 26 m 1
 44 26 l 1
 44 27 l 1
 46 27 l 1
 46 25 l 1
 45 25 l 1
 45 26 l 1
49 25 m 1
 47 25 l 1
 47 27 l 1
 49 27 l 1
 49 25 l 1
41 33 m 1
 39 33 l 1
 39 35 l 1
 41 35 l 1
 41 33 l 1
43 33 m 1
 42 33 l 1
 42 35 l 1
 44 35 l 1
 44 34 l 1
 43 34 l 1
 43 33 l 1
49 29 m 1
 47 29 l 1
 47 31 l 1
 49 31 l 1
 49 29 l 1
46 33 m 1
 44 33 l 1
 44 34 l 1
 45 34 l 1
 45 35 l 1
 46 35 l 1
 46 33 l 1
49 33 m 1
 47 33 l 1
 47 35 l 1
 49 35 l 1
 49 33 l 1
55 25 m 1
 53 25 l 1
 53 27 l 1
 55 27 l 1
 55 25 l 1
58 25 m 1
 56 25 l 1
 56 27 l 1
 57 27 l 1
 57 26 l 1
 58 26 l 1
 58 25 l 1
59 26 m 1
 58 26 l 1
 58 27 l 1
 60 27 l 1
 60 25 l 1
 59 25 l 1
 59 26 l 1
63 25 m 1
 61 25 l 1
 61 27 l 1
 63 27 l 1
 63 25 l 1
55 29 m 1
 53 29 l 1
 53 31 l 1
 55 31 l 1
 55 29 l 1
55 33 m 1
 53 33 l 1
 53 35 l 1
 55 35 l 1
 55 33 l 1
57 33 m 1
 56 33 l 1
 56 35 l 1
 58 35 l 1
 58 34 l 1
 57 34 l 1
 57 33 l 1
60 33 m 1
 58 33 l 1
 58 34 l 1
 59 34 l 1
 59 35 l 1
 60 35 l 1
 60 33 l 1
63 33 m 1
 61 33 l 1
 61 35 l 1
 63 35 l 1
 63 33 l 1
41 41 m 1
 39 41 l 1
 39 43 l 1
 41 43 l 1
 41 41 l 1
44 41 m 1
 42 41 l 1
 42 43 l 1
 43 43 l 1
 43 42 l 1
 44 42 l 1
 44 41 l 1
49 37 m 1
 47 37 l 1
 47 39 l 1
 49 39 l 1
 49 37 l 1
45 42 m 1
 44 42 l 1
 44 43 l 1
 46 43 l 1
 46 41 l 1
 45 41 l 1
 45 42 l 1
49 41 m 1
 47 41 l 1
 47 43 l 1
 49 43 l 1
 49 41 l 1
55 41 m 1
 53 41 l 1
 53 43 l 1
 55 43 l 1
 55 41 l 1
58 41 m 1
 56 41 l 1
 56 43 l 1
 57 43 l 1
 57 42 l 1
 58 42 l 1
 58 41 l 1
59 42 m 1
 58 42 l 1
 58 43 l 1
 60 43 l 1
 60 41 l 1
 59 41 l 1
 59 42 l 1
63 37 m 1
 61 37 l 1
 61 39 l 1
 63 39 l 1
 63 37 l 1
63 41 m 1
 61 41 l 1
 61 43 l 1
 63 43 l 1
 63 41 l 1
EndSplineSet
Ligature2: "'liga' Standard Ligatures in Latin lookup 0-1" three five zero zero two
LCarets2: 1 0
EndChar

StartChar: custom_3_5_0_0_3
Encoding: 10759 -1 10514
Width: 70
Flags: H
LayerCount: 2
Fore
SplineSet
17 25 m 1
 15 25 l 1
 15 27 l 1
 17 27 l 1
 17 25 l 1
17 29 m 1
 15 29 l 1
 15 31 l 1
 17 31 l 1
 17 29 l 1
17 33 m 1
 15 33 l 1
 15 35 l 1
 17 35 l 1
 17 33 l 1
23 25 m 1
 21 25 l 1
 21 27 l 1
 23 27 l 1
 23 25 l 1
26 25 m 1
 24 25 l 1
 24 27 l 1
 25 27 l 1
 25 26 l 1
 26 26 l 1
 26 25 l 1
27 26 m 1
 26 26 l 1
 26 27 l 1
 28 27 l 1
 28 25 l 1
 27 25 l 1
 27 26 l 1
31 25 m 1
 29 25 l 1
 29 27 l 1
 31 27 l 1
 31 25 l 1
23 33 m 1
 21 33 l 1
 21 35 l 1
 23 35 l 1
 23 33 l 1
25 33 m 1
 24 33 l 1
 24 35 l 1
 26 35 l 1
 26 34 l 1
 25 34 l 1
 25 33 l 1
28 33 m 1
 26 33 l 1
 26 34 l 1
 27 34 l 1
 27 35 l 1
 28 35 l 1
 28 33 l 1
31 29 m 1
 29 29 l 1
 29 31 l 1
 31 31 l 1
 31 29 l 1
36 31 m 1
 34 31 l 1
 34 33 l 1
 36 33 l 1
 36 31 l 1
31 33 m 1
 29 33 l 1
 29 35 l 1
 31 35 l 1
 31 33 l 1
36 35 m 1
 34 35 l 1
 34 37 l 1
 36 37 l 1
 36 35 l 1
17 37 m 1
 15 37 l 1
 15 39 l 1
 17 39 l 1
 17 37 l 1
17 41 m 1
 15 41 l 1
 15 43 l 1
 17 43 l 1
 17 41 l 1
23 37 m 1
 21 37 l 1
 21 39 l 1
 23 39 l 1
 23 37 l 1
23 41 m 1
 21 41 l 1
 21 43 l 1
 23 43 l 1
 23 41 l 1
26 41 m 1
 24 41 l 1
 24 43 l 1
 25 43 l 1
 25 42 l 1
 26 42 l 1
 26 41 l 1
27 42 m 1
 26 42 l 1
 26 43 l 1
 28 43 l 1
 28 41 l 1
 27 41 l 1
 27 42 l 1
31 41 m 1
 29 41 l 1
 29 43 l 1
 31 43 l 1
 31 41 l 1
41 25 m 1
 39 25 l 1
 39 27 l 1
 41 27 l 1
 41 25 l 1
44 25 m 1
 42 25 l 1
 42 27 l 1
 43 27 l 1
 43 26 l 1
 44 26 l 1
 44 25 l 1
45 26 m 1
 44 26 l 1
 44 27 l 1
 46 27 l 1
 46 25 l 1
 45 25 l 1
 45 26 l 1
49 25 m 1
 47 25 l 1
 47 27 l 1
 49 27 l 1
 49 25 l 1
41 33 m 1
 39 33 l 1
 39 35 l 1
 41 35 l 1
 41 33 l 1
43 33 m 1
 42 33 l 1
 42 35 l 1
 44 35 l 1
 44 34 l 1
 43 34 l 1
 43 33 l 1
49 29 m 1
 47 29 l 1
 47 31 l 1
 49 31 l 1
 49 29 l 1
46 33 m 1
 44 33 l 1
 44 34 l 1
 45 34 l 1
 45 35 l 1
 46 35 l 1
 46 33 l 1
49 33 m 1
 47 33 l 1
 47 35 l 1
 49 35 l 1
 49 33 l 1
55 25 m 1
 53 25 l 1
 53 27 l 1
 55 27 l 1
 55 25 l 1
58 25 m 1
 56 25 l 1
 56 27 l 1
 57 27 l 1
 57 26 l 1
 58 26 l 1
 58 25 l 1
59 26 m 1
 58 26 l 1
 58 27 l 1
 60 27 l 1
 60 25 l 1
 59 25 l 1
 59 26 l 1
63 25 m 1
 61 25 l 1
 61 27 l 1
 63 27 l 1
 63 25 l 1
55 29 m 1
 53 29 l 1
 53 31 l 1
 55 31 l 1
 55 29 l 1
55 33 m 1
 53 33 l 1
 53 35 l 1
 55 35 l 1
 55 33 l 1
57 33 m 1
 56 33 l 1
 56 35 l 1
 58 35 l 1
 58 34 l 1
 57 34 l 1
 57 33 l 1
60 33 m 1
 58 33 l 1
 58 34 l 1
 59 34 l 1
 59 35 l 1
 60 35 l 1
 60 33 l 1
63 33 m 1
 61 33 l 1
 61 35 l 1
 63 35 l 1
 63 33 l 1
41 41 m 1
 39 41 l 1
 39 43 l 1
 41 43 l 1
 41 41 l 1
44 41 m 1
 42 41 l 1
 42 43 l 1
 43 43 l 1
 43 42 l 1
 44 42 l 1
 44 41 l 1
49 37 m 1
 47 37 l 1
 47 39 l 1
 49 39 l 1
 49 37 l 1
45 42 m 1
 44 42 l 1
 44 43 l 1
 46 43 l 1
 46 41 l 1
 45 41 l 1
 45 42 l 1
49 41 m 1
 47 41 l 1
 47 43 l 1
 49 43 l 1
 49 41 l 1
55 41 m 1
 53 41 l 1
 53 43 l 1
 55 43 l 1
 55 41 l 1
58 41 m 1
 56 41 l 1
 56 43 l 1
 57 43 l 1
 57 42 l 1
 58 42 l 1
 58 41 l 1
59 42 m 1
 58 42 l 1
 58 43 l 1
 60 43 l 1
 60 41 l 1
 59 41 l 1
 59 42 l 1
63 37 m 1
 61 37 l 1
 61 39 l 1
 63 39 l 1
 63 37 l 1
63 41 m 1
 61 41 l 1
 61 43 l 1
 63 43 l 1
 63 41 l 1
EndSplineSet
Ligature2: "'liga' Standard Ligatures in Latin lookup 0-1" three five zero zero three
LCarets2: 1 0
EndChar

StartChar: custom_3_5_0_0_4
Encoding: 10760 -1 10515
Width: 70
Flags: H
LayerCount: 2
Fore
SplineSet
17 25 m 1
 15 25 l 1
 15 27 l 1
 17 27 l 1
 17 25 l 1
17 29 m 1
 15 29 l 1
 15 31 l 1
 17 31 l 1
 17 29 l 1
17 33 m 1
 15 33 l 1
 15 35 l 1
 17 35 l 1
 17 33 l 1
23 25 m 1
 21 25 l 1
 21 27 l 1
 23 27 l 1
 23 25 l 1
26 25 m 1
 24 25 l 1
 24 27 l 1
 25 27 l 1
 25 26 l 1
 26 26 l 1
 26 25 l 1
27 26 m 1
 26 26 l 1
 26 27 l 1
 28 27 l 1
 28 25 l 1
 27 25 l 1
 27 26 l 1
31 25 m 1
 29 25 l 1
 29 27 l 1
 31 27 l 1
 31 25 l 1
23 33 m 1
 21 33 l 1
 21 35 l 1
 23 35 l 1
 23 33 l 1
25 33 m 1
 24 33 l 1
 24 35 l 1
 26 35 l 1
 26 34 l 1
 25 34 l 1
 25 33 l 1
28 33 m 1
 26 33 l 1
 26 34 l 1
 27 34 l 1
 27 35 l 1
 28 35 l 1
 28 33 l 1
31 29 m 1
 29 29 l 1
 29 31 l 1
 31 31 l 1
 31 29 l 1
36 31 m 1
 34 31 l 1
 34 33 l 1
 36 33 l 1
 36 31 l 1
31 33 m 1
 29 33 l 1
 29 35 l 1
 31 35 l 1
 31 33 l 1
36 35 m 1
 34 35 l 1
 34 37 l 1
 36 37 l 1
 36 35 l 1
17 37 m 1
 15 37 l 1
 15 39 l 1
 17 39 l 1
 17 37 l 1
17 41 m 1
 15 41 l 1
 15 43 l 1
 17 43 l 1
 17 41 l 1
23 37 m 1
 21 37 l 1
 21 39 l 1
 23 39 l 1
 23 37 l 1
23 41 m 1
 21 41 l 1
 21 43 l 1
 23 43 l 1
 23 41 l 1
26 41 m 1
 24 41 l 1
 24 43 l 1
 25 43 l 1
 25 42 l 1
 26 42 l 1
 26 41 l 1
27 42 m 1
 26 42 l 1
 26 43 l 1
 28 43 l 1
 28 41 l 1
 27 41 l 1
 27 42 l 1
31 41 m 1
 29 41 l 1
 29 43 l 1
 31 43 l 1
 31 41 l 1
41 25 m 1
 39 25 l 1
 39 27 l 1
 41 27 l 1
 41 25 l 1
44 25 m 1
 42 25 l 1
 42 27 l 1
 43 27 l 1
 43 26 l 1
 44 26 l 1
 44 25 l 1
45 26 m 1
 44 26 l 1
 44 27 l 1
 46 27 l 1
 46 25 l 1
 45 25 l 1
 45 26 l 1
49 25 m 1
 47 25 l 1
 47 27 l 1
 49 27 l 1
 49 25 l 1
41 33 m 1
 39 33 l 1
 39 35 l 1
 41 35 l 1
 41 33 l 1
43 33 m 1
 42 33 l 1
 42 35 l 1
 44 35 l 1
 44 34 l 1
 43 34 l 1
 43 33 l 1
49 29 m 1
 47 29 l 1
 47 31 l 1
 49 31 l 1
 49 29 l 1
46 33 m 1
 44 33 l 1
 44 34 l 1
 45 34 l 1
 45 35 l 1
 46 35 l 1
 46 33 l 1
49 33 m 1
 47 33 l 1
 47 35 l 1
 49 35 l 1
 49 33 l 1
55 25 m 1
 53 25 l 1
 53 27 l 1
 55 27 l 1
 55 25 l 1
58 25 m 1
 56 25 l 1
 56 27 l 1
 57 27 l 1
 57 26 l 1
 58 26 l 1
 58 25 l 1
59 26 m 1
 58 26 l 1
 58 27 l 1
 60 27 l 1
 60 25 l 1
 59 25 l 1
 59 26 l 1
63 25 m 1
 61 25 l 1
 61 27 l 1
 63 27 l 1
 63 25 l 1
55 29 m 1
 53 29 l 1
 53 31 l 1
 55 31 l 1
 55 29 l 1
55 33 m 1
 53 33 l 1
 53 35 l 1
 55 35 l 1
 55 33 l 1
57 33 m 1
 56 33 l 1
 56 35 l 1
 58 35 l 1
 58 34 l 1
 57 34 l 1
 57 33 l 1
60 33 m 1
 58 33 l 1
 58 34 l 1
 59 34 l 1
 59 35 l 1
 60 35 l 1
 60 33 l 1
63 33 m 1
 61 33 l 1
 61 35 l 1
 63 35 l 1
 63 33 l 1
41 41 m 1
 39 41 l 1
 39 43 l 1
 41 43 l 1
 41 41 l 1
44 41 m 1
 42 41 l 1
 42 43 l 1
 43 43 l 1
 43 42 l 1
 44 42 l 1
 44 41 l 1
49 37 m 1
 47 37 l 1
 47 39 l 1
 49 39 l 1
 49 37 l 1
45 42 m 1
 44 42 l 1
 44 43 l 1
 46 43 l 1
 46 41 l 1
 45 41 l 1
 45 42 l 1
49 41 m 1
 47 41 l 1
 47 43 l 1
 49 43 l 1
 49 41 l 1
55 41 m 1
 53 41 l 1
 53 43 l 1
 55 43 l 1
 55 41 l 1
58 41 m 1
 56 41 l 1
 56 43 l 1
 57 43 l 1
 57 42 l 1
 58 42 l 1
 58 41 l 1
59 42 m 1
 58 42 l 1
 58 43 l 1
 60 43 l 1
 60 41 l 1
 59 41 l 1
 59 42 l 1
63 37 m 1
 61 37 l 1
 61 39 l 1
 63 39 l 1
 63 37 l 1
63 41 m 1
 61 41 l 1
 61 43 l 1
 63 43 l 1
 63 41 l 1
EndSplineSet
Ligature2: "'liga' Standard Ligatures in Latin lookup 0-1" three five zero zero four
LCarets2: 1 0
EndChar

StartChar: custom_3_5_0_0_5
Encoding: 10761 -1 10516
Width: 70
Flags: H
LayerCount: 2
Fore
SplineSet
17 25 m 1
 15 25 l 1
 15 27 l 1
 17 27 l 1
 17 25 l 1
17 29 m 1
 15 29 l 1
 15 31 l 1
 17 31 l 1
 17 29 l 1
17 33 m 1
 15 33 l 1
 15 35 l 1
 17 35 l 1
 17 33 l 1
23 25 m 1
 21 25 l 1
 21 27 l 1
 23 27 l 1
 23 25 l 1
26 25 m 1
 24 25 l 1
 24 27 l 1
 25 27 l 1
 25 26 l 1
 26 26 l 1
 26 25 l 1
27 26 m 1
 26 26 l 1
 26 27 l 1
 28 27 l 1
 28 25 l 1
 27 25 l 1
 27 26 l 1
31 25 m 1
 29 25 l 1
 29 27 l 1
 31 27 l 1
 31 25 l 1
23 33 m 1
 21 33 l 1
 21 35 l 1
 23 35 l 1
 23 33 l 1
25 33 m 1
 24 33 l 1
 24 35 l 1
 26 35 l 1
 26 34 l 1
 25 34 l 1
 25 33 l 1
28 33 m 1
 26 33 l 1
 26 34 l 1
 27 34 l 1
 27 35 l 1
 28 35 l 1
 28 33 l 1
31 29 m 1
 29 29 l 1
 29 31 l 1
 31 31 l 1
 31 29 l 1
36 31 m 1
 34 31 l 1
 34 33 l 1
 36 33 l 1
 36 31 l 1
31 33 m 1
 29 33 l 1
 29 35 l 1
 31 35 l 1
 31 33 l 1
36 35 m 1
 34 35 l 1
 34 37 l 1
 36 37 l 1
 36 35 l 1
17 37 m 1
 15 37 l 1
 15 39 l 1
 17 39 l 1
 17 37 l 1
17 41 m 1
 15 41 l 1
 15 43 l 1
 17 43 l 1
 17 41 l 1
23 37 m 1
 21 37 l 1
 21 39 l 1
 23 39 l 1
 23 37 l 1
23 41 m 1
 21 41 l 1
 21 43 l 1
 23 43 l 1
 23 41 l 1
26 41 m 1
 24 41 l 1
 24 43 l 1
 25 43 l 1
 25 42 l 1
 26 42 l 1
 26 41 l 1
27 42 m 1
 26 42 l 1
 26 43 l 1
 28 43 l 1
 28 41 l 1
 27 41 l 1
 27 42 l 1
31 41 m 1
 29 41 l 1
 29 43 l 1
 31 43 l 1
 31 41 l 1
41 25 m 1
 39 25 l 1
 39 27 l 1
 41 27 l 1
 41 25 l 1
44 25 m 1
 42 25 l 1
 42 27 l 1
 43 27 l 1
 43 26 l 1
 44 26 l 1
 44 25 l 1
45 26 m 1
 44 26 l 1
 44 27 l 1
 46 27 l 1
 46 25 l 1
 45 25 l 1
 45 26 l 1
49 25 m 1
 47 25 l 1
 47 27 l 1
 49 27 l 1
 49 25 l 1
41 33 m 1
 39 33 l 1
 39 35 l 1
 41 35 l 1
 41 33 l 1
43 33 m 1
 42 33 l 1
 42 35 l 1
 44 35 l 1
 44 34 l 1
 43 34 l 1
 43 33 l 1
49 29 m 1
 47 29 l 1
 47 31 l 1
 49 31 l 1
 49 29 l 1
46 33 m 1
 44 33 l 1
 44 34 l 1
 45 34 l 1
 45 35 l 1
 46 35 l 1
 46 33 l 1
49 33 m 1
 47 33 l 1
 47 35 l 1
 49 35 l 1
 49 33 l 1
55 25 m 1
 53 25 l 1
 53 27 l 1
 55 27 l 1
 55 25 l 1
58 25 m 1
 56 25 l 1
 56 27 l 1
 57 27 l 1
 57 26 l 1
 58 26 l 1
 58 25 l 1
59 26 m 1
 58 26 l 1
 58 27 l 1
 60 27 l 1
 60 25 l 1
 59 25 l 1
 59 26 l 1
63 25 m 1
 61 25 l 1
 61 27 l 1
 63 27 l 1
 63 25 l 1
55 29 m 1
 53 29 l 1
 53 31 l 1
 55 31 l 1
 55 29 l 1
55 33 m 1
 53 33 l 1
 53 35 l 1
 55 35 l 1
 55 33 l 1
57 33 m 1
 56 33 l 1
 56 35 l 1
 58 35 l 1
 58 34 l 1
 57 34 l 1
 57 33 l 1
60 33 m 1
 58 33 l 1
 58 34 l 1
 59 34 l 1
 59 35 l 1
 60 35 l 1
 60 33 l 1
63 33 m 1
 61 33 l 1
 61 35 l 1
 63 35 l 1
 63 33 l 1
41 41 m 1
 39 41 l 1
 39 43 l 1
 41 43 l 1
 41 41 l 1
44 41 m 1
 42 41 l 1
 42 43 l 1
 43 43 l 1
 43 42 l 1
 44 42 l 1
 44 41 l 1
49 37 m 1
 47 37 l 1
 47 39 l 1
 49 39 l 1
 49 37 l 1
45 42 m 1
 44 42 l 1
 44 43 l 1
 46 43 l 1
 46 41 l 1
 45 41 l 1
 45 42 l 1
49 41 m 1
 47 41 l 1
 47 43 l 1
 49 43 l 1
 49 41 l 1
55 41 m 1
 53 41 l 1
 53 43 l 1
 55 43 l 1
 55 41 l 1
58 41 m 1
 56 41 l 1
 56 43 l 1
 57 43 l 1
 57 42 l 1
 58 42 l 1
 58 41 l 1
59 42 m 1
 58 42 l 1
 58 43 l 1
 60 43 l 1
 60 41 l 1
 59 41 l 1
 59 42 l 1
63 37 m 1
 61 37 l 1
 61 39 l 1
 63 39 l 1
 63 37 l 1
63 41 m 1
 61 41 l 1
 61 43 l 1
 63 43 l 1
 63 41 l 1
EndSplineSet
Ligature2: "'liga' Standard Ligatures in Latin lookup 0-1" three five zero zero five
LCarets2: 1 0
EndChar

StartChar: custom_3_5_0_0_6
Encoding: 10762 -1 10517
Width: 70
Flags: H
LayerCount: 2
Fore
SplineSet
17 25 m 1
 15 25 l 1
 15 27 l 1
 17 27 l 1
 17 25 l 1
17 29 m 1
 15 29 l 1
 15 31 l 1
 17 31 l 1
 17 29 l 1
17 33 m 1
 15 33 l 1
 15 35 l 1
 17 35 l 1
 17 33 l 1
23 25 m 1
 21 25 l 1
 21 27 l 1
 23 27 l 1
 23 25 l 1
26 25 m 1
 24 25 l 1
 24 27 l 1
 25 27 l 1
 25 26 l 1
 26 26 l 1
 26 25 l 1
27 26 m 1
 26 26 l 1
 26 27 l 1
 28 27 l 1
 28 25 l 1
 27 25 l 1
 27 26 l 1
31 25 m 1
 29 25 l 1
 29 27 l 1
 31 27 l 1
 31 25 l 1
23 33 m 1
 21 33 l 1
 21 35 l 1
 23 35 l 1
 23 33 l 1
25 33 m 1
 24 33 l 1
 24 35 l 1
 26 35 l 1
 26 34 l 1
 25 34 l 1
 25 33 l 1
28 33 m 1
 26 33 l 1
 26 34 l 1
 27 34 l 1
 27 35 l 1
 28 35 l 1
 28 33 l 1
31 29 m 1
 29 29 l 1
 29 31 l 1
 31 31 l 1
 31 29 l 1
36 31 m 1
 34 31 l 1
 34 33 l 1
 36 33 l 1
 36 31 l 1
31 33 m 1
 29 33 l 1
 29 35 l 1
 31 35 l 1
 31 33 l 1
36 35 m 1
 34 35 l 1
 34 37 l 1
 36 37 l 1
 36 35 l 1
17 37 m 1
 15 37 l 1
 15 39 l 1
 17 39 l 1
 17 37 l 1
17 41 m 1
 15 41 l 1
 15 43 l 1
 17 43 l 1
 17 41 l 1
23 37 m 1
 21 37 l 1
 21 39 l 1
 23 39 l 1
 23 37 l 1
23 41 m 1
 21 41 l 1
 21 43 l 1
 23 43 l 1
 23 41 l 1
26 41 m 1
 24 41 l 1
 24 43 l 1
 25 43 l 1
 25 42 l 1
 26 42 l 1
 26 41 l 1
27 42 m 1
 26 42 l 1
 26 43 l 1
 28 43 l 1
 28 41 l 1
 27 41 l 1
 27 42 l 1
31 41 m 1
 29 41 l 1
 29 43 l 1
 31 43 l 1
 31 41 l 1
41 25 m 1
 39 25 l 1
 39 27 l 1
 41 27 l 1
 41 25 l 1
44 25 m 1
 42 25 l 1
 42 27 l 1
 43 27 l 1
 43 26 l 1
 44 26 l 1
 44 25 l 1
45 26 m 1
 44 26 l 1
 44 27 l 1
 46 27 l 1
 46 25 l 1
 45 25 l 1
 45 26 l 1
49 25 m 1
 47 25 l 1
 47 27 l 1
 49 27 l 1
 49 25 l 1
41 33 m 1
 39 33 l 1
 39 35 l 1
 41 35 l 1
 41 33 l 1
43 33 m 1
 42 33 l 1
 42 35 l 1
 44 35 l 1
 44 34 l 1
 43 34 l 1
 43 33 l 1
49 29 m 1
 47 29 l 1
 47 31 l 1
 49 31 l 1
 49 29 l 1
46 33 m 1
 44 33 l 1
 44 34 l 1
 45 34 l 1
 45 35 l 1
 46 35 l 1
 46 33 l 1
49 33 m 1
 47 33 l 1
 47 35 l 1
 49 35 l 1
 49 33 l 1
55 25 m 1
 53 25 l 1
 53 27 l 1
 55 27 l 1
 55 25 l 1
58 25 m 1
 56 25 l 1
 56 27 l 1
 57 27 l 1
 57 26 l 1
 58 26 l 1
 58 25 l 1
59 26 m 1
 58 26 l 1
 58 27 l 1
 60 27 l 1
 60 25 l 1
 59 25 l 1
 59 26 l 1
63 25 m 1
 61 25 l 1
 61 27 l 1
 63 27 l 1
 63 25 l 1
55 29 m 1
 53 29 l 1
 53 31 l 1
 55 31 l 1
 55 29 l 1
55 33 m 1
 53 33 l 1
 53 35 l 1
 55 35 l 1
 55 33 l 1
57 33 m 1
 56 33 l 1
 56 35 l 1
 58 35 l 1
 58 34 l 1
 57 34 l 1
 57 33 l 1
60 33 m 1
 58 33 l 1
 58 34 l 1
 59 34 l 1
 59 35 l 1
 60 35 l 1
 60 33 l 1
63 33 m 1
 61 33 l 1
 61 35 l 1
 63 35 l 1
 63 33 l 1
41 41 m 1
 39 41 l 1
 39 43 l 1
 41 43 l 1
 41 41 l 1
44 41 m 1
 42 41 l 1
 42 43 l 1
 43 43 l 1
 43 42 l 1
 44 42 l 1
 44 41 l 1
49 37 m 1
 47 37 l 1
 47 39 l 1
 49 39 l 1
 49 37 l 1
45 42 m 1
 44 42 l 1
 44 43 l 1
 46 43 l 1
 46 41 l 1
 45 41 l 1
 45 42 l 1
49 41 m 1
 47 41 l 1
 47 43 l 1
 49 43 l 1
 49 41 l 1
55 41 m 1
 53 41 l 1
 53 43 l 1
 55 43 l 1
 55 41 l 1
58 41 m 1
 56 41 l 1
 56 43 l 1
 57 43 l 1
 57 42 l 1
 58 42 l 1
 58 41 l 1
59 42 m 1
 58 42 l 1
 58 43 l 1
 60 43 l 1
 60 41 l 1
 59 41 l 1
 59 42 l 1
63 37 m 1
 61 37 l 1
 61 39 l 1
 63 39 l 1
 63 37 l 1
63 41 m 1
 61 41 l 1
 61 43 l 1
 63 43 l 1
 63 41 l 1
EndSplineSet
Ligature2: "'liga' Standard Ligatures in Latin lookup 0-1" three five zero zero six
LCarets2: 1 0
EndChar

StartChar: custom_3_5_0_0_7
Encoding: 10763 -1 10518
Width: 70
Flags: H
LayerCount: 2
Fore
SplineSet
17 25 m 1
 15 25 l 1
 15 27 l 1
 17 27 l 1
 17 25 l 1
17 29 m 1
 15 29 l 1
 15 31 l 1
 17 31 l 1
 17 29 l 1
17 33 m 1
 15 33 l 1
 15 35 l 1
 17 35 l 1
 17 33 l 1
23 25 m 1
 21 25 l 1
 21 27 l 1
 23 27 l 1
 23 25 l 1
26 25 m 1
 24 25 l 1
 24 27 l 1
 25 27 l 1
 25 26 l 1
 26 26 l 1
 26 25 l 1
27 26 m 1
 26 26 l 1
 26 27 l 1
 28 27 l 1
 28 25 l 1
 27 25 l 1
 27 26 l 1
31 25 m 1
 29 25 l 1
 29 27 l 1
 31 27 l 1
 31 25 l 1
23 33 m 1
 21 33 l 1
 21 35 l 1
 23 35 l 1
 23 33 l 1
25 33 m 1
 24 33 l 1
 24 35 l 1
 26 35 l 1
 26 34 l 1
 25 34 l 1
 25 33 l 1
28 33 m 1
 26 33 l 1
 26 34 l 1
 27 34 l 1
 27 35 l 1
 28 35 l 1
 28 33 l 1
31 29 m 1
 29 29 l 1
 29 31 l 1
 31 31 l 1
 31 29 l 1
36 31 m 1
 34 31 l 1
 34 33 l 1
 36 33 l 1
 36 31 l 1
31 33 m 1
 29 33 l 1
 29 35 l 1
 31 35 l 1
 31 33 l 1
36 35 m 1
 34 35 l 1
 34 37 l 1
 36 37 l 1
 36 35 l 1
17 37 m 1
 15 37 l 1
 15 39 l 1
 17 39 l 1
 17 37 l 1
17 41 m 1
 15 41 l 1
 15 43 l 1
 17 43 l 1
 17 41 l 1
23 37 m 1
 21 37 l 1
 21 39 l 1
 23 39 l 1
 23 37 l 1
23 41 m 1
 21 41 l 1
 21 43 l 1
 23 43 l 1
 23 41 l 1
26 41 m 1
 24 41 l 1
 24 43 l 1
 25 43 l 1
 25 42 l 1
 26 42 l 1
 26 41 l 1
27 42 m 1
 26 42 l 1
 26 43 l 1
 28 43 l 1
 28 41 l 1
 27 41 l 1
 27 42 l 1
31 41 m 1
 29 41 l 1
 29 43 l 1
 31 43 l 1
 31 41 l 1
41 25 m 1
 39 25 l 1
 39 27 l 1
 41 27 l 1
 41 25 l 1
44 25 m 1
 42 25 l 1
 42 27 l 1
 43 27 l 1
 43 26 l 1
 44 26 l 1
 44 25 l 1
45 26 m 1
 44 26 l 1
 44 27 l 1
 46 27 l 1
 46 25 l 1
 45 25 l 1
 45 26 l 1
49 25 m 1
 47 25 l 1
 47 27 l 1
 49 27 l 1
 49 25 l 1
41 33 m 1
 39 33 l 1
 39 35 l 1
 41 35 l 1
 41 33 l 1
43 33 m 1
 42 33 l 1
 42 35 l 1
 44 35 l 1
 44 34 l 1
 43 34 l 1
 43 33 l 1
49 29 m 1
 47 29 l 1
 47 31 l 1
 49 31 l 1
 49 29 l 1
46 33 m 1
 44 33 l 1
 44 34 l 1
 45 34 l 1
 45 35 l 1
 46 35 l 1
 46 33 l 1
49 33 m 1
 47 33 l 1
 47 35 l 1
 49 35 l 1
 49 33 l 1
55 25 m 1
 53 25 l 1
 53 27 l 1
 55 27 l 1
 55 25 l 1
58 25 m 1
 56 25 l 1
 56 27 l 1
 57 27 l 1
 57 26 l 1
 58 26 l 1
 58 25 l 1
59 26 m 1
 58 26 l 1
 58 27 l 1
 60 27 l 1
 60 25 l 1
 59 25 l 1
 59 26 l 1
63 25 m 1
 61 25 l 1
 61 27 l 1
 63 27 l 1
 63 25 l 1
55 29 m 1
 53 29 l 1
 53 31 l 1
 55 31 l 1
 55 29 l 1
55 33 m 1
 53 33 l 1
 53 35 l 1
 55 35 l 1
 55 33 l 1
57 33 m 1
 56 33 l 1
 56 35 l 1
 58 35 l 1
 58 34 l 1
 57 34 l 1
 57 33 l 1
60 33 m 1
 58 33 l 1
 58 34 l 1
 59 34 l 1
 59 35 l 1
 60 35 l 1
 60 33 l 1
63 33 m 1
 61 33 l 1
 61 35 l 1
 63 35 l 1
 63 33 l 1
41 41 m 1
 39 41 l 1
 39 43 l 1
 41 43 l 1
 41 41 l 1
44 41 m 1
 42 41 l 1
 42 43 l 1
 43 43 l 1
 43 42 l 1
 44 42 l 1
 44 41 l 1
49 37 m 1
 47 37 l 1
 47 39 l 1
 49 39 l 1
 49 37 l 1
45 42 m 1
 44 42 l 1
 44 43 l 1
 46 43 l 1
 46 41 l 1
 45 41 l 1
 45 42 l 1
49 41 m 1
 47 41 l 1
 47 43 l 1
 49 43 l 1
 49 41 l 1
55 41 m 1
 53 41 l 1
 53 43 l 1
 55 43 l 1
 55 41 l 1
58 41 m 1
 56 41 l 1
 56 43 l 1
 57 43 l 1
 57 42 l 1
 58 42 l 1
 58 41 l 1
59 42 m 1
 58 42 l 1
 58 43 l 1
 60 43 l 1
 60 41 l 1
 59 41 l 1
 59 42 l 1
63 37 m 1
 61 37 l 1
 61 39 l 1
 63 39 l 1
 63 37 l 1
63 41 m 1
 61 41 l 1
 61 43 l 1
 63 43 l 1
 63 41 l 1
EndSplineSet
Ligature2: "'liga' Standard Ligatures in Latin lookup 0-1" three five zero zero seven
LCarets2: 1 0
EndChar

StartChar: custom_3_5_0_0_8
Encoding: 10764 -1 10519
Width: 70
Flags: H
LayerCount: 2
Fore
SplineSet
17 25 m 1
 15 25 l 1
 15 27 l 1
 17 27 l 1
 17 25 l 1
17 29 m 1
 15 29 l 1
 15 31 l 1
 17 31 l 1
 17 29 l 1
17 33 m 1
 15 33 l 1
 15 35 l 1
 17 35 l 1
 17 33 l 1
23 25 m 1
 21 25 l 1
 21 27 l 1
 23 27 l 1
 23 25 l 1
26 25 m 1
 24 25 l 1
 24 27 l 1
 25 27 l 1
 25 26 l 1
 26 26 l 1
 26 25 l 1
27 26 m 1
 26 26 l 1
 26 27 l 1
 28 27 l 1
 28 25 l 1
 27 25 l 1
 27 26 l 1
31 25 m 1
 29 25 l 1
 29 27 l 1
 31 27 l 1
 31 25 l 1
23 33 m 1
 21 33 l 1
 21 35 l 1
 23 35 l 1
 23 33 l 1
25 33 m 1
 24 33 l 1
 24 35 l 1
 26 35 l 1
 26 34 l 1
 25 34 l 1
 25 33 l 1
28 33 m 1
 26 33 l 1
 26 34 l 1
 27 34 l 1
 27 35 l 1
 28 35 l 1
 28 33 l 1
31 29 m 1
 29 29 l 1
 29 31 l 1
 31 31 l 1
 31 29 l 1
36 31 m 1
 34 31 l 1
 34 33 l 1
 36 33 l 1
 36 31 l 1
31 33 m 1
 29 33 l 1
 29 35 l 1
 31 35 l 1
 31 33 l 1
36 35 m 1
 34 35 l 1
 34 37 l 1
 36 37 l 1
 36 35 l 1
17 37 m 1
 15 37 l 1
 15 39 l 1
 17 39 l 1
 17 37 l 1
17 41 m 1
 15 41 l 1
 15 43 l 1
 17 43 l 1
 17 41 l 1
23 37 m 1
 21 37 l 1
 21 39 l 1
 23 39 l 1
 23 37 l 1
23 41 m 1
 21 41 l 1
 21 43 l 1
 23 43 l 1
 23 41 l 1
26 41 m 1
 24 41 l 1
 24 43 l 1
 25 43 l 1
 25 42 l 1
 26 42 l 1
 26 41 l 1
27 42 m 1
 26 42 l 1
 26 43 l 1
 28 43 l 1
 28 41 l 1
 27 41 l 1
 27 42 l 1
31 41 m 1
 29 41 l 1
 29 43 l 1
 31 43 l 1
 31 41 l 1
41 25 m 1
 39 25 l 1
 39 27 l 1
 41 27 l 1
 41 25 l 1
44 25 m 1
 42 25 l 1
 42 27 l 1
 43 27 l 1
 43 26 l 1
 44 26 l 1
 44 25 l 1
45 26 m 1
 44 26 l 1
 44 27 l 1
 46 27 l 1
 46 25 l 1
 45 25 l 1
 45 26 l 1
49 25 m 1
 47 25 l 1
 47 27 l 1
 49 27 l 1
 49 25 l 1
41 33 m 1
 39 33 l 1
 39 35 l 1
 41 35 l 1
 41 33 l 1
43 33 m 1
 42 33 l 1
 42 35 l 1
 44 35 l 1
 44 34 l 1
 43 34 l 1
 43 33 l 1
49 29 m 1
 47 29 l 1
 47 31 l 1
 49 31 l 1
 49 29 l 1
46 33 m 1
 44 33 l 1
 44 34 l 1
 45 34 l 1
 45 35 l 1
 46 35 l 1
 46 33 l 1
49 33 m 1
 47 33 l 1
 47 35 l 1
 49 35 l 1
 49 33 l 1
55 25 m 1
 53 25 l 1
 53 27 l 1
 55 27 l 1
 55 25 l 1
58 25 m 1
 56 25 l 1
 56 27 l 1
 57 27 l 1
 57 26 l 1
 58 26 l 1
 58 25 l 1
59 26 m 1
 58 26 l 1
 58 27 l 1
 60 27 l 1
 60 25 l 1
 59 25 l 1
 59 26 l 1
63 25 m 1
 61 25 l 1
 61 27 l 1
 63 27 l 1
 63 25 l 1
55 29 m 1
 53 29 l 1
 53 31 l 1
 55 31 l 1
 55 29 l 1
55 33 m 1
 53 33 l 1
 53 35 l 1
 55 35 l 1
 55 33 l 1
57 33 m 1
 56 33 l 1
 56 35 l 1
 58 35 l 1
 58 34 l 1
 57 34 l 1
 57 33 l 1
60 33 m 1
 58 33 l 1
 58 34 l 1
 59 34 l 1
 59 35 l 1
 60 35 l 1
 60 33 l 1
63 33 m 1
 61 33 l 1
 61 35 l 1
 63 35 l 1
 63 33 l 1
41 41 m 1
 39 41 l 1
 39 43 l 1
 41 43 l 1
 41 41 l 1
44 41 m 1
 42 41 l 1
 42 43 l 1
 43 43 l 1
 43 42 l 1
 44 42 l 1
 44 41 l 1
49 37 m 1
 47 37 l 1
 47 39 l 1
 49 39 l 1
 49 37 l 1
45 42 m 1
 44 42 l 1
 44 43 l 1
 46 43 l 1
 46 41 l 1
 45 41 l 1
 45 42 l 1
49 41 m 1
 47 41 l 1
 47 43 l 1
 49 43 l 1
 49 41 l 1
55 41 m 1
 53 41 l 1
 53 43 l 1
 55 43 l 1
 55 41 l 1
58 41 m 1
 56 41 l 1
 56 43 l 1
 57 43 l 1
 57 42 l 1
 58 42 l 1
 58 41 l 1
59 42 m 1
 58 42 l 1
 58 43 l 1
 60 43 l 1
 60 41 l 1
 59 41 l 1
 59 42 l 1
63 37 m 1
 61 37 l 1
 61 39 l 1
 63 39 l 1
 63 37 l 1
63 41 m 1
 61 41 l 1
 61 43 l 1
 63 43 l 1
 63 41 l 1
EndSplineSet
Ligature2: "'liga' Standard Ligatures in Latin lookup 0-1" three five zero zero eight
LCarets2: 1 0
EndChar

StartChar: custom_3_5_0_0_9
Encoding: 10765 -1 10520
Width: 70
Flags: H
LayerCount: 2
Fore
SplineSet
17 25 m 1
 15 25 l 1
 15 27 l 1
 17 27 l 1
 17 25 l 1
17 29 m 1
 15 29 l 1
 15 31 l 1
 17 31 l 1
 17 29 l 1
17 33 m 1
 15 33 l 1
 15 35 l 1
 17 35 l 1
 17 33 l 1
23 25 m 1
 21 25 l 1
 21 27 l 1
 23 27 l 1
 23 25 l 1
26 25 m 1
 24 25 l 1
 24 27 l 1
 25 27 l 1
 25 26 l 1
 26 26 l 1
 26 25 l 1
27 26 m 1
 26 26 l 1
 26 27 l 1
 28 27 l 1
 28 25 l 1
 27 25 l 1
 27 26 l 1
31 25 m 1
 29 25 l 1
 29 27 l 1
 31 27 l 1
 31 25 l 1
23 33 m 1
 21 33 l 1
 21 35 l 1
 23 35 l 1
 23 33 l 1
25 33 m 1
 24 33 l 1
 24 35 l 1
 26 35 l 1
 26 34 l 1
 25 34 l 1
 25 33 l 1
28 33 m 1
 26 33 l 1
 26 34 l 1
 27 34 l 1
 27 35 l 1
 28 35 l 1
 28 33 l 1
31 29 m 1
 29 29 l 1
 29 31 l 1
 31 31 l 1
 31 29 l 1
36 31 m 1
 34 31 l 1
 34 33 l 1
 36 33 l 1
 36 31 l 1
31 33 m 1
 29 33 l 1
 29 35 l 1
 31 35 l 1
 31 33 l 1
36 35 m 1
 34 35 l 1
 34 37 l 1
 36 37 l 1
 36 35 l 1
17 37 m 1
 15 37 l 1
 15 39 l 1
 17 39 l 1
 17 37 l 1
17 41 m 1
 15 41 l 1
 15 43 l 1
 17 43 l 1
 17 41 l 1
23 37 m 1
 21 37 l 1
 21 39 l 1
 23 39 l 1
 23 37 l 1
23 41 m 1
 21 41 l 1
 21 43 l 1
 23 43 l 1
 23 41 l 1
26 41 m 1
 24 41 l 1
 24 43 l 1
 25 43 l 1
 25 42 l 1
 26 42 l 1
 26 41 l 1
27 42 m 1
 26 42 l 1
 26 43 l 1
 28 43 l 1
 28 41 l 1
 27 41 l 1
 27 42 l 1
31 41 m 1
 29 41 l 1
 29 43 l 1
 31 43 l 1
 31 41 l 1
41 25 m 1
 39 25 l 1
 39 27 l 1
 41 27 l 1
 41 25 l 1
44 25 m 1
 42 25 l 1
 42 27 l 1
 43 27 l 1
 43 26 l 1
 44 26 l 1
 44 25 l 1
45 26 m 1
 44 26 l 1
 44 27 l 1
 46 27 l 1
 46 25 l 1
 45 25 l 1
 45 26 l 1
49 25 m 1
 47 25 l 1
 47 27 l 1
 49 27 l 1
 49 25 l 1
41 33 m 1
 39 33 l 1
 39 35 l 1
 41 35 l 1
 41 33 l 1
43 33 m 1
 42 33 l 1
 42 35 l 1
 44 35 l 1
 44 34 l 1
 43 34 l 1
 43 33 l 1
49 29 m 1
 47 29 l 1
 47 31 l 1
 49 31 l 1
 49 29 l 1
46 33 m 1
 44 33 l 1
 44 34 l 1
 45 34 l 1
 45 35 l 1
 46 35 l 1
 46 33 l 1
49 33 m 1
 47 33 l 1
 47 35 l 1
 49 35 l 1
 49 33 l 1
55 25 m 1
 53 25 l 1
 53 27 l 1
 55 27 l 1
 55 25 l 1
58 25 m 1
 56 25 l 1
 56 27 l 1
 57 27 l 1
 57 26 l 1
 58 26 l 1
 58 25 l 1
59 26 m 1
 58 26 l 1
 58 27 l 1
 60 27 l 1
 60 25 l 1
 59 25 l 1
 59 26 l 1
63 25 m 1
 61 25 l 1
 61 27 l 1
 63 27 l 1
 63 25 l 1
55 29 m 1
 53 29 l 1
 53 31 l 1
 55 31 l 1
 55 29 l 1
55 33 m 1
 53 33 l 1
 53 35 l 1
 55 35 l 1
 55 33 l 1
57 33 m 1
 56 33 l 1
 56 35 l 1
 58 35 l 1
 58 34 l 1
 57 34 l 1
 57 33 l 1
60 33 m 1
 58 33 l 1
 58 34 l 1
 59 34 l 1
 59 35 l 1
 60 35 l 1
 60 33 l 1
63 33 m 1
 61 33 l 1
 61 35 l 1
 63 35 l 1
 63 33 l 1
41 41 m 1
 39 41 l 1
 39 43 l 1
 41 43 l 1
 41 41 l 1
44 41 m 1
 42 41 l 1
 42 43 l 1
 43 43 l 1
 43 42 l 1
 44 42 l 1
 44 41 l 1
49 37 m 1
 47 37 l 1
 47 39 l 1
 49 39 l 1
 49 37 l 1
45 42 m 1
 44 42 l 1
 44 43 l 1
 46 43 l 1
 46 41 l 1
 45 41 l 1
 45 42 l 1
49 41 m 1
 47 41 l 1
 47 43 l 1
 49 43 l 1
 49 41 l 1
55 41 m 1
 53 41 l 1
 53 43 l 1
 55 43 l 1
 55 41 l 1
58 41 m 1
 56 41 l 1
 56 43 l 1
 57 43 l 1
 57 42 l 1
 58 42 l 1
 58 41 l 1
59 42 m 1
 58 42 l 1
 58 43 l 1
 60 43 l 1
 60 41 l 1
 59 41 l 1
 59 42 l 1
63 37 m 1
 61 37 l 1
 61 39 l 1
 63 39 l 1
 63 37 l 1
63 41 m 1
 61 41 l 1
 61 43 l 1
 63 43 l 1
 63 41 l 1
EndSplineSet
Ligature2: "'liga' Standard Ligatures in Latin lookup 0-1" three five zero zero nine
LCarets2: 1 0
EndChar

StartChar: custom_3_5_0_1_0
Encoding: 10766 -1 10521
Width: 70
Flags: H
LayerCount: 2
Fore
SplineSet
17 25 m 1
 15 25 l 1
 15 27 l 1
 17 27 l 1
 17 25 l 1
17 29 m 1
 15 29 l 1
 15 31 l 1
 17 31 l 1
 17 29 l 1
17 33 m 1
 15 33 l 1
 15 35 l 1
 17 35 l 1
 17 33 l 1
23 25 m 1
 21 25 l 1
 21 27 l 1
 23 27 l 1
 23 25 l 1
26 25 m 1
 24 25 l 1
 24 27 l 1
 25 27 l 1
 25 26 l 1
 26 26 l 1
 26 25 l 1
27 26 m 1
 26 26 l 1
 26 27 l 1
 28 27 l 1
 28 25 l 1
 27 25 l 1
 27 26 l 1
31 25 m 1
 29 25 l 1
 29 27 l 1
 31 27 l 1
 31 25 l 1
23 33 m 1
 21 33 l 1
 21 35 l 1
 23 35 l 1
 23 33 l 1
25 33 m 1
 24 33 l 1
 24 35 l 1
 26 35 l 1
 26 34 l 1
 25 34 l 1
 25 33 l 1
28 33 m 1
 26 33 l 1
 26 34 l 1
 27 34 l 1
 27 35 l 1
 28 35 l 1
 28 33 l 1
31 29 m 1
 29 29 l 1
 29 31 l 1
 31 31 l 1
 31 29 l 1
36 31 m 1
 34 31 l 1
 34 33 l 1
 36 33 l 1
 36 31 l 1
31 33 m 1
 29 33 l 1
 29 35 l 1
 31 35 l 1
 31 33 l 1
36 35 m 1
 34 35 l 1
 34 37 l 1
 36 37 l 1
 36 35 l 1
17 37 m 1
 15 37 l 1
 15 39 l 1
 17 39 l 1
 17 37 l 1
17 41 m 1
 15 41 l 1
 15 43 l 1
 17 43 l 1
 17 41 l 1
23 37 m 1
 21 37 l 1
 21 39 l 1
 23 39 l 1
 23 37 l 1
23 41 m 1
 21 41 l 1
 21 43 l 1
 23 43 l 1
 23 41 l 1
26 41 m 1
 24 41 l 1
 24 43 l 1
 25 43 l 1
 25 42 l 1
 26 42 l 1
 26 41 l 1
27 42 m 1
 26 42 l 1
 26 43 l 1
 28 43 l 1
 28 41 l 1
 27 41 l 1
 27 42 l 1
31 41 m 1
 29 41 l 1
 29 43 l 1
 31 43 l 1
 31 41 l 1
41 25 m 1
 39 25 l 1
 39 27 l 1
 41 27 l 1
 41 25 l 1
44 25 m 1
 42 25 l 1
 42 27 l 1
 43 27 l 1
 43 26 l 1
 44 26 l 1
 44 25 l 1
45 26 m 1
 44 26 l 1
 44 27 l 1
 46 27 l 1
 46 25 l 1
 45 25 l 1
 45 26 l 1
49 25 m 1
 47 25 l 1
 47 27 l 1
 49 27 l 1
 49 25 l 1
41 33 m 1
 39 33 l 1
 39 35 l 1
 41 35 l 1
 41 33 l 1
43 33 m 1
 42 33 l 1
 42 35 l 1
 44 35 l 1
 44 34 l 1
 43 34 l 1
 43 33 l 1
49 29 m 1
 47 29 l 1
 47 31 l 1
 49 31 l 1
 49 29 l 1
46 33 m 1
 44 33 l 1
 44 34 l 1
 45 34 l 1
 45 35 l 1
 46 35 l 1
 46 33 l 1
49 33 m 1
 47 33 l 1
 47 35 l 1
 49 35 l 1
 49 33 l 1
55 25 m 1
 53 25 l 1
 53 27 l 1
 55 27 l 1
 55 25 l 1
58 25 m 1
 56 25 l 1
 56 27 l 1
 57 27 l 1
 57 26 l 1
 58 26 l 1
 58 25 l 1
59 26 m 1
 58 26 l 1
 58 27 l 1
 60 27 l 1
 60 25 l 1
 59 25 l 1
 59 26 l 1
63 25 m 1
 61 25 l 1
 61 27 l 1
 63 27 l 1
 63 25 l 1
55 29 m 1
 53 29 l 1
 53 31 l 1
 55 31 l 1
 55 29 l 1
55 33 m 1
 53 33 l 1
 53 35 l 1
 55 35 l 1
 55 33 l 1
57 33 m 1
 56 33 l 1
 56 35 l 1
 58 35 l 1
 58 34 l 1
 57 34 l 1
 57 33 l 1
60 33 m 1
 58 33 l 1
 58 34 l 1
 59 34 l 1
 59 35 l 1
 60 35 l 1
 60 33 l 1
63 33 m 1
 61 33 l 1
 61 35 l 1
 63 35 l 1
 63 33 l 1
41 41 m 1
 39 41 l 1
 39 43 l 1
 41 43 l 1
 41 41 l 1
44 41 m 1
 42 41 l 1
 42 43 l 1
 43 43 l 1
 43 42 l 1
 44 42 l 1
 44 41 l 1
49 37 m 1
 47 37 l 1
 47 39 l 1
 49 39 l 1
 49 37 l 1
45 42 m 1
 44 42 l 1
 44 43 l 1
 46 43 l 1
 46 41 l 1
 45 41 l 1
 45 42 l 1
49 41 m 1
 47 41 l 1
 47 43 l 1
 49 43 l 1
 49 41 l 1
55 41 m 1
 53 41 l 1
 53 43 l 1
 55 43 l 1
 55 41 l 1
58 41 m 1
 56 41 l 1
 56 43 l 1
 57 43 l 1
 57 42 l 1
 58 42 l 1
 58 41 l 1
59 42 m 1
 58 42 l 1
 58 43 l 1
 60 43 l 1
 60 41 l 1
 59 41 l 1
 59 42 l 1
63 37 m 1
 61 37 l 1
 61 39 l 1
 63 39 l 1
 63 37 l 1
63 41 m 1
 61 41 l 1
 61 43 l 1
 63 43 l 1
 63 41 l 1
EndSplineSet
Ligature2: "'liga' Standard Ligatures in Latin lookup 0-1" three five zero one zero
LCarets2: 1 0
EndChar

StartChar: custom_3_5_0_1_1
Encoding: 10767 -1 10522
Width: 70
Flags: H
LayerCount: 2
Fore
SplineSet
17 25 m 1
 15 25 l 1
 15 27 l 1
 17 27 l 1
 17 25 l 1
17 29 m 1
 15 29 l 1
 15 31 l 1
 17 31 l 1
 17 29 l 1
17 33 m 1
 15 33 l 1
 15 35 l 1
 17 35 l 1
 17 33 l 1
23 25 m 1
 21 25 l 1
 21 27 l 1
 23 27 l 1
 23 25 l 1
26 25 m 1
 24 25 l 1
 24 27 l 1
 25 27 l 1
 25 26 l 1
 26 26 l 1
 26 25 l 1
27 26 m 1
 26 26 l 1
 26 27 l 1
 28 27 l 1
 28 25 l 1
 27 25 l 1
 27 26 l 1
31 25 m 1
 29 25 l 1
 29 27 l 1
 31 27 l 1
 31 25 l 1
23 33 m 1
 21 33 l 1
 21 35 l 1
 23 35 l 1
 23 33 l 1
25 33 m 1
 24 33 l 1
 24 35 l 1
 26 35 l 1
 26 34 l 1
 25 34 l 1
 25 33 l 1
28 33 m 1
 26 33 l 1
 26 34 l 1
 27 34 l 1
 27 35 l 1
 28 35 l 1
 28 33 l 1
31 29 m 1
 29 29 l 1
 29 31 l 1
 31 31 l 1
 31 29 l 1
36 31 m 1
 34 31 l 1
 34 33 l 1
 36 33 l 1
 36 31 l 1
31 33 m 1
 29 33 l 1
 29 35 l 1
 31 35 l 1
 31 33 l 1
36 35 m 1
 34 35 l 1
 34 37 l 1
 36 37 l 1
 36 35 l 1
17 37 m 1
 15 37 l 1
 15 39 l 1
 17 39 l 1
 17 37 l 1
17 41 m 1
 15 41 l 1
 15 43 l 1
 17 43 l 1
 17 41 l 1
23 37 m 1
 21 37 l 1
 21 39 l 1
 23 39 l 1
 23 37 l 1
23 41 m 1
 21 41 l 1
 21 43 l 1
 23 43 l 1
 23 41 l 1
26 41 m 1
 24 41 l 1
 24 43 l 1
 25 43 l 1
 25 42 l 1
 26 42 l 1
 26 41 l 1
27 42 m 1
 26 42 l 1
 26 43 l 1
 28 43 l 1
 28 41 l 1
 27 41 l 1
 27 42 l 1
31 41 m 1
 29 41 l 1
 29 43 l 1
 31 43 l 1
 31 41 l 1
41 25 m 1
 39 25 l 1
 39 27 l 1
 41 27 l 1
 41 25 l 1
44 25 m 1
 42 25 l 1
 42 27 l 1
 43 27 l 1
 43 26 l 1
 44 26 l 1
 44 25 l 1
45 26 m 1
 44 26 l 1
 44 27 l 1
 46 27 l 1
 46 25 l 1
 45 25 l 1
 45 26 l 1
49 25 m 1
 47 25 l 1
 47 27 l 1
 49 27 l 1
 49 25 l 1
41 33 m 1
 39 33 l 1
 39 35 l 1
 41 35 l 1
 41 33 l 1
43 33 m 1
 42 33 l 1
 42 35 l 1
 44 35 l 1
 44 34 l 1
 43 34 l 1
 43 33 l 1
49 29 m 1
 47 29 l 1
 47 31 l 1
 49 31 l 1
 49 29 l 1
46 33 m 1
 44 33 l 1
 44 34 l 1
 45 34 l 1
 45 35 l 1
 46 35 l 1
 46 33 l 1
49 33 m 1
 47 33 l 1
 47 35 l 1
 49 35 l 1
 49 33 l 1
55 25 m 1
 53 25 l 1
 53 27 l 1
 55 27 l 1
 55 25 l 1
58 25 m 1
 56 25 l 1
 56 27 l 1
 57 27 l 1
 57 26 l 1
 58 26 l 1
 58 25 l 1
59 26 m 1
 58 26 l 1
 58 27 l 1
 60 27 l 1
 60 25 l 1
 59 25 l 1
 59 26 l 1
63 25 m 1
 61 25 l 1
 61 27 l 1
 63 27 l 1
 63 25 l 1
55 29 m 1
 53 29 l 1
 53 31 l 1
 55 31 l 1
 55 29 l 1
55 33 m 1
 53 33 l 1
 53 35 l 1
 55 35 l 1
 55 33 l 1
57 33 m 1
 56 33 l 1
 56 35 l 1
 58 35 l 1
 58 34 l 1
 57 34 l 1
 57 33 l 1
60 33 m 1
 58 33 l 1
 58 34 l 1
 59 34 l 1
 59 35 l 1
 60 35 l 1
 60 33 l 1
63 33 m 1
 61 33 l 1
 61 35 l 1
 63 35 l 1
 63 33 l 1
41 41 m 1
 39 41 l 1
 39 43 l 1
 41 43 l 1
 41 41 l 1
44 41 m 1
 42 41 l 1
 42 43 l 1
 43 43 l 1
 43 42 l 1
 44 42 l 1
 44 41 l 1
49 37 m 1
 47 37 l 1
 47 39 l 1
 49 39 l 1
 49 37 l 1
45 42 m 1
 44 42 l 1
 44 43 l 1
 46 43 l 1
 46 41 l 1
 45 41 l 1
 45 42 l 1
49 41 m 1
 47 41 l 1
 47 43 l 1
 49 43 l 1
 49 41 l 1
55 41 m 1
 53 41 l 1
 53 43 l 1
 55 43 l 1
 55 41 l 1
58 41 m 1
 56 41 l 1
 56 43 l 1
 57 43 l 1
 57 42 l 1
 58 42 l 1
 58 41 l 1
59 42 m 1
 58 42 l 1
 58 43 l 1
 60 43 l 1
 60 41 l 1
 59 41 l 1
 59 42 l 1
63 37 m 1
 61 37 l 1
 61 39 l 1
 63 39 l 1
 63 37 l 1
63 41 m 1
 61 41 l 1
 61 43 l 1
 63 43 l 1
 63 41 l 1
EndSplineSet
Ligature2: "'liga' Standard Ligatures in Latin lookup 0-1" three five zero one one
LCarets2: 1 0
EndChar

StartChar: custom_3_5_0_1_2
Encoding: 10768 -1 10523
Width: 70
Flags: H
LayerCount: 2
Fore
SplineSet
17 25 m 1
 15 25 l 1
 15 27 l 1
 17 27 l 1
 17 25 l 1
17 29 m 1
 15 29 l 1
 15 31 l 1
 17 31 l 1
 17 29 l 1
17 33 m 1
 15 33 l 1
 15 35 l 1
 17 35 l 1
 17 33 l 1
23 25 m 1
 21 25 l 1
 21 27 l 1
 23 27 l 1
 23 25 l 1
26 25 m 1
 24 25 l 1
 24 27 l 1
 25 27 l 1
 25 26 l 1
 26 26 l 1
 26 25 l 1
27 26 m 1
 26 26 l 1
 26 27 l 1
 28 27 l 1
 28 25 l 1
 27 25 l 1
 27 26 l 1
31 25 m 1
 29 25 l 1
 29 27 l 1
 31 27 l 1
 31 25 l 1
23 33 m 1
 21 33 l 1
 21 35 l 1
 23 35 l 1
 23 33 l 1
25 33 m 1
 24 33 l 1
 24 35 l 1
 26 35 l 1
 26 34 l 1
 25 34 l 1
 25 33 l 1
28 33 m 1
 26 33 l 1
 26 34 l 1
 27 34 l 1
 27 35 l 1
 28 35 l 1
 28 33 l 1
31 29 m 1
 29 29 l 1
 29 31 l 1
 31 31 l 1
 31 29 l 1
36 31 m 1
 34 31 l 1
 34 33 l 1
 36 33 l 1
 36 31 l 1
31 33 m 1
 29 33 l 1
 29 35 l 1
 31 35 l 1
 31 33 l 1
36 35 m 1
 34 35 l 1
 34 37 l 1
 36 37 l 1
 36 35 l 1
17 37 m 1
 15 37 l 1
 15 39 l 1
 17 39 l 1
 17 37 l 1
17 41 m 1
 15 41 l 1
 15 43 l 1
 17 43 l 1
 17 41 l 1
23 37 m 1
 21 37 l 1
 21 39 l 1
 23 39 l 1
 23 37 l 1
23 41 m 1
 21 41 l 1
 21 43 l 1
 23 43 l 1
 23 41 l 1
26 41 m 1
 24 41 l 1
 24 43 l 1
 25 43 l 1
 25 42 l 1
 26 42 l 1
 26 41 l 1
27 42 m 1
 26 42 l 1
 26 43 l 1
 28 43 l 1
 28 41 l 1
 27 41 l 1
 27 42 l 1
31 41 m 1
 29 41 l 1
 29 43 l 1
 31 43 l 1
 31 41 l 1
41 25 m 1
 39 25 l 1
 39 27 l 1
 41 27 l 1
 41 25 l 1
44 25 m 1
 42 25 l 1
 42 27 l 1
 43 27 l 1
 43 26 l 1
 44 26 l 1
 44 25 l 1
45 26 m 1
 44 26 l 1
 44 27 l 1
 46 27 l 1
 46 25 l 1
 45 25 l 1
 45 26 l 1
49 25 m 1
 47 25 l 1
 47 27 l 1
 49 27 l 1
 49 25 l 1
41 33 m 1
 39 33 l 1
 39 35 l 1
 41 35 l 1
 41 33 l 1
43 33 m 1
 42 33 l 1
 42 35 l 1
 44 35 l 1
 44 34 l 1
 43 34 l 1
 43 33 l 1
49 29 m 1
 47 29 l 1
 47 31 l 1
 49 31 l 1
 49 29 l 1
46 33 m 1
 44 33 l 1
 44 34 l 1
 45 34 l 1
 45 35 l 1
 46 35 l 1
 46 33 l 1
49 33 m 1
 47 33 l 1
 47 35 l 1
 49 35 l 1
 49 33 l 1
55 25 m 1
 53 25 l 1
 53 27 l 1
 55 27 l 1
 55 25 l 1
58 25 m 1
 56 25 l 1
 56 27 l 1
 57 27 l 1
 57 26 l 1
 58 26 l 1
 58 25 l 1
59 26 m 1
 58 26 l 1
 58 27 l 1
 60 27 l 1
 60 25 l 1
 59 25 l 1
 59 26 l 1
63 25 m 1
 61 25 l 1
 61 27 l 1
 63 27 l 1
 63 25 l 1
55 29 m 1
 53 29 l 1
 53 31 l 1
 55 31 l 1
 55 29 l 1
55 33 m 1
 53 33 l 1
 53 35 l 1
 55 35 l 1
 55 33 l 1
57 33 m 1
 56 33 l 1
 56 35 l 1
 58 35 l 1
 58 34 l 1
 57 34 l 1
 57 33 l 1
60 33 m 1
 58 33 l 1
 58 34 l 1
 59 34 l 1
 59 35 l 1
 60 35 l 1
 60 33 l 1
63 33 m 1
 61 33 l 1
 61 35 l 1
 63 35 l 1
 63 33 l 1
41 41 m 1
 39 41 l 1
 39 43 l 1
 41 43 l 1
 41 41 l 1
44 41 m 1
 42 41 l 1
 42 43 l 1
 43 43 l 1
 43 42 l 1
 44 42 l 1
 44 41 l 1
49 37 m 1
 47 37 l 1
 47 39 l 1
 49 39 l 1
 49 37 l 1
45 42 m 1
 44 42 l 1
 44 43 l 1
 46 43 l 1
 46 41 l 1
 45 41 l 1
 45 42 l 1
49 41 m 1
 47 41 l 1
 47 43 l 1
 49 43 l 1
 49 41 l 1
55 41 m 1
 53 41 l 1
 53 43 l 1
 55 43 l 1
 55 41 l 1
58 41 m 1
 56 41 l 1
 56 43 l 1
 57 43 l 1
 57 42 l 1
 58 42 l 1
 58 41 l 1
59 42 m 1
 58 42 l 1
 58 43 l 1
 60 43 l 1
 60 41 l 1
 59 41 l 1
 59 42 l 1
63 37 m 1
 61 37 l 1
 61 39 l 1
 63 39 l 1
 63 37 l 1
63 41 m 1
 61 41 l 1
 61 43 l 1
 63 43 l 1
 63 41 l 1
EndSplineSet
Ligature2: "'liga' Standard Ligatures in Latin lookup 0-1" three five zero one two
LCarets2: 1 0
EndChar

StartChar: custom_3_5_0_1_3
Encoding: 10769 -1 10524
Width: 70
Flags: H
LayerCount: 2
Fore
SplineSet
17 25 m 1
 15 25 l 1
 15 27 l 1
 17 27 l 1
 17 25 l 1
17 29 m 1
 15 29 l 1
 15 31 l 1
 17 31 l 1
 17 29 l 1
17 33 m 1
 15 33 l 1
 15 35 l 1
 17 35 l 1
 17 33 l 1
23 25 m 1
 21 25 l 1
 21 27 l 1
 23 27 l 1
 23 25 l 1
26 25 m 1
 24 25 l 1
 24 27 l 1
 25 27 l 1
 25 26 l 1
 26 26 l 1
 26 25 l 1
27 26 m 1
 26 26 l 1
 26 27 l 1
 28 27 l 1
 28 25 l 1
 27 25 l 1
 27 26 l 1
31 25 m 1
 29 25 l 1
 29 27 l 1
 31 27 l 1
 31 25 l 1
23 33 m 1
 21 33 l 1
 21 35 l 1
 23 35 l 1
 23 33 l 1
25 33 m 1
 24 33 l 1
 24 35 l 1
 26 35 l 1
 26 34 l 1
 25 34 l 1
 25 33 l 1
28 33 m 1
 26 33 l 1
 26 34 l 1
 27 34 l 1
 27 35 l 1
 28 35 l 1
 28 33 l 1
31 29 m 1
 29 29 l 1
 29 31 l 1
 31 31 l 1
 31 29 l 1
36 31 m 1
 34 31 l 1
 34 33 l 1
 36 33 l 1
 36 31 l 1
31 33 m 1
 29 33 l 1
 29 35 l 1
 31 35 l 1
 31 33 l 1
36 35 m 1
 34 35 l 1
 34 37 l 1
 36 37 l 1
 36 35 l 1
17 37 m 1
 15 37 l 1
 15 39 l 1
 17 39 l 1
 17 37 l 1
17 41 m 1
 15 41 l 1
 15 43 l 1
 17 43 l 1
 17 41 l 1
23 37 m 1
 21 37 l 1
 21 39 l 1
 23 39 l 1
 23 37 l 1
23 41 m 1
 21 41 l 1
 21 43 l 1
 23 43 l 1
 23 41 l 1
26 41 m 1
 24 41 l 1
 24 43 l 1
 25 43 l 1
 25 42 l 1
 26 42 l 1
 26 41 l 1
27 42 m 1
 26 42 l 1
 26 43 l 1
 28 43 l 1
 28 41 l 1
 27 41 l 1
 27 42 l 1
31 41 m 1
 29 41 l 1
 29 43 l 1
 31 43 l 1
 31 41 l 1
41 25 m 1
 39 25 l 1
 39 27 l 1
 41 27 l 1
 41 25 l 1
44 25 m 1
 42 25 l 1
 42 27 l 1
 43 27 l 1
 43 26 l 1
 44 26 l 1
 44 25 l 1
45 26 m 1
 44 26 l 1
 44 27 l 1
 46 27 l 1
 46 25 l 1
 45 25 l 1
 45 26 l 1
49 25 m 1
 47 25 l 1
 47 27 l 1
 49 27 l 1
 49 25 l 1
41 33 m 1
 39 33 l 1
 39 35 l 1
 41 35 l 1
 41 33 l 1
43 33 m 1
 42 33 l 1
 42 35 l 1
 44 35 l 1
 44 34 l 1
 43 34 l 1
 43 33 l 1
49 29 m 1
 47 29 l 1
 47 31 l 1
 49 31 l 1
 49 29 l 1
46 33 m 1
 44 33 l 1
 44 34 l 1
 45 34 l 1
 45 35 l 1
 46 35 l 1
 46 33 l 1
49 33 m 1
 47 33 l 1
 47 35 l 1
 49 35 l 1
 49 33 l 1
55 25 m 1
 53 25 l 1
 53 27 l 1
 55 27 l 1
 55 25 l 1
58 25 m 1
 56 25 l 1
 56 27 l 1
 57 27 l 1
 57 26 l 1
 58 26 l 1
 58 25 l 1
59 26 m 1
 58 26 l 1
 58 27 l 1
 60 27 l 1
 60 25 l 1
 59 25 l 1
 59 26 l 1
63 25 m 1
 61 25 l 1
 61 27 l 1
 63 27 l 1
 63 25 l 1
55 29 m 1
 53 29 l 1
 53 31 l 1
 55 31 l 1
 55 29 l 1
55 33 m 1
 53 33 l 1
 53 35 l 1
 55 35 l 1
 55 33 l 1
57 33 m 1
 56 33 l 1
 56 35 l 1
 58 35 l 1
 58 34 l 1
 57 34 l 1
 57 33 l 1
60 33 m 1
 58 33 l 1
 58 34 l 1
 59 34 l 1
 59 35 l 1
 60 35 l 1
 60 33 l 1
63 33 m 1
 61 33 l 1
 61 35 l 1
 63 35 l 1
 63 33 l 1
41 41 m 1
 39 41 l 1
 39 43 l 1
 41 43 l 1
 41 41 l 1
44 41 m 1
 42 41 l 1
 42 43 l 1
 43 43 l 1
 43 42 l 1
 44 42 l 1
 44 41 l 1
49 37 m 1
 47 37 l 1
 47 39 l 1
 49 39 l 1
 49 37 l 1
45 42 m 1
 44 42 l 1
 44 43 l 1
 46 43 l 1
 46 41 l 1
 45 41 l 1
 45 42 l 1
49 41 m 1
 47 41 l 1
 47 43 l 1
 49 43 l 1
 49 41 l 1
55 41 m 1
 53 41 l 1
 53 43 l 1
 55 43 l 1
 55 41 l 1
58 41 m 1
 56 41 l 1
 56 43 l 1
 57 43 l 1
 57 42 l 1
 58 42 l 1
 58 41 l 1
59 42 m 1
 58 42 l 1
 58 43 l 1
 60 43 l 1
 60 41 l 1
 59 41 l 1
 59 42 l 1
63 37 m 1
 61 37 l 1
 61 39 l 1
 63 39 l 1
 63 37 l 1
63 41 m 1
 61 41 l 1
 61 43 l 1
 63 43 l 1
 63 41 l 1
EndSplineSet
Ligature2: "'liga' Standard Ligatures in Latin lookup 0-1" three five zero one three
LCarets2: 1 0
EndChar

StartChar: custom_3_5_0_1_4
Encoding: 10770 -1 10525
Width: 70
Flags: H
LayerCount: 2
Fore
SplineSet
17 25 m 1
 15 25 l 1
 15 27 l 1
 17 27 l 1
 17 25 l 1
17 29 m 1
 15 29 l 1
 15 31 l 1
 17 31 l 1
 17 29 l 1
17 33 m 1
 15 33 l 1
 15 35 l 1
 17 35 l 1
 17 33 l 1
23 25 m 1
 21 25 l 1
 21 27 l 1
 23 27 l 1
 23 25 l 1
26 25 m 1
 24 25 l 1
 24 27 l 1
 25 27 l 1
 25 26 l 1
 26 26 l 1
 26 25 l 1
27 26 m 1
 26 26 l 1
 26 27 l 1
 28 27 l 1
 28 25 l 1
 27 25 l 1
 27 26 l 1
31 25 m 1
 29 25 l 1
 29 27 l 1
 31 27 l 1
 31 25 l 1
23 33 m 1
 21 33 l 1
 21 35 l 1
 23 35 l 1
 23 33 l 1
25 33 m 1
 24 33 l 1
 24 35 l 1
 26 35 l 1
 26 34 l 1
 25 34 l 1
 25 33 l 1
28 33 m 1
 26 33 l 1
 26 34 l 1
 27 34 l 1
 27 35 l 1
 28 35 l 1
 28 33 l 1
31 29 m 1
 29 29 l 1
 29 31 l 1
 31 31 l 1
 31 29 l 1
36 31 m 1
 34 31 l 1
 34 33 l 1
 36 33 l 1
 36 31 l 1
31 33 m 1
 29 33 l 1
 29 35 l 1
 31 35 l 1
 31 33 l 1
36 35 m 1
 34 35 l 1
 34 37 l 1
 36 37 l 1
 36 35 l 1
17 37 m 1
 15 37 l 1
 15 39 l 1
 17 39 l 1
 17 37 l 1
17 41 m 1
 15 41 l 1
 15 43 l 1
 17 43 l 1
 17 41 l 1
23 37 m 1
 21 37 l 1
 21 39 l 1
 23 39 l 1
 23 37 l 1
23 41 m 1
 21 41 l 1
 21 43 l 1
 23 43 l 1
 23 41 l 1
26 41 m 1
 24 41 l 1
 24 43 l 1
 25 43 l 1
 25 42 l 1
 26 42 l 1
 26 41 l 1
27 42 m 1
 26 42 l 1
 26 43 l 1
 28 43 l 1
 28 41 l 1
 27 41 l 1
 27 42 l 1
31 41 m 1
 29 41 l 1
 29 43 l 1
 31 43 l 1
 31 41 l 1
41 25 m 1
 39 25 l 1
 39 27 l 1
 41 27 l 1
 41 25 l 1
44 25 m 1
 42 25 l 1
 42 27 l 1
 43 27 l 1
 43 26 l 1
 44 26 l 1
 44 25 l 1
45 26 m 1
 44 26 l 1
 44 27 l 1
 46 27 l 1
 46 25 l 1
 45 25 l 1
 45 26 l 1
49 25 m 1
 47 25 l 1
 47 27 l 1
 49 27 l 1
 49 25 l 1
41 33 m 1
 39 33 l 1
 39 35 l 1
 41 35 l 1
 41 33 l 1
43 33 m 1
 42 33 l 1
 42 35 l 1
 44 35 l 1
 44 34 l 1
 43 34 l 1
 43 33 l 1
49 29 m 1
 47 29 l 1
 47 31 l 1
 49 31 l 1
 49 29 l 1
46 33 m 1
 44 33 l 1
 44 34 l 1
 45 34 l 1
 45 35 l 1
 46 35 l 1
 46 33 l 1
49 33 m 1
 47 33 l 1
 47 35 l 1
 49 35 l 1
 49 33 l 1
55 25 m 1
 53 25 l 1
 53 27 l 1
 55 27 l 1
 55 25 l 1
58 25 m 1
 56 25 l 1
 56 27 l 1
 57 27 l 1
 57 26 l 1
 58 26 l 1
 58 25 l 1
59 26 m 1
 58 26 l 1
 58 27 l 1
 60 27 l 1
 60 25 l 1
 59 25 l 1
 59 26 l 1
63 25 m 1
 61 25 l 1
 61 27 l 1
 63 27 l 1
 63 25 l 1
55 29 m 1
 53 29 l 1
 53 31 l 1
 55 31 l 1
 55 29 l 1
55 33 m 1
 53 33 l 1
 53 35 l 1
 55 35 l 1
 55 33 l 1
57 33 m 1
 56 33 l 1
 56 35 l 1
 58 35 l 1
 58 34 l 1
 57 34 l 1
 57 33 l 1
60 33 m 1
 58 33 l 1
 58 34 l 1
 59 34 l 1
 59 35 l 1
 60 35 l 1
 60 33 l 1
63 33 m 1
 61 33 l 1
 61 35 l 1
 63 35 l 1
 63 33 l 1
41 41 m 1
 39 41 l 1
 39 43 l 1
 41 43 l 1
 41 41 l 1
44 41 m 1
 42 41 l 1
 42 43 l 1
 43 43 l 1
 43 42 l 1
 44 42 l 1
 44 41 l 1
49 37 m 1
 47 37 l 1
 47 39 l 1
 49 39 l 1
 49 37 l 1
45 42 m 1
 44 42 l 1
 44 43 l 1
 46 43 l 1
 46 41 l 1
 45 41 l 1
 45 42 l 1
49 41 m 1
 47 41 l 1
 47 43 l 1
 49 43 l 1
 49 41 l 1
55 41 m 1
 53 41 l 1
 53 43 l 1
 55 43 l 1
 55 41 l 1
58 41 m 1
 56 41 l 1
 56 43 l 1
 57 43 l 1
 57 42 l 1
 58 42 l 1
 58 41 l 1
59 42 m 1
 58 42 l 1
 58 43 l 1
 60 43 l 1
 60 41 l 1
 59 41 l 1
 59 42 l 1
63 37 m 1
 61 37 l 1
 61 39 l 1
 63 39 l 1
 63 37 l 1
63 41 m 1
 61 41 l 1
 61 43 l 1
 63 43 l 1
 63 41 l 1
EndSplineSet
Ligature2: "'liga' Standard Ligatures in Latin lookup 0-1" three five zero one four
LCarets2: 1 0
EndChar

StartChar: custom_3_5_0_1_5
Encoding: 10771 -1 10526
Width: 70
Flags: H
LayerCount: 2
Fore
SplineSet
17 25 m 1
 15 25 l 1
 15 27 l 1
 17 27 l 1
 17 25 l 1
17 29 m 1
 15 29 l 1
 15 31 l 1
 17 31 l 1
 17 29 l 1
17 33 m 1
 15 33 l 1
 15 35 l 1
 17 35 l 1
 17 33 l 1
23 25 m 1
 21 25 l 1
 21 27 l 1
 23 27 l 1
 23 25 l 1
26 25 m 1
 24 25 l 1
 24 27 l 1
 25 27 l 1
 25 26 l 1
 26 26 l 1
 26 25 l 1
27 26 m 1
 26 26 l 1
 26 27 l 1
 28 27 l 1
 28 25 l 1
 27 25 l 1
 27 26 l 1
31 25 m 1
 29 25 l 1
 29 27 l 1
 31 27 l 1
 31 25 l 1
23 33 m 1
 21 33 l 1
 21 35 l 1
 23 35 l 1
 23 33 l 1
25 33 m 1
 24 33 l 1
 24 35 l 1
 26 35 l 1
 26 34 l 1
 25 34 l 1
 25 33 l 1
28 33 m 1
 26 33 l 1
 26 34 l 1
 27 34 l 1
 27 35 l 1
 28 35 l 1
 28 33 l 1
31 29 m 1
 29 29 l 1
 29 31 l 1
 31 31 l 1
 31 29 l 1
36 31 m 1
 34 31 l 1
 34 33 l 1
 36 33 l 1
 36 31 l 1
31 33 m 1
 29 33 l 1
 29 35 l 1
 31 35 l 1
 31 33 l 1
36 35 m 1
 34 35 l 1
 34 37 l 1
 36 37 l 1
 36 35 l 1
17 37 m 1
 15 37 l 1
 15 39 l 1
 17 39 l 1
 17 37 l 1
17 41 m 1
 15 41 l 1
 15 43 l 1
 17 43 l 1
 17 41 l 1
23 37 m 1
 21 37 l 1
 21 39 l 1
 23 39 l 1
 23 37 l 1
23 41 m 1
 21 41 l 1
 21 43 l 1
 23 43 l 1
 23 41 l 1
26 41 m 1
 24 41 l 1
 24 43 l 1
 25 43 l 1
 25 42 l 1
 26 42 l 1
 26 41 l 1
27 42 m 1
 26 42 l 1
 26 43 l 1
 28 43 l 1
 28 41 l 1
 27 41 l 1
 27 42 l 1
31 41 m 1
 29 41 l 1
 29 43 l 1
 31 43 l 1
 31 41 l 1
41 25 m 1
 39 25 l 1
 39 27 l 1
 41 27 l 1
 41 25 l 1
44 25 m 1
 42 25 l 1
 42 27 l 1
 43 27 l 1
 43 26 l 1
 44 26 l 1
 44 25 l 1
45 26 m 1
 44 26 l 1
 44 27 l 1
 46 27 l 1
 46 25 l 1
 45 25 l 1
 45 26 l 1
49 25 m 1
 47 25 l 1
 47 27 l 1
 49 27 l 1
 49 25 l 1
41 33 m 1
 39 33 l 1
 39 35 l 1
 41 35 l 1
 41 33 l 1
43 33 m 1
 42 33 l 1
 42 35 l 1
 44 35 l 1
 44 34 l 1
 43 34 l 1
 43 33 l 1
49 29 m 1
 47 29 l 1
 47 31 l 1
 49 31 l 1
 49 29 l 1
46 33 m 1
 44 33 l 1
 44 34 l 1
 45 34 l 1
 45 35 l 1
 46 35 l 1
 46 33 l 1
49 33 m 1
 47 33 l 1
 47 35 l 1
 49 35 l 1
 49 33 l 1
55 25 m 1
 53 25 l 1
 53 27 l 1
 55 27 l 1
 55 25 l 1
58 25 m 1
 56 25 l 1
 56 27 l 1
 57 27 l 1
 57 26 l 1
 58 26 l 1
 58 25 l 1
59 26 m 1
 58 26 l 1
 58 27 l 1
 60 27 l 1
 60 25 l 1
 59 25 l 1
 59 26 l 1
63 25 m 1
 61 25 l 1
 61 27 l 1
 63 27 l 1
 63 25 l 1
55 29 m 1
 53 29 l 1
 53 31 l 1
 55 31 l 1
 55 29 l 1
55 33 m 1
 53 33 l 1
 53 35 l 1
 55 35 l 1
 55 33 l 1
57 33 m 1
 56 33 l 1
 56 35 l 1
 58 35 l 1
 58 34 l 1
 57 34 l 1
 57 33 l 1
60 33 m 1
 58 33 l 1
 58 34 l 1
 59 34 l 1
 59 35 l 1
 60 35 l 1
 60 33 l 1
63 33 m 1
 61 33 l 1
 61 35 l 1
 63 35 l 1
 63 33 l 1
41 41 m 1
 39 41 l 1
 39 43 l 1
 41 43 l 1
 41 41 l 1
44 41 m 1
 42 41 l 1
 42 43 l 1
 43 43 l 1
 43 42 l 1
 44 42 l 1
 44 41 l 1
49 37 m 1
 47 37 l 1
 47 39 l 1
 49 39 l 1
 49 37 l 1
45 42 m 1
 44 42 l 1
 44 43 l 1
 46 43 l 1
 46 41 l 1
 45 41 l 1
 45 42 l 1
49 41 m 1
 47 41 l 1
 47 43 l 1
 49 43 l 1
 49 41 l 1
55 41 m 1
 53 41 l 1
 53 43 l 1
 55 43 l 1
 55 41 l 1
58 41 m 1
 56 41 l 1
 56 43 l 1
 57 43 l 1
 57 42 l 1
 58 42 l 1
 58 41 l 1
59 42 m 1
 58 42 l 1
 58 43 l 1
 60 43 l 1
 60 41 l 1
 59 41 l 1
 59 42 l 1
63 37 m 1
 61 37 l 1
 61 39 l 1
 63 39 l 1
 63 37 l 1
63 41 m 1
 61 41 l 1
 61 43 l 1
 63 43 l 1
 63 41 l 1
EndSplineSet
Ligature2: "'liga' Standard Ligatures in Latin lookup 0-1" three five zero one five
LCarets2: 1 0
EndChar

StartChar: custom_3_5_0_1_6
Encoding: 10772 -1 10527
Width: 70
Flags: H
LayerCount: 2
Fore
SplineSet
17 25 m 1
 15 25 l 1
 15 27 l 1
 17 27 l 1
 17 25 l 1
17 29 m 1
 15 29 l 1
 15 31 l 1
 17 31 l 1
 17 29 l 1
17 33 m 1
 15 33 l 1
 15 35 l 1
 17 35 l 1
 17 33 l 1
23 25 m 1
 21 25 l 1
 21 27 l 1
 23 27 l 1
 23 25 l 1
26 25 m 1
 24 25 l 1
 24 27 l 1
 25 27 l 1
 25 26 l 1
 26 26 l 1
 26 25 l 1
27 26 m 1
 26 26 l 1
 26 27 l 1
 28 27 l 1
 28 25 l 1
 27 25 l 1
 27 26 l 1
31 25 m 1
 29 25 l 1
 29 27 l 1
 31 27 l 1
 31 25 l 1
23 33 m 1
 21 33 l 1
 21 35 l 1
 23 35 l 1
 23 33 l 1
25 33 m 1
 24 33 l 1
 24 35 l 1
 26 35 l 1
 26 34 l 1
 25 34 l 1
 25 33 l 1
28 33 m 1
 26 33 l 1
 26 34 l 1
 27 34 l 1
 27 35 l 1
 28 35 l 1
 28 33 l 1
31 29 m 1
 29 29 l 1
 29 31 l 1
 31 31 l 1
 31 29 l 1
36 31 m 1
 34 31 l 1
 34 33 l 1
 36 33 l 1
 36 31 l 1
31 33 m 1
 29 33 l 1
 29 35 l 1
 31 35 l 1
 31 33 l 1
36 35 m 1
 34 35 l 1
 34 37 l 1
 36 37 l 1
 36 35 l 1
17 37 m 1
 15 37 l 1
 15 39 l 1
 17 39 l 1
 17 37 l 1
17 41 m 1
 15 41 l 1
 15 43 l 1
 17 43 l 1
 17 41 l 1
23 37 m 1
 21 37 l 1
 21 39 l 1
 23 39 l 1
 23 37 l 1
23 41 m 1
 21 41 l 1
 21 43 l 1
 23 43 l 1
 23 41 l 1
26 41 m 1
 24 41 l 1
 24 43 l 1
 25 43 l 1
 25 42 l 1
 26 42 l 1
 26 41 l 1
27 42 m 1
 26 42 l 1
 26 43 l 1
 28 43 l 1
 28 41 l 1
 27 41 l 1
 27 42 l 1
31 41 m 1
 29 41 l 1
 29 43 l 1
 31 43 l 1
 31 41 l 1
41 25 m 1
 39 25 l 1
 39 27 l 1
 41 27 l 1
 41 25 l 1
44 25 m 1
 42 25 l 1
 42 27 l 1
 43 27 l 1
 43 26 l 1
 44 26 l 1
 44 25 l 1
45 26 m 1
 44 26 l 1
 44 27 l 1
 46 27 l 1
 46 25 l 1
 45 25 l 1
 45 26 l 1
49 25 m 1
 47 25 l 1
 47 27 l 1
 49 27 l 1
 49 25 l 1
41 33 m 1
 39 33 l 1
 39 35 l 1
 41 35 l 1
 41 33 l 1
43 33 m 1
 42 33 l 1
 42 35 l 1
 44 35 l 1
 44 34 l 1
 43 34 l 1
 43 33 l 1
49 29 m 1
 47 29 l 1
 47 31 l 1
 49 31 l 1
 49 29 l 1
46 33 m 1
 44 33 l 1
 44 34 l 1
 45 34 l 1
 45 35 l 1
 46 35 l 1
 46 33 l 1
49 33 m 1
 47 33 l 1
 47 35 l 1
 49 35 l 1
 49 33 l 1
55 25 m 1
 53 25 l 1
 53 27 l 1
 55 27 l 1
 55 25 l 1
58 25 m 1
 56 25 l 1
 56 27 l 1
 57 27 l 1
 57 26 l 1
 58 26 l 1
 58 25 l 1
59 26 m 1
 58 26 l 1
 58 27 l 1
 60 27 l 1
 60 25 l 1
 59 25 l 1
 59 26 l 1
63 25 m 1
 61 25 l 1
 61 27 l 1
 63 27 l 1
 63 25 l 1
55 29 m 1
 53 29 l 1
 53 31 l 1
 55 31 l 1
 55 29 l 1
55 33 m 1
 53 33 l 1
 53 35 l 1
 55 35 l 1
 55 33 l 1
57 33 m 1
 56 33 l 1
 56 35 l 1
 58 35 l 1
 58 34 l 1
 57 34 l 1
 57 33 l 1
60 33 m 1
 58 33 l 1
 58 34 l 1
 59 34 l 1
 59 35 l 1
 60 35 l 1
 60 33 l 1
63 33 m 1
 61 33 l 1
 61 35 l 1
 63 35 l 1
 63 33 l 1
41 41 m 1
 39 41 l 1
 39 43 l 1
 41 43 l 1
 41 41 l 1
44 41 m 1
 42 41 l 1
 42 43 l 1
 43 43 l 1
 43 42 l 1
 44 42 l 1
 44 41 l 1
49 37 m 1
 47 37 l 1
 47 39 l 1
 49 39 l 1
 49 37 l 1
45 42 m 1
 44 42 l 1
 44 43 l 1
 46 43 l 1
 46 41 l 1
 45 41 l 1
 45 42 l 1
49 41 m 1
 47 41 l 1
 47 43 l 1
 49 43 l 1
 49 41 l 1
55 41 m 1
 53 41 l 1
 53 43 l 1
 55 43 l 1
 55 41 l 1
58 41 m 1
 56 41 l 1
 56 43 l 1
 57 43 l 1
 57 42 l 1
 58 42 l 1
 58 41 l 1
59 42 m 1
 58 42 l 1
 58 43 l 1
 60 43 l 1
 60 41 l 1
 59 41 l 1
 59 42 l 1
63 37 m 1
 61 37 l 1
 61 39 l 1
 63 39 l 1
 63 37 l 1
63 41 m 1
 61 41 l 1
 61 43 l 1
 63 43 l 1
 63 41 l 1
EndSplineSet
Ligature2: "'liga' Standard Ligatures in Latin lookup 0-1" three five zero one six
LCarets2: 1 0
EndChar

StartChar: custom_3_5_0_1_7
Encoding: 10773 -1 10528
Width: 70
Flags: H
LayerCount: 2
Fore
SplineSet
17 25 m 1
 15 25 l 1
 15 27 l 1
 17 27 l 1
 17 25 l 1
17 29 m 1
 15 29 l 1
 15 31 l 1
 17 31 l 1
 17 29 l 1
17 33 m 1
 15 33 l 1
 15 35 l 1
 17 35 l 1
 17 33 l 1
23 25 m 1
 21 25 l 1
 21 27 l 1
 23 27 l 1
 23 25 l 1
26 25 m 1
 24 25 l 1
 24 27 l 1
 25 27 l 1
 25 26 l 1
 26 26 l 1
 26 25 l 1
27 26 m 1
 26 26 l 1
 26 27 l 1
 28 27 l 1
 28 25 l 1
 27 25 l 1
 27 26 l 1
31 25 m 1
 29 25 l 1
 29 27 l 1
 31 27 l 1
 31 25 l 1
23 33 m 1
 21 33 l 1
 21 35 l 1
 23 35 l 1
 23 33 l 1
25 33 m 1
 24 33 l 1
 24 35 l 1
 26 35 l 1
 26 34 l 1
 25 34 l 1
 25 33 l 1
28 33 m 1
 26 33 l 1
 26 34 l 1
 27 34 l 1
 27 35 l 1
 28 35 l 1
 28 33 l 1
31 29 m 1
 29 29 l 1
 29 31 l 1
 31 31 l 1
 31 29 l 1
36 31 m 1
 34 31 l 1
 34 33 l 1
 36 33 l 1
 36 31 l 1
31 33 m 1
 29 33 l 1
 29 35 l 1
 31 35 l 1
 31 33 l 1
36 35 m 1
 34 35 l 1
 34 37 l 1
 36 37 l 1
 36 35 l 1
17 37 m 1
 15 37 l 1
 15 39 l 1
 17 39 l 1
 17 37 l 1
17 41 m 1
 15 41 l 1
 15 43 l 1
 17 43 l 1
 17 41 l 1
23 37 m 1
 21 37 l 1
 21 39 l 1
 23 39 l 1
 23 37 l 1
23 41 m 1
 21 41 l 1
 21 43 l 1
 23 43 l 1
 23 41 l 1
26 41 m 1
 24 41 l 1
 24 43 l 1
 25 43 l 1
 25 42 l 1
 26 42 l 1
 26 41 l 1
27 42 m 1
 26 42 l 1
 26 43 l 1
 28 43 l 1
 28 41 l 1
 27 41 l 1
 27 42 l 1
31 41 m 1
 29 41 l 1
 29 43 l 1
 31 43 l 1
 31 41 l 1
41 25 m 1
 39 25 l 1
 39 27 l 1
 41 27 l 1
 41 25 l 1
44 25 m 1
 42 25 l 1
 42 27 l 1
 43 27 l 1
 43 26 l 1
 44 26 l 1
 44 25 l 1
45 26 m 1
 44 26 l 1
 44 27 l 1
 46 27 l 1
 46 25 l 1
 45 25 l 1
 45 26 l 1
49 25 m 1
 47 25 l 1
 47 27 l 1
 49 27 l 1
 49 25 l 1
41 33 m 1
 39 33 l 1
 39 35 l 1
 41 35 l 1
 41 33 l 1
43 33 m 1
 42 33 l 1
 42 35 l 1
 44 35 l 1
 44 34 l 1
 43 34 l 1
 43 33 l 1
49 29 m 1
 47 29 l 1
 47 31 l 1
 49 31 l 1
 49 29 l 1
46 33 m 1
 44 33 l 1
 44 34 l 1
 45 34 l 1
 45 35 l 1
 46 35 l 1
 46 33 l 1
49 33 m 1
 47 33 l 1
 47 35 l 1
 49 35 l 1
 49 33 l 1
55 25 m 1
 53 25 l 1
 53 27 l 1
 55 27 l 1
 55 25 l 1
58 25 m 1
 56 25 l 1
 56 27 l 1
 57 27 l 1
 57 26 l 1
 58 26 l 1
 58 25 l 1
59 26 m 1
 58 26 l 1
 58 27 l 1
 60 27 l 1
 60 25 l 1
 59 25 l 1
 59 26 l 1
63 25 m 1
 61 25 l 1
 61 27 l 1
 63 27 l 1
 63 25 l 1
55 29 m 1
 53 29 l 1
 53 31 l 1
 55 31 l 1
 55 29 l 1
55 33 m 1
 53 33 l 1
 53 35 l 1
 55 35 l 1
 55 33 l 1
57 33 m 1
 56 33 l 1
 56 35 l 1
 58 35 l 1
 58 34 l 1
 57 34 l 1
 57 33 l 1
60 33 m 1
 58 33 l 1
 58 34 l 1
 59 34 l 1
 59 35 l 1
 60 35 l 1
 60 33 l 1
63 33 m 1
 61 33 l 1
 61 35 l 1
 63 35 l 1
 63 33 l 1
41 41 m 1
 39 41 l 1
 39 43 l 1
 41 43 l 1
 41 41 l 1
44 41 m 1
 42 41 l 1
 42 43 l 1
 43 43 l 1
 43 42 l 1
 44 42 l 1
 44 41 l 1
49 37 m 1
 47 37 l 1
 47 39 l 1
 49 39 l 1
 49 37 l 1
45 42 m 1
 44 42 l 1
 44 43 l 1
 46 43 l 1
 46 41 l 1
 45 41 l 1
 45 42 l 1
49 41 m 1
 47 41 l 1
 47 43 l 1
 49 43 l 1
 49 41 l 1
55 41 m 1
 53 41 l 1
 53 43 l 1
 55 43 l 1
 55 41 l 1
58 41 m 1
 56 41 l 1
 56 43 l 1
 57 43 l 1
 57 42 l 1
 58 42 l 1
 58 41 l 1
59 42 m 1
 58 42 l 1
 58 43 l 1
 60 43 l 1
 60 41 l 1
 59 41 l 1
 59 42 l 1
63 37 m 1
 61 37 l 1
 61 39 l 1
 63 39 l 1
 63 37 l 1
63 41 m 1
 61 41 l 1
 61 43 l 1
 63 43 l 1
 63 41 l 1
EndSplineSet
Ligature2: "'liga' Standard Ligatures in Latin lookup 0-1" three five zero one seven
LCarets2: 1 0
EndChar

StartChar: custom_3_5_0_1_8
Encoding: 10774 -1 10529
Width: 70
Flags: H
LayerCount: 2
Fore
SplineSet
17 25 m 1
 15 25 l 1
 15 27 l 1
 17 27 l 1
 17 25 l 1
17 29 m 1
 15 29 l 1
 15 31 l 1
 17 31 l 1
 17 29 l 1
17 33 m 1
 15 33 l 1
 15 35 l 1
 17 35 l 1
 17 33 l 1
23 25 m 1
 21 25 l 1
 21 27 l 1
 23 27 l 1
 23 25 l 1
26 25 m 1
 24 25 l 1
 24 27 l 1
 25 27 l 1
 25 26 l 1
 26 26 l 1
 26 25 l 1
27 26 m 1
 26 26 l 1
 26 27 l 1
 28 27 l 1
 28 25 l 1
 27 25 l 1
 27 26 l 1
31 25 m 1
 29 25 l 1
 29 27 l 1
 31 27 l 1
 31 25 l 1
23 33 m 1
 21 33 l 1
 21 35 l 1
 23 35 l 1
 23 33 l 1
25 33 m 1
 24 33 l 1
 24 35 l 1
 26 35 l 1
 26 34 l 1
 25 34 l 1
 25 33 l 1
28 33 m 1
 26 33 l 1
 26 34 l 1
 27 34 l 1
 27 35 l 1
 28 35 l 1
 28 33 l 1
31 29 m 1
 29 29 l 1
 29 31 l 1
 31 31 l 1
 31 29 l 1
36 31 m 1
 34 31 l 1
 34 33 l 1
 36 33 l 1
 36 31 l 1
31 33 m 1
 29 33 l 1
 29 35 l 1
 31 35 l 1
 31 33 l 1
36 35 m 1
 34 35 l 1
 34 37 l 1
 36 37 l 1
 36 35 l 1
17 37 m 1
 15 37 l 1
 15 39 l 1
 17 39 l 1
 17 37 l 1
17 41 m 1
 15 41 l 1
 15 43 l 1
 17 43 l 1
 17 41 l 1
23 37 m 1
 21 37 l 1
 21 39 l 1
 23 39 l 1
 23 37 l 1
23 41 m 1
 21 41 l 1
 21 43 l 1
 23 43 l 1
 23 41 l 1
26 41 m 1
 24 41 l 1
 24 43 l 1
 25 43 l 1
 25 42 l 1
 26 42 l 1
 26 41 l 1
27 42 m 1
 26 42 l 1
 26 43 l 1
 28 43 l 1
 28 41 l 1
 27 41 l 1
 27 42 l 1
31 41 m 1
 29 41 l 1
 29 43 l 1
 31 43 l 1
 31 41 l 1
41 25 m 1
 39 25 l 1
 39 27 l 1
 41 27 l 1
 41 25 l 1
44 25 m 1
 42 25 l 1
 42 27 l 1
 43 27 l 1
 43 26 l 1
 44 26 l 1
 44 25 l 1
45 26 m 1
 44 26 l 1
 44 27 l 1
 46 27 l 1
 46 25 l 1
 45 25 l 1
 45 26 l 1
49 25 m 1
 47 25 l 1
 47 27 l 1
 49 27 l 1
 49 25 l 1
41 33 m 1
 39 33 l 1
 39 35 l 1
 41 35 l 1
 41 33 l 1
43 33 m 1
 42 33 l 1
 42 35 l 1
 44 35 l 1
 44 34 l 1
 43 34 l 1
 43 33 l 1
49 29 m 1
 47 29 l 1
 47 31 l 1
 49 31 l 1
 49 29 l 1
46 33 m 1
 44 33 l 1
 44 34 l 1
 45 34 l 1
 45 35 l 1
 46 35 l 1
 46 33 l 1
49 33 m 1
 47 33 l 1
 47 35 l 1
 49 35 l 1
 49 33 l 1
55 25 m 1
 53 25 l 1
 53 27 l 1
 55 27 l 1
 55 25 l 1
58 25 m 1
 56 25 l 1
 56 27 l 1
 57 27 l 1
 57 26 l 1
 58 26 l 1
 58 25 l 1
59 26 m 1
 58 26 l 1
 58 27 l 1
 60 27 l 1
 60 25 l 1
 59 25 l 1
 59 26 l 1
63 25 m 1
 61 25 l 1
 61 27 l 1
 63 27 l 1
 63 25 l 1
55 29 m 1
 53 29 l 1
 53 31 l 1
 55 31 l 1
 55 29 l 1
55 33 m 1
 53 33 l 1
 53 35 l 1
 55 35 l 1
 55 33 l 1
57 33 m 1
 56 33 l 1
 56 35 l 1
 58 35 l 1
 58 34 l 1
 57 34 l 1
 57 33 l 1
60 33 m 1
 58 33 l 1
 58 34 l 1
 59 34 l 1
 59 35 l 1
 60 35 l 1
 60 33 l 1
63 33 m 1
 61 33 l 1
 61 35 l 1
 63 35 l 1
 63 33 l 1
41 41 m 1
 39 41 l 1
 39 43 l 1
 41 43 l 1
 41 41 l 1
44 41 m 1
 42 41 l 1
 42 43 l 1
 43 43 l 1
 43 42 l 1
 44 42 l 1
 44 41 l 1
49 37 m 1
 47 37 l 1
 47 39 l 1
 49 39 l 1
 49 37 l 1
45 42 m 1
 44 42 l 1
 44 43 l 1
 46 43 l 1
 46 41 l 1
 45 41 l 1
 45 42 l 1
49 41 m 1
 47 41 l 1
 47 43 l 1
 49 43 l 1
 49 41 l 1
55 41 m 1
 53 41 l 1
 53 43 l 1
 55 43 l 1
 55 41 l 1
58 41 m 1
 56 41 l 1
 56 43 l 1
 57 43 l 1
 57 42 l 1
 58 42 l 1
 58 41 l 1
59 42 m 1
 58 42 l 1
 58 43 l 1
 60 43 l 1
 60 41 l 1
 59 41 l 1
 59 42 l 1
63 37 m 1
 61 37 l 1
 61 39 l 1
 63 39 l 1
 63 37 l 1
63 41 m 1
 61 41 l 1
 61 43 l 1
 63 43 l 1
 63 41 l 1
EndSplineSet
Ligature2: "'liga' Standard Ligatures in Latin lookup 0-1" three five zero one eight
LCarets2: 1 0
EndChar

StartChar: custom_3_5_0_1_9
Encoding: 10775 -1 10530
Width: 70
Flags: H
LayerCount: 2
Fore
SplineSet
17 25 m 1
 15 25 l 1
 15 27 l 1
 17 27 l 1
 17 25 l 1
17 29 m 1
 15 29 l 1
 15 31 l 1
 17 31 l 1
 17 29 l 1
17 33 m 1
 15 33 l 1
 15 35 l 1
 17 35 l 1
 17 33 l 1
23 25 m 1
 21 25 l 1
 21 27 l 1
 23 27 l 1
 23 25 l 1
26 25 m 1
 24 25 l 1
 24 27 l 1
 25 27 l 1
 25 26 l 1
 26 26 l 1
 26 25 l 1
27 26 m 1
 26 26 l 1
 26 27 l 1
 28 27 l 1
 28 25 l 1
 27 25 l 1
 27 26 l 1
31 25 m 1
 29 25 l 1
 29 27 l 1
 31 27 l 1
 31 25 l 1
23 33 m 1
 21 33 l 1
 21 35 l 1
 23 35 l 1
 23 33 l 1
25 33 m 1
 24 33 l 1
 24 35 l 1
 26 35 l 1
 26 34 l 1
 25 34 l 1
 25 33 l 1
28 33 m 1
 26 33 l 1
 26 34 l 1
 27 34 l 1
 27 35 l 1
 28 35 l 1
 28 33 l 1
31 29 m 1
 29 29 l 1
 29 31 l 1
 31 31 l 1
 31 29 l 1
36 31 m 1
 34 31 l 1
 34 33 l 1
 36 33 l 1
 36 31 l 1
31 33 m 1
 29 33 l 1
 29 35 l 1
 31 35 l 1
 31 33 l 1
36 35 m 1
 34 35 l 1
 34 37 l 1
 36 37 l 1
 36 35 l 1
17 37 m 1
 15 37 l 1
 15 39 l 1
 17 39 l 1
 17 37 l 1
17 41 m 1
 15 41 l 1
 15 43 l 1
 17 43 l 1
 17 41 l 1
23 37 m 1
 21 37 l 1
 21 39 l 1
 23 39 l 1
 23 37 l 1
23 41 m 1
 21 41 l 1
 21 43 l 1
 23 43 l 1
 23 41 l 1
26 41 m 1
 24 41 l 1
 24 43 l 1
 25 43 l 1
 25 42 l 1
 26 42 l 1
 26 41 l 1
27 42 m 1
 26 42 l 1
 26 43 l 1
 28 43 l 1
 28 41 l 1
 27 41 l 1
 27 42 l 1
31 41 m 1
 29 41 l 1
 29 43 l 1
 31 43 l 1
 31 41 l 1
41 25 m 1
 39 25 l 1
 39 27 l 1
 41 27 l 1
 41 25 l 1
44 25 m 1
 42 25 l 1
 42 27 l 1
 43 27 l 1
 43 26 l 1
 44 26 l 1
 44 25 l 1
45 26 m 1
 44 26 l 1
 44 27 l 1
 46 27 l 1
 46 25 l 1
 45 25 l 1
 45 26 l 1
49 25 m 1
 47 25 l 1
 47 27 l 1
 49 27 l 1
 49 25 l 1
41 33 m 1
 39 33 l 1
 39 35 l 1
 41 35 l 1
 41 33 l 1
43 33 m 1
 42 33 l 1
 42 35 l 1
 44 35 l 1
 44 34 l 1
 43 34 l 1
 43 33 l 1
49 29 m 1
 47 29 l 1
 47 31 l 1
 49 31 l 1
 49 29 l 1
46 33 m 1
 44 33 l 1
 44 34 l 1
 45 34 l 1
 45 35 l 1
 46 35 l 1
 46 33 l 1
49 33 m 1
 47 33 l 1
 47 35 l 1
 49 35 l 1
 49 33 l 1
55 25 m 1
 53 25 l 1
 53 27 l 1
 55 27 l 1
 55 25 l 1
58 25 m 1
 56 25 l 1
 56 27 l 1
 57 27 l 1
 57 26 l 1
 58 26 l 1
 58 25 l 1
59 26 m 1
 58 26 l 1
 58 27 l 1
 60 27 l 1
 60 25 l 1
 59 25 l 1
 59 26 l 1
63 25 m 1
 61 25 l 1
 61 27 l 1
 63 27 l 1
 63 25 l 1
55 29 m 1
 53 29 l 1
 53 31 l 1
 55 31 l 1
 55 29 l 1
55 33 m 1
 53 33 l 1
 53 35 l 1
 55 35 l 1
 55 33 l 1
57 33 m 1
 56 33 l 1
 56 35 l 1
 58 35 l 1
 58 34 l 1
 57 34 l 1
 57 33 l 1
60 33 m 1
 58 33 l 1
 58 34 l 1
 59 34 l 1
 59 35 l 1
 60 35 l 1
 60 33 l 1
63 33 m 1
 61 33 l 1
 61 35 l 1
 63 35 l 1
 63 33 l 1
41 41 m 1
 39 41 l 1
 39 43 l 1
 41 43 l 1
 41 41 l 1
44 41 m 1
 42 41 l 1
 42 43 l 1
 43 43 l 1
 43 42 l 1
 44 42 l 1
 44 41 l 1
49 37 m 1
 47 37 l 1
 47 39 l 1
 49 39 l 1
 49 37 l 1
45 42 m 1
 44 42 l 1
 44 43 l 1
 46 43 l 1
 46 41 l 1
 45 41 l 1
 45 42 l 1
49 41 m 1
 47 41 l 1
 47 43 l 1
 49 43 l 1
 49 41 l 1
55 41 m 1
 53 41 l 1
 53 43 l 1
 55 43 l 1
 55 41 l 1
58 41 m 1
 56 41 l 1
 56 43 l 1
 57 43 l 1
 57 42 l 1
 58 42 l 1
 58 41 l 1
59 42 m 1
 58 42 l 1
 58 43 l 1
 60 43 l 1
 60 41 l 1
 59 41 l 1
 59 42 l 1
63 37 m 1
 61 37 l 1
 61 39 l 1
 63 39 l 1
 63 37 l 1
63 41 m 1
 61 41 l 1
 61 43 l 1
 63 43 l 1
 63 41 l 1
EndSplineSet
Ligature2: "'liga' Standard Ligatures in Latin lookup 0-1" three five zero one nine
LCarets2: 1 0
EndChar

StartChar: custom_3_5_0_2_0
Encoding: 10776 -1 10531
Width: 70
Flags: H
LayerCount: 2
Fore
SplineSet
17 25 m 1
 15 25 l 1
 15 27 l 1
 17 27 l 1
 17 25 l 1
17 29 m 1
 15 29 l 1
 15 31 l 1
 17 31 l 1
 17 29 l 1
17 33 m 1
 15 33 l 1
 15 35 l 1
 17 35 l 1
 17 33 l 1
23 25 m 1
 21 25 l 1
 21 27 l 1
 23 27 l 1
 23 25 l 1
26 25 m 1
 24 25 l 1
 24 27 l 1
 25 27 l 1
 25 26 l 1
 26 26 l 1
 26 25 l 1
27 26 m 1
 26 26 l 1
 26 27 l 1
 28 27 l 1
 28 25 l 1
 27 25 l 1
 27 26 l 1
31 25 m 1
 29 25 l 1
 29 27 l 1
 31 27 l 1
 31 25 l 1
23 33 m 1
 21 33 l 1
 21 35 l 1
 23 35 l 1
 23 33 l 1
25 33 m 1
 24 33 l 1
 24 35 l 1
 26 35 l 1
 26 34 l 1
 25 34 l 1
 25 33 l 1
28 33 m 1
 26 33 l 1
 26 34 l 1
 27 34 l 1
 27 35 l 1
 28 35 l 1
 28 33 l 1
31 29 m 1
 29 29 l 1
 29 31 l 1
 31 31 l 1
 31 29 l 1
36 31 m 1
 34 31 l 1
 34 33 l 1
 36 33 l 1
 36 31 l 1
31 33 m 1
 29 33 l 1
 29 35 l 1
 31 35 l 1
 31 33 l 1
36 35 m 1
 34 35 l 1
 34 37 l 1
 36 37 l 1
 36 35 l 1
17 37 m 1
 15 37 l 1
 15 39 l 1
 17 39 l 1
 17 37 l 1
17 41 m 1
 15 41 l 1
 15 43 l 1
 17 43 l 1
 17 41 l 1
23 37 m 1
 21 37 l 1
 21 39 l 1
 23 39 l 1
 23 37 l 1
23 41 m 1
 21 41 l 1
 21 43 l 1
 23 43 l 1
 23 41 l 1
26 41 m 1
 24 41 l 1
 24 43 l 1
 25 43 l 1
 25 42 l 1
 26 42 l 1
 26 41 l 1
27 42 m 1
 26 42 l 1
 26 43 l 1
 28 43 l 1
 28 41 l 1
 27 41 l 1
 27 42 l 1
31 41 m 1
 29 41 l 1
 29 43 l 1
 31 43 l 1
 31 41 l 1
41 25 m 1
 39 25 l 1
 39 27 l 1
 41 27 l 1
 41 25 l 1
44 25 m 1
 42 25 l 1
 42 27 l 1
 43 27 l 1
 43 26 l 1
 44 26 l 1
 44 25 l 1
45 26 m 1
 44 26 l 1
 44 27 l 1
 46 27 l 1
 46 25 l 1
 45 25 l 1
 45 26 l 1
49 25 m 1
 47 25 l 1
 47 27 l 1
 49 27 l 1
 49 25 l 1
41 33 m 1
 39 33 l 1
 39 35 l 1
 41 35 l 1
 41 33 l 1
43 33 m 1
 42 33 l 1
 42 35 l 1
 44 35 l 1
 44 34 l 1
 43 34 l 1
 43 33 l 1
49 29 m 1
 47 29 l 1
 47 31 l 1
 49 31 l 1
 49 29 l 1
46 33 m 1
 44 33 l 1
 44 34 l 1
 45 34 l 1
 45 35 l 1
 46 35 l 1
 46 33 l 1
49 33 m 1
 47 33 l 1
 47 35 l 1
 49 35 l 1
 49 33 l 1
55 25 m 1
 53 25 l 1
 53 27 l 1
 55 27 l 1
 55 25 l 1
58 25 m 1
 56 25 l 1
 56 27 l 1
 57 27 l 1
 57 26 l 1
 58 26 l 1
 58 25 l 1
59 26 m 1
 58 26 l 1
 58 27 l 1
 60 27 l 1
 60 25 l 1
 59 25 l 1
 59 26 l 1
63 25 m 1
 61 25 l 1
 61 27 l 1
 63 27 l 1
 63 25 l 1
55 29 m 1
 53 29 l 1
 53 31 l 1
 55 31 l 1
 55 29 l 1
55 33 m 1
 53 33 l 1
 53 35 l 1
 55 35 l 1
 55 33 l 1
57 33 m 1
 56 33 l 1
 56 35 l 1
 58 35 l 1
 58 34 l 1
 57 34 l 1
 57 33 l 1
60 33 m 1
 58 33 l 1
 58 34 l 1
 59 34 l 1
 59 35 l 1
 60 35 l 1
 60 33 l 1
63 33 m 1
 61 33 l 1
 61 35 l 1
 63 35 l 1
 63 33 l 1
41 41 m 1
 39 41 l 1
 39 43 l 1
 41 43 l 1
 41 41 l 1
44 41 m 1
 42 41 l 1
 42 43 l 1
 43 43 l 1
 43 42 l 1
 44 42 l 1
 44 41 l 1
49 37 m 1
 47 37 l 1
 47 39 l 1
 49 39 l 1
 49 37 l 1
45 42 m 1
 44 42 l 1
 44 43 l 1
 46 43 l 1
 46 41 l 1
 45 41 l 1
 45 42 l 1
49 41 m 1
 47 41 l 1
 47 43 l 1
 49 43 l 1
 49 41 l 1
55 41 m 1
 53 41 l 1
 53 43 l 1
 55 43 l 1
 55 41 l 1
58 41 m 1
 56 41 l 1
 56 43 l 1
 57 43 l 1
 57 42 l 1
 58 42 l 1
 58 41 l 1
59 42 m 1
 58 42 l 1
 58 43 l 1
 60 43 l 1
 60 41 l 1
 59 41 l 1
 59 42 l 1
63 37 m 1
 61 37 l 1
 61 39 l 1
 63 39 l 1
 63 37 l 1
63 41 m 1
 61 41 l 1
 61 43 l 1
 63 43 l 1
 63 41 l 1
EndSplineSet
Ligature2: "'liga' Standard Ligatures in Latin lookup 0-1" three five zero two zero
LCarets2: 1 0
EndChar

StartChar: custom_3_5_0_2_1
Encoding: 10777 -1 10532
Width: 70
Flags: H
LayerCount: 2
Fore
SplineSet
17 25 m 1
 15 25 l 1
 15 27 l 1
 17 27 l 1
 17 25 l 1
17 29 m 1
 15 29 l 1
 15 31 l 1
 17 31 l 1
 17 29 l 1
17 33 m 1
 15 33 l 1
 15 35 l 1
 17 35 l 1
 17 33 l 1
23 25 m 1
 21 25 l 1
 21 27 l 1
 23 27 l 1
 23 25 l 1
26 25 m 1
 24 25 l 1
 24 27 l 1
 25 27 l 1
 25 26 l 1
 26 26 l 1
 26 25 l 1
27 26 m 1
 26 26 l 1
 26 27 l 1
 28 27 l 1
 28 25 l 1
 27 25 l 1
 27 26 l 1
31 25 m 1
 29 25 l 1
 29 27 l 1
 31 27 l 1
 31 25 l 1
23 33 m 1
 21 33 l 1
 21 35 l 1
 23 35 l 1
 23 33 l 1
25 33 m 1
 24 33 l 1
 24 35 l 1
 26 35 l 1
 26 34 l 1
 25 34 l 1
 25 33 l 1
28 33 m 1
 26 33 l 1
 26 34 l 1
 27 34 l 1
 27 35 l 1
 28 35 l 1
 28 33 l 1
31 29 m 1
 29 29 l 1
 29 31 l 1
 31 31 l 1
 31 29 l 1
36 31 m 1
 34 31 l 1
 34 33 l 1
 36 33 l 1
 36 31 l 1
31 33 m 1
 29 33 l 1
 29 35 l 1
 31 35 l 1
 31 33 l 1
36 35 m 1
 34 35 l 1
 34 37 l 1
 36 37 l 1
 36 35 l 1
17 37 m 1
 15 37 l 1
 15 39 l 1
 17 39 l 1
 17 37 l 1
17 41 m 1
 15 41 l 1
 15 43 l 1
 17 43 l 1
 17 41 l 1
23 37 m 1
 21 37 l 1
 21 39 l 1
 23 39 l 1
 23 37 l 1
23 41 m 1
 21 41 l 1
 21 43 l 1
 23 43 l 1
 23 41 l 1
26 41 m 1
 24 41 l 1
 24 43 l 1
 25 43 l 1
 25 42 l 1
 26 42 l 1
 26 41 l 1
27 42 m 1
 26 42 l 1
 26 43 l 1
 28 43 l 1
 28 41 l 1
 27 41 l 1
 27 42 l 1
31 41 m 1
 29 41 l 1
 29 43 l 1
 31 43 l 1
 31 41 l 1
41 25 m 1
 39 25 l 1
 39 27 l 1
 41 27 l 1
 41 25 l 1
44 25 m 1
 42 25 l 1
 42 27 l 1
 43 27 l 1
 43 26 l 1
 44 26 l 1
 44 25 l 1
45 26 m 1
 44 26 l 1
 44 27 l 1
 46 27 l 1
 46 25 l 1
 45 25 l 1
 45 26 l 1
49 25 m 1
 47 25 l 1
 47 27 l 1
 49 27 l 1
 49 25 l 1
41 33 m 1
 39 33 l 1
 39 35 l 1
 41 35 l 1
 41 33 l 1
43 33 m 1
 42 33 l 1
 42 35 l 1
 44 35 l 1
 44 34 l 1
 43 34 l 1
 43 33 l 1
49 29 m 1
 47 29 l 1
 47 31 l 1
 49 31 l 1
 49 29 l 1
46 33 m 1
 44 33 l 1
 44 34 l 1
 45 34 l 1
 45 35 l 1
 46 35 l 1
 46 33 l 1
49 33 m 1
 47 33 l 1
 47 35 l 1
 49 35 l 1
 49 33 l 1
55 25 m 1
 53 25 l 1
 53 27 l 1
 55 27 l 1
 55 25 l 1
58 25 m 1
 56 25 l 1
 56 27 l 1
 57 27 l 1
 57 26 l 1
 58 26 l 1
 58 25 l 1
59 26 m 1
 58 26 l 1
 58 27 l 1
 60 27 l 1
 60 25 l 1
 59 25 l 1
 59 26 l 1
63 25 m 1
 61 25 l 1
 61 27 l 1
 63 27 l 1
 63 25 l 1
55 29 m 1
 53 29 l 1
 53 31 l 1
 55 31 l 1
 55 29 l 1
55 33 m 1
 53 33 l 1
 53 35 l 1
 55 35 l 1
 55 33 l 1
57 33 m 1
 56 33 l 1
 56 35 l 1
 58 35 l 1
 58 34 l 1
 57 34 l 1
 57 33 l 1
60 33 m 1
 58 33 l 1
 58 34 l 1
 59 34 l 1
 59 35 l 1
 60 35 l 1
 60 33 l 1
63 33 m 1
 61 33 l 1
 61 35 l 1
 63 35 l 1
 63 33 l 1
41 41 m 1
 39 41 l 1
 39 43 l 1
 41 43 l 1
 41 41 l 1
44 41 m 1
 42 41 l 1
 42 43 l 1
 43 43 l 1
 43 42 l 1
 44 42 l 1
 44 41 l 1
49 37 m 1
 47 37 l 1
 47 39 l 1
 49 39 l 1
 49 37 l 1
45 42 m 1
 44 42 l 1
 44 43 l 1
 46 43 l 1
 46 41 l 1
 45 41 l 1
 45 42 l 1
49 41 m 1
 47 41 l 1
 47 43 l 1
 49 43 l 1
 49 41 l 1
55 41 m 1
 53 41 l 1
 53 43 l 1
 55 43 l 1
 55 41 l 1
58 41 m 1
 56 41 l 1
 56 43 l 1
 57 43 l 1
 57 42 l 1
 58 42 l 1
 58 41 l 1
59 42 m 1
 58 42 l 1
 58 43 l 1
 60 43 l 1
 60 41 l 1
 59 41 l 1
 59 42 l 1
63 37 m 1
 61 37 l 1
 61 39 l 1
 63 39 l 1
 63 37 l 1
63 41 m 1
 61 41 l 1
 61 43 l 1
 63 43 l 1
 63 41 l 1
EndSplineSet
Ligature2: "'liga' Standard Ligatures in Latin lookup 0-1" three five zero two one
LCarets2: 1 0
EndChar

StartChar: custom_3_5_0_2_2
Encoding: 10778 -1 10533
Width: 70
Flags: H
LayerCount: 2
Fore
SplineSet
17 25 m 1
 15 25 l 1
 15 27 l 1
 17 27 l 1
 17 25 l 1
17 29 m 1
 15 29 l 1
 15 31 l 1
 17 31 l 1
 17 29 l 1
17 33 m 1
 15 33 l 1
 15 35 l 1
 17 35 l 1
 17 33 l 1
23 25 m 1
 21 25 l 1
 21 27 l 1
 23 27 l 1
 23 25 l 1
26 25 m 1
 24 25 l 1
 24 27 l 1
 25 27 l 1
 25 26 l 1
 26 26 l 1
 26 25 l 1
27 26 m 1
 26 26 l 1
 26 27 l 1
 28 27 l 1
 28 25 l 1
 27 25 l 1
 27 26 l 1
31 25 m 1
 29 25 l 1
 29 27 l 1
 31 27 l 1
 31 25 l 1
23 33 m 1
 21 33 l 1
 21 35 l 1
 23 35 l 1
 23 33 l 1
25 33 m 1
 24 33 l 1
 24 35 l 1
 26 35 l 1
 26 34 l 1
 25 34 l 1
 25 33 l 1
28 33 m 1
 26 33 l 1
 26 34 l 1
 27 34 l 1
 27 35 l 1
 28 35 l 1
 28 33 l 1
31 29 m 1
 29 29 l 1
 29 31 l 1
 31 31 l 1
 31 29 l 1
36 31 m 1
 34 31 l 1
 34 33 l 1
 36 33 l 1
 36 31 l 1
31 33 m 1
 29 33 l 1
 29 35 l 1
 31 35 l 1
 31 33 l 1
36 35 m 1
 34 35 l 1
 34 37 l 1
 36 37 l 1
 36 35 l 1
17 37 m 1
 15 37 l 1
 15 39 l 1
 17 39 l 1
 17 37 l 1
17 41 m 1
 15 41 l 1
 15 43 l 1
 17 43 l 1
 17 41 l 1
23 37 m 1
 21 37 l 1
 21 39 l 1
 23 39 l 1
 23 37 l 1
23 41 m 1
 21 41 l 1
 21 43 l 1
 23 43 l 1
 23 41 l 1
26 41 m 1
 24 41 l 1
 24 43 l 1
 25 43 l 1
 25 42 l 1
 26 42 l 1
 26 41 l 1
27 42 m 1
 26 42 l 1
 26 43 l 1
 28 43 l 1
 28 41 l 1
 27 41 l 1
 27 42 l 1
31 41 m 1
 29 41 l 1
 29 43 l 1
 31 43 l 1
 31 41 l 1
41 25 m 1
 39 25 l 1
 39 27 l 1
 41 27 l 1
 41 25 l 1
44 25 m 1
 42 25 l 1
 42 27 l 1
 43 27 l 1
 43 26 l 1
 44 26 l 1
 44 25 l 1
45 26 m 1
 44 26 l 1
 44 27 l 1
 46 27 l 1
 46 25 l 1
 45 25 l 1
 45 26 l 1
49 25 m 1
 47 25 l 1
 47 27 l 1
 49 27 l 1
 49 25 l 1
41 33 m 1
 39 33 l 1
 39 35 l 1
 41 35 l 1
 41 33 l 1
43 33 m 1
 42 33 l 1
 42 35 l 1
 44 35 l 1
 44 34 l 1
 43 34 l 1
 43 33 l 1
49 29 m 1
 47 29 l 1
 47 31 l 1
 49 31 l 1
 49 29 l 1
46 33 m 1
 44 33 l 1
 44 34 l 1
 45 34 l 1
 45 35 l 1
 46 35 l 1
 46 33 l 1
49 33 m 1
 47 33 l 1
 47 35 l 1
 49 35 l 1
 49 33 l 1
55 25 m 1
 53 25 l 1
 53 27 l 1
 55 27 l 1
 55 25 l 1
58 25 m 1
 56 25 l 1
 56 27 l 1
 57 27 l 1
 57 26 l 1
 58 26 l 1
 58 25 l 1
59 26 m 1
 58 26 l 1
 58 27 l 1
 60 27 l 1
 60 25 l 1
 59 25 l 1
 59 26 l 1
63 25 m 1
 61 25 l 1
 61 27 l 1
 63 27 l 1
 63 25 l 1
55 29 m 1
 53 29 l 1
 53 31 l 1
 55 31 l 1
 55 29 l 1
55 33 m 1
 53 33 l 1
 53 35 l 1
 55 35 l 1
 55 33 l 1
57 33 m 1
 56 33 l 1
 56 35 l 1
 58 35 l 1
 58 34 l 1
 57 34 l 1
 57 33 l 1
60 33 m 1
 58 33 l 1
 58 34 l 1
 59 34 l 1
 59 35 l 1
 60 35 l 1
 60 33 l 1
63 33 m 1
 61 33 l 1
 61 35 l 1
 63 35 l 1
 63 33 l 1
41 41 m 1
 39 41 l 1
 39 43 l 1
 41 43 l 1
 41 41 l 1
44 41 m 1
 42 41 l 1
 42 43 l 1
 43 43 l 1
 43 42 l 1
 44 42 l 1
 44 41 l 1
49 37 m 1
 47 37 l 1
 47 39 l 1
 49 39 l 1
 49 37 l 1
45 42 m 1
 44 42 l 1
 44 43 l 1
 46 43 l 1
 46 41 l 1
 45 41 l 1
 45 42 l 1
49 41 m 1
 47 41 l 1
 47 43 l 1
 49 43 l 1
 49 41 l 1
55 41 m 1
 53 41 l 1
 53 43 l 1
 55 43 l 1
 55 41 l 1
58 41 m 1
 56 41 l 1
 56 43 l 1
 57 43 l 1
 57 42 l 1
 58 42 l 1
 58 41 l 1
59 42 m 1
 58 42 l 1
 58 43 l 1
 60 43 l 1
 60 41 l 1
 59 41 l 1
 59 42 l 1
63 37 m 1
 61 37 l 1
 61 39 l 1
 63 39 l 1
 63 37 l 1
63 41 m 1
 61 41 l 1
 61 43 l 1
 63 43 l 1
 63 41 l 1
EndSplineSet
Ligature2: "'liga' Standard Ligatures in Latin lookup 0-1" three five zero two two
LCarets2: 1 0
EndChar

StartChar: custom_3_5_0_2_3
Encoding: 10779 -1 10534
Width: 70
Flags: H
LayerCount: 2
Fore
SplineSet
17 25 m 1
 15 25 l 1
 15 27 l 1
 17 27 l 1
 17 25 l 1
17 29 m 1
 15 29 l 1
 15 31 l 1
 17 31 l 1
 17 29 l 1
17 33 m 1
 15 33 l 1
 15 35 l 1
 17 35 l 1
 17 33 l 1
23 25 m 1
 21 25 l 1
 21 27 l 1
 23 27 l 1
 23 25 l 1
26 25 m 1
 24 25 l 1
 24 27 l 1
 25 27 l 1
 25 26 l 1
 26 26 l 1
 26 25 l 1
27 26 m 1
 26 26 l 1
 26 27 l 1
 28 27 l 1
 28 25 l 1
 27 25 l 1
 27 26 l 1
31 25 m 1
 29 25 l 1
 29 27 l 1
 31 27 l 1
 31 25 l 1
23 33 m 1
 21 33 l 1
 21 35 l 1
 23 35 l 1
 23 33 l 1
25 33 m 1
 24 33 l 1
 24 35 l 1
 26 35 l 1
 26 34 l 1
 25 34 l 1
 25 33 l 1
28 33 m 1
 26 33 l 1
 26 34 l 1
 27 34 l 1
 27 35 l 1
 28 35 l 1
 28 33 l 1
31 29 m 1
 29 29 l 1
 29 31 l 1
 31 31 l 1
 31 29 l 1
36 31 m 1
 34 31 l 1
 34 33 l 1
 36 33 l 1
 36 31 l 1
31 33 m 1
 29 33 l 1
 29 35 l 1
 31 35 l 1
 31 33 l 1
36 35 m 1
 34 35 l 1
 34 37 l 1
 36 37 l 1
 36 35 l 1
17 37 m 1
 15 37 l 1
 15 39 l 1
 17 39 l 1
 17 37 l 1
17 41 m 1
 15 41 l 1
 15 43 l 1
 17 43 l 1
 17 41 l 1
23 37 m 1
 21 37 l 1
 21 39 l 1
 23 39 l 1
 23 37 l 1
23 41 m 1
 21 41 l 1
 21 43 l 1
 23 43 l 1
 23 41 l 1
26 41 m 1
 24 41 l 1
 24 43 l 1
 25 43 l 1
 25 42 l 1
 26 42 l 1
 26 41 l 1
27 42 m 1
 26 42 l 1
 26 43 l 1
 28 43 l 1
 28 41 l 1
 27 41 l 1
 27 42 l 1
31 41 m 1
 29 41 l 1
 29 43 l 1
 31 43 l 1
 31 41 l 1
41 25 m 1
 39 25 l 1
 39 27 l 1
 41 27 l 1
 41 25 l 1
44 25 m 1
 42 25 l 1
 42 27 l 1
 43 27 l 1
 43 26 l 1
 44 26 l 1
 44 25 l 1
45 26 m 1
 44 26 l 1
 44 27 l 1
 46 27 l 1
 46 25 l 1
 45 25 l 1
 45 26 l 1
49 25 m 1
 47 25 l 1
 47 27 l 1
 49 27 l 1
 49 25 l 1
41 33 m 1
 39 33 l 1
 39 35 l 1
 41 35 l 1
 41 33 l 1
43 33 m 1
 42 33 l 1
 42 35 l 1
 44 35 l 1
 44 34 l 1
 43 34 l 1
 43 33 l 1
49 29 m 1
 47 29 l 1
 47 31 l 1
 49 31 l 1
 49 29 l 1
46 33 m 1
 44 33 l 1
 44 34 l 1
 45 34 l 1
 45 35 l 1
 46 35 l 1
 46 33 l 1
49 33 m 1
 47 33 l 1
 47 35 l 1
 49 35 l 1
 49 33 l 1
55 25 m 1
 53 25 l 1
 53 27 l 1
 55 27 l 1
 55 25 l 1
58 25 m 1
 56 25 l 1
 56 27 l 1
 57 27 l 1
 57 26 l 1
 58 26 l 1
 58 25 l 1
59 26 m 1
 58 26 l 1
 58 27 l 1
 60 27 l 1
 60 25 l 1
 59 25 l 1
 59 26 l 1
63 25 m 1
 61 25 l 1
 61 27 l 1
 63 27 l 1
 63 25 l 1
55 29 m 1
 53 29 l 1
 53 31 l 1
 55 31 l 1
 55 29 l 1
55 33 m 1
 53 33 l 1
 53 35 l 1
 55 35 l 1
 55 33 l 1
57 33 m 1
 56 33 l 1
 56 35 l 1
 58 35 l 1
 58 34 l 1
 57 34 l 1
 57 33 l 1
60 33 m 1
 58 33 l 1
 58 34 l 1
 59 34 l 1
 59 35 l 1
 60 35 l 1
 60 33 l 1
63 33 m 1
 61 33 l 1
 61 35 l 1
 63 35 l 1
 63 33 l 1
41 41 m 1
 39 41 l 1
 39 43 l 1
 41 43 l 1
 41 41 l 1
44 41 m 1
 42 41 l 1
 42 43 l 1
 43 43 l 1
 43 42 l 1
 44 42 l 1
 44 41 l 1
49 37 m 1
 47 37 l 1
 47 39 l 1
 49 39 l 1
 49 37 l 1
45 42 m 1
 44 42 l 1
 44 43 l 1
 46 43 l 1
 46 41 l 1
 45 41 l 1
 45 42 l 1
49 41 m 1
 47 41 l 1
 47 43 l 1
 49 43 l 1
 49 41 l 1
55 41 m 1
 53 41 l 1
 53 43 l 1
 55 43 l 1
 55 41 l 1
58 41 m 1
 56 41 l 1
 56 43 l 1
 57 43 l 1
 57 42 l 1
 58 42 l 1
 58 41 l 1
59 42 m 1
 58 42 l 1
 58 43 l 1
 60 43 l 1
 60 41 l 1
 59 41 l 1
 59 42 l 1
63 37 m 1
 61 37 l 1
 61 39 l 1
 63 39 l 1
 63 37 l 1
63 41 m 1
 61 41 l 1
 61 43 l 1
 63 43 l 1
 63 41 l 1
EndSplineSet
Ligature2: "'liga' Standard Ligatures in Latin lookup 0-1" three five zero two three
LCarets2: 1 0
EndChar

StartChar: custom_3_5_0_2_4
Encoding: 10780 -1 10535
Width: 70
Flags: H
LayerCount: 2
Fore
SplineSet
17 25 m 1
 15 25 l 1
 15 27 l 1
 17 27 l 1
 17 25 l 1
17 29 m 1
 15 29 l 1
 15 31 l 1
 17 31 l 1
 17 29 l 1
17 33 m 1
 15 33 l 1
 15 35 l 1
 17 35 l 1
 17 33 l 1
23 25 m 1
 21 25 l 1
 21 27 l 1
 23 27 l 1
 23 25 l 1
26 25 m 1
 24 25 l 1
 24 27 l 1
 25 27 l 1
 25 26 l 1
 26 26 l 1
 26 25 l 1
27 26 m 1
 26 26 l 1
 26 27 l 1
 28 27 l 1
 28 25 l 1
 27 25 l 1
 27 26 l 1
31 25 m 1
 29 25 l 1
 29 27 l 1
 31 27 l 1
 31 25 l 1
23 33 m 1
 21 33 l 1
 21 35 l 1
 23 35 l 1
 23 33 l 1
25 33 m 1
 24 33 l 1
 24 35 l 1
 26 35 l 1
 26 34 l 1
 25 34 l 1
 25 33 l 1
28 33 m 1
 26 33 l 1
 26 34 l 1
 27 34 l 1
 27 35 l 1
 28 35 l 1
 28 33 l 1
31 29 m 1
 29 29 l 1
 29 31 l 1
 31 31 l 1
 31 29 l 1
36 31 m 1
 34 31 l 1
 34 33 l 1
 36 33 l 1
 36 31 l 1
31 33 m 1
 29 33 l 1
 29 35 l 1
 31 35 l 1
 31 33 l 1
36 35 m 1
 34 35 l 1
 34 37 l 1
 36 37 l 1
 36 35 l 1
17 37 m 1
 15 37 l 1
 15 39 l 1
 17 39 l 1
 17 37 l 1
17 41 m 1
 15 41 l 1
 15 43 l 1
 17 43 l 1
 17 41 l 1
23 37 m 1
 21 37 l 1
 21 39 l 1
 23 39 l 1
 23 37 l 1
23 41 m 1
 21 41 l 1
 21 43 l 1
 23 43 l 1
 23 41 l 1
26 41 m 1
 24 41 l 1
 24 43 l 1
 25 43 l 1
 25 42 l 1
 26 42 l 1
 26 41 l 1
27 42 m 1
 26 42 l 1
 26 43 l 1
 28 43 l 1
 28 41 l 1
 27 41 l 1
 27 42 l 1
31 41 m 1
 29 41 l 1
 29 43 l 1
 31 43 l 1
 31 41 l 1
41 25 m 1
 39 25 l 1
 39 27 l 1
 41 27 l 1
 41 25 l 1
44 25 m 1
 42 25 l 1
 42 27 l 1
 43 27 l 1
 43 26 l 1
 44 26 l 1
 44 25 l 1
45 26 m 1
 44 26 l 1
 44 27 l 1
 46 27 l 1
 46 25 l 1
 45 25 l 1
 45 26 l 1
49 25 m 1
 47 25 l 1
 47 27 l 1
 49 27 l 1
 49 25 l 1
41 33 m 1
 39 33 l 1
 39 35 l 1
 41 35 l 1
 41 33 l 1
43 33 m 1
 42 33 l 1
 42 35 l 1
 44 35 l 1
 44 34 l 1
 43 34 l 1
 43 33 l 1
49 29 m 1
 47 29 l 1
 47 31 l 1
 49 31 l 1
 49 29 l 1
46 33 m 1
 44 33 l 1
 44 34 l 1
 45 34 l 1
 45 35 l 1
 46 35 l 1
 46 33 l 1
49 33 m 1
 47 33 l 1
 47 35 l 1
 49 35 l 1
 49 33 l 1
55 25 m 1
 53 25 l 1
 53 27 l 1
 55 27 l 1
 55 25 l 1
58 25 m 1
 56 25 l 1
 56 27 l 1
 57 27 l 1
 57 26 l 1
 58 26 l 1
 58 25 l 1
59 26 m 1
 58 26 l 1
 58 27 l 1
 60 27 l 1
 60 25 l 1
 59 25 l 1
 59 26 l 1
63 25 m 1
 61 25 l 1
 61 27 l 1
 63 27 l 1
 63 25 l 1
55 29 m 1
 53 29 l 1
 53 31 l 1
 55 31 l 1
 55 29 l 1
55 33 m 1
 53 33 l 1
 53 35 l 1
 55 35 l 1
 55 33 l 1
57 33 m 1
 56 33 l 1
 56 35 l 1
 58 35 l 1
 58 34 l 1
 57 34 l 1
 57 33 l 1
60 33 m 1
 58 33 l 1
 58 34 l 1
 59 34 l 1
 59 35 l 1
 60 35 l 1
 60 33 l 1
63 33 m 1
 61 33 l 1
 61 35 l 1
 63 35 l 1
 63 33 l 1
41 41 m 1
 39 41 l 1
 39 43 l 1
 41 43 l 1
 41 41 l 1
44 41 m 1
 42 41 l 1
 42 43 l 1
 43 43 l 1
 43 42 l 1
 44 42 l 1
 44 41 l 1
49 37 m 1
 47 37 l 1
 47 39 l 1
 49 39 l 1
 49 37 l 1
45 42 m 1
 44 42 l 1
 44 43 l 1
 46 43 l 1
 46 41 l 1
 45 41 l 1
 45 42 l 1
49 41 m 1
 47 41 l 1
 47 43 l 1
 49 43 l 1
 49 41 l 1
55 41 m 1
 53 41 l 1
 53 43 l 1
 55 43 l 1
 55 41 l 1
58 41 m 1
 56 41 l 1
 56 43 l 1
 57 43 l 1
 57 42 l 1
 58 42 l 1
 58 41 l 1
59 42 m 1
 58 42 l 1
 58 43 l 1
 60 43 l 1
 60 41 l 1
 59 41 l 1
 59 42 l 1
63 37 m 1
 61 37 l 1
 61 39 l 1
 63 39 l 1
 63 37 l 1
63 41 m 1
 61 41 l 1
 61 43 l 1
 63 43 l 1
 63 41 l 1
EndSplineSet
Ligature2: "'liga' Standard Ligatures in Latin lookup 0-1" three five zero two four
LCarets2: 1 0
EndChar

StartChar: custom_3_5_0_2_5
Encoding: 10781 -1 10536
Width: 70
Flags: H
LayerCount: 2
Fore
SplineSet
17 25 m 1
 15 25 l 1
 15 27 l 1
 17 27 l 1
 17 25 l 1
17 29 m 1
 15 29 l 1
 15 31 l 1
 17 31 l 1
 17 29 l 1
17 33 m 1
 15 33 l 1
 15 35 l 1
 17 35 l 1
 17 33 l 1
23 25 m 1
 21 25 l 1
 21 27 l 1
 23 27 l 1
 23 25 l 1
26 25 m 1
 24 25 l 1
 24 27 l 1
 25 27 l 1
 25 26 l 1
 26 26 l 1
 26 25 l 1
27 26 m 1
 26 26 l 1
 26 27 l 1
 28 27 l 1
 28 25 l 1
 27 25 l 1
 27 26 l 1
31 25 m 1
 29 25 l 1
 29 27 l 1
 31 27 l 1
 31 25 l 1
23 33 m 1
 21 33 l 1
 21 35 l 1
 23 35 l 1
 23 33 l 1
25 33 m 1
 24 33 l 1
 24 35 l 1
 26 35 l 1
 26 34 l 1
 25 34 l 1
 25 33 l 1
28 33 m 1
 26 33 l 1
 26 34 l 1
 27 34 l 1
 27 35 l 1
 28 35 l 1
 28 33 l 1
31 29 m 1
 29 29 l 1
 29 31 l 1
 31 31 l 1
 31 29 l 1
36 31 m 1
 34 31 l 1
 34 33 l 1
 36 33 l 1
 36 31 l 1
31 33 m 1
 29 33 l 1
 29 35 l 1
 31 35 l 1
 31 33 l 1
36 35 m 1
 34 35 l 1
 34 37 l 1
 36 37 l 1
 36 35 l 1
17 37 m 1
 15 37 l 1
 15 39 l 1
 17 39 l 1
 17 37 l 1
17 41 m 1
 15 41 l 1
 15 43 l 1
 17 43 l 1
 17 41 l 1
23 37 m 1
 21 37 l 1
 21 39 l 1
 23 39 l 1
 23 37 l 1
23 41 m 1
 21 41 l 1
 21 43 l 1
 23 43 l 1
 23 41 l 1
26 41 m 1
 24 41 l 1
 24 43 l 1
 25 43 l 1
 25 42 l 1
 26 42 l 1
 26 41 l 1
27 42 m 1
 26 42 l 1
 26 43 l 1
 28 43 l 1
 28 41 l 1
 27 41 l 1
 27 42 l 1
31 41 m 1
 29 41 l 1
 29 43 l 1
 31 43 l 1
 31 41 l 1
41 25 m 1
 39 25 l 1
 39 27 l 1
 41 27 l 1
 41 25 l 1
44 25 m 1
 42 25 l 1
 42 27 l 1
 43 27 l 1
 43 26 l 1
 44 26 l 1
 44 25 l 1
45 26 m 1
 44 26 l 1
 44 27 l 1
 46 27 l 1
 46 25 l 1
 45 25 l 1
 45 26 l 1
49 25 m 1
 47 25 l 1
 47 27 l 1
 49 27 l 1
 49 25 l 1
41 33 m 1
 39 33 l 1
 39 35 l 1
 41 35 l 1
 41 33 l 1
43 33 m 1
 42 33 l 1
 42 35 l 1
 44 35 l 1
 44 34 l 1
 43 34 l 1
 43 33 l 1
49 29 m 1
 47 29 l 1
 47 31 l 1
 49 31 l 1
 49 29 l 1
46 33 m 1
 44 33 l 1
 44 34 l 1
 45 34 l 1
 45 35 l 1
 46 35 l 1
 46 33 l 1
49 33 m 1
 47 33 l 1
 47 35 l 1
 49 35 l 1
 49 33 l 1
55 25 m 1
 53 25 l 1
 53 27 l 1
 55 27 l 1
 55 25 l 1
58 25 m 1
 56 25 l 1
 56 27 l 1
 57 27 l 1
 57 26 l 1
 58 26 l 1
 58 25 l 1
59 26 m 1
 58 26 l 1
 58 27 l 1
 60 27 l 1
 60 25 l 1
 59 25 l 1
 59 26 l 1
63 25 m 1
 61 25 l 1
 61 27 l 1
 63 27 l 1
 63 25 l 1
55 29 m 1
 53 29 l 1
 53 31 l 1
 55 31 l 1
 55 29 l 1
55 33 m 1
 53 33 l 1
 53 35 l 1
 55 35 l 1
 55 33 l 1
57 33 m 1
 56 33 l 1
 56 35 l 1
 58 35 l 1
 58 34 l 1
 57 34 l 1
 57 33 l 1
60 33 m 1
 58 33 l 1
 58 34 l 1
 59 34 l 1
 59 35 l 1
 60 35 l 1
 60 33 l 1
63 33 m 1
 61 33 l 1
 61 35 l 1
 63 35 l 1
 63 33 l 1
41 41 m 1
 39 41 l 1
 39 43 l 1
 41 43 l 1
 41 41 l 1
44 41 m 1
 42 41 l 1
 42 43 l 1
 43 43 l 1
 43 42 l 1
 44 42 l 1
 44 41 l 1
49 37 m 1
 47 37 l 1
 47 39 l 1
 49 39 l 1
 49 37 l 1
45 42 m 1
 44 42 l 1
 44 43 l 1
 46 43 l 1
 46 41 l 1
 45 41 l 1
 45 42 l 1
49 41 m 1
 47 41 l 1
 47 43 l 1
 49 43 l 1
 49 41 l 1
55 41 m 1
 53 41 l 1
 53 43 l 1
 55 43 l 1
 55 41 l 1
58 41 m 1
 56 41 l 1
 56 43 l 1
 57 43 l 1
 57 42 l 1
 58 42 l 1
 58 41 l 1
59 42 m 1
 58 42 l 1
 58 43 l 1
 60 43 l 1
 60 41 l 1
 59 41 l 1
 59 42 l 1
63 37 m 1
 61 37 l 1
 61 39 l 1
 63 39 l 1
 63 37 l 1
63 41 m 1
 61 41 l 1
 61 43 l 1
 63 43 l 1
 63 41 l 1
EndSplineSet
Ligature2: "'liga' Standard Ligatures in Latin lookup 0-1" three five zero two five
LCarets2: 1 0
EndChar

StartChar: custom_3_5_0_2_6
Encoding: 10782 -1 10537
Width: 70
Flags: H
LayerCount: 2
Fore
SplineSet
17 25 m 1
 15 25 l 1
 15 27 l 1
 17 27 l 1
 17 25 l 1
17 29 m 1
 15 29 l 1
 15 31 l 1
 17 31 l 1
 17 29 l 1
17 33 m 1
 15 33 l 1
 15 35 l 1
 17 35 l 1
 17 33 l 1
23 25 m 1
 21 25 l 1
 21 27 l 1
 23 27 l 1
 23 25 l 1
26 25 m 1
 24 25 l 1
 24 27 l 1
 25 27 l 1
 25 26 l 1
 26 26 l 1
 26 25 l 1
27 26 m 1
 26 26 l 1
 26 27 l 1
 28 27 l 1
 28 25 l 1
 27 25 l 1
 27 26 l 1
31 25 m 1
 29 25 l 1
 29 27 l 1
 31 27 l 1
 31 25 l 1
23 33 m 1
 21 33 l 1
 21 35 l 1
 23 35 l 1
 23 33 l 1
25 33 m 1
 24 33 l 1
 24 35 l 1
 26 35 l 1
 26 34 l 1
 25 34 l 1
 25 33 l 1
28 33 m 1
 26 33 l 1
 26 34 l 1
 27 34 l 1
 27 35 l 1
 28 35 l 1
 28 33 l 1
31 29 m 1
 29 29 l 1
 29 31 l 1
 31 31 l 1
 31 29 l 1
36 31 m 1
 34 31 l 1
 34 33 l 1
 36 33 l 1
 36 31 l 1
31 33 m 1
 29 33 l 1
 29 35 l 1
 31 35 l 1
 31 33 l 1
36 35 m 1
 34 35 l 1
 34 37 l 1
 36 37 l 1
 36 35 l 1
17 37 m 1
 15 37 l 1
 15 39 l 1
 17 39 l 1
 17 37 l 1
17 41 m 1
 15 41 l 1
 15 43 l 1
 17 43 l 1
 17 41 l 1
23 37 m 1
 21 37 l 1
 21 39 l 1
 23 39 l 1
 23 37 l 1
23 41 m 1
 21 41 l 1
 21 43 l 1
 23 43 l 1
 23 41 l 1
26 41 m 1
 24 41 l 1
 24 43 l 1
 25 43 l 1
 25 42 l 1
 26 42 l 1
 26 41 l 1
27 42 m 1
 26 42 l 1
 26 43 l 1
 28 43 l 1
 28 41 l 1
 27 41 l 1
 27 42 l 1
31 41 m 1
 29 41 l 1
 29 43 l 1
 31 43 l 1
 31 41 l 1
41 25 m 1
 39 25 l 1
 39 27 l 1
 41 27 l 1
 41 25 l 1
44 25 m 1
 42 25 l 1
 42 27 l 1
 43 27 l 1
 43 26 l 1
 44 26 l 1
 44 25 l 1
45 26 m 1
 44 26 l 1
 44 27 l 1
 46 27 l 1
 46 25 l 1
 45 25 l 1
 45 26 l 1
49 25 m 1
 47 25 l 1
 47 27 l 1
 49 27 l 1
 49 25 l 1
41 33 m 1
 39 33 l 1
 39 35 l 1
 41 35 l 1
 41 33 l 1
43 33 m 1
 42 33 l 1
 42 35 l 1
 44 35 l 1
 44 34 l 1
 43 34 l 1
 43 33 l 1
49 29 m 1
 47 29 l 1
 47 31 l 1
 49 31 l 1
 49 29 l 1
46 33 m 1
 44 33 l 1
 44 34 l 1
 45 34 l 1
 45 35 l 1
 46 35 l 1
 46 33 l 1
49 33 m 1
 47 33 l 1
 47 35 l 1
 49 35 l 1
 49 33 l 1
55 25 m 1
 53 25 l 1
 53 27 l 1
 55 27 l 1
 55 25 l 1
58 25 m 1
 56 25 l 1
 56 27 l 1
 57 27 l 1
 57 26 l 1
 58 26 l 1
 58 25 l 1
59 26 m 1
 58 26 l 1
 58 27 l 1
 60 27 l 1
 60 25 l 1
 59 25 l 1
 59 26 l 1
63 25 m 1
 61 25 l 1
 61 27 l 1
 63 27 l 1
 63 25 l 1
55 29 m 1
 53 29 l 1
 53 31 l 1
 55 31 l 1
 55 29 l 1
55 33 m 1
 53 33 l 1
 53 35 l 1
 55 35 l 1
 55 33 l 1
57 33 m 1
 56 33 l 1
 56 35 l 1
 58 35 l 1
 58 34 l 1
 57 34 l 1
 57 33 l 1
60 33 m 1
 58 33 l 1
 58 34 l 1
 59 34 l 1
 59 35 l 1
 60 35 l 1
 60 33 l 1
63 33 m 1
 61 33 l 1
 61 35 l 1
 63 35 l 1
 63 33 l 1
41 41 m 1
 39 41 l 1
 39 43 l 1
 41 43 l 1
 41 41 l 1
44 41 m 1
 42 41 l 1
 42 43 l 1
 43 43 l 1
 43 42 l 1
 44 42 l 1
 44 41 l 1
49 37 m 1
 47 37 l 1
 47 39 l 1
 49 39 l 1
 49 37 l 1
45 42 m 1
 44 42 l 1
 44 43 l 1
 46 43 l 1
 46 41 l 1
 45 41 l 1
 45 42 l 1
49 41 m 1
 47 41 l 1
 47 43 l 1
 49 43 l 1
 49 41 l 1
55 41 m 1
 53 41 l 1
 53 43 l 1
 55 43 l 1
 55 41 l 1
58 41 m 1
 56 41 l 1
 56 43 l 1
 57 43 l 1
 57 42 l 1
 58 42 l 1
 58 41 l 1
59 42 m 1
 58 42 l 1
 58 43 l 1
 60 43 l 1
 60 41 l 1
 59 41 l 1
 59 42 l 1
63 37 m 1
 61 37 l 1
 61 39 l 1
 63 39 l 1
 63 37 l 1
63 41 m 1
 61 41 l 1
 61 43 l 1
 63 43 l 1
 63 41 l 1
EndSplineSet
Ligature2: "'liga' Standard Ligatures in Latin lookup 0-1" three five zero two six
LCarets2: 1 0
EndChar

StartChar: custom_3_5_0_2_7
Encoding: 10783 -1 10538
Width: 70
Flags: H
LayerCount: 2
Fore
SplineSet
17 25 m 1
 15 25 l 1
 15 27 l 1
 17 27 l 1
 17 25 l 1
17 29 m 1
 15 29 l 1
 15 31 l 1
 17 31 l 1
 17 29 l 1
17 33 m 1
 15 33 l 1
 15 35 l 1
 17 35 l 1
 17 33 l 1
23 25 m 1
 21 25 l 1
 21 27 l 1
 23 27 l 1
 23 25 l 1
26 25 m 1
 24 25 l 1
 24 27 l 1
 25 27 l 1
 25 26 l 1
 26 26 l 1
 26 25 l 1
27 26 m 1
 26 26 l 1
 26 27 l 1
 28 27 l 1
 28 25 l 1
 27 25 l 1
 27 26 l 1
31 25 m 1
 29 25 l 1
 29 27 l 1
 31 27 l 1
 31 25 l 1
23 33 m 1
 21 33 l 1
 21 35 l 1
 23 35 l 1
 23 33 l 1
25 33 m 1
 24 33 l 1
 24 35 l 1
 26 35 l 1
 26 34 l 1
 25 34 l 1
 25 33 l 1
28 33 m 1
 26 33 l 1
 26 34 l 1
 27 34 l 1
 27 35 l 1
 28 35 l 1
 28 33 l 1
31 29 m 1
 29 29 l 1
 29 31 l 1
 31 31 l 1
 31 29 l 1
36 31 m 1
 34 31 l 1
 34 33 l 1
 36 33 l 1
 36 31 l 1
31 33 m 1
 29 33 l 1
 29 35 l 1
 31 35 l 1
 31 33 l 1
36 35 m 1
 34 35 l 1
 34 37 l 1
 36 37 l 1
 36 35 l 1
17 37 m 1
 15 37 l 1
 15 39 l 1
 17 39 l 1
 17 37 l 1
17 41 m 1
 15 41 l 1
 15 43 l 1
 17 43 l 1
 17 41 l 1
23 37 m 1
 21 37 l 1
 21 39 l 1
 23 39 l 1
 23 37 l 1
23 41 m 1
 21 41 l 1
 21 43 l 1
 23 43 l 1
 23 41 l 1
26 41 m 1
 24 41 l 1
 24 43 l 1
 25 43 l 1
 25 42 l 1
 26 42 l 1
 26 41 l 1
27 42 m 1
 26 42 l 1
 26 43 l 1
 28 43 l 1
 28 41 l 1
 27 41 l 1
 27 42 l 1
31 41 m 1
 29 41 l 1
 29 43 l 1
 31 43 l 1
 31 41 l 1
41 25 m 1
 39 25 l 1
 39 27 l 1
 41 27 l 1
 41 25 l 1
44 25 m 1
 42 25 l 1
 42 27 l 1
 43 27 l 1
 43 26 l 1
 44 26 l 1
 44 25 l 1
45 26 m 1
 44 26 l 1
 44 27 l 1
 46 27 l 1
 46 25 l 1
 45 25 l 1
 45 26 l 1
49 25 m 1
 47 25 l 1
 47 27 l 1
 49 27 l 1
 49 25 l 1
41 33 m 1
 39 33 l 1
 39 35 l 1
 41 35 l 1
 41 33 l 1
43 33 m 1
 42 33 l 1
 42 35 l 1
 44 35 l 1
 44 34 l 1
 43 34 l 1
 43 33 l 1
49 29 m 1
 47 29 l 1
 47 31 l 1
 49 31 l 1
 49 29 l 1
46 33 m 1
 44 33 l 1
 44 34 l 1
 45 34 l 1
 45 35 l 1
 46 35 l 1
 46 33 l 1
49 33 m 1
 47 33 l 1
 47 35 l 1
 49 35 l 1
 49 33 l 1
55 25 m 1
 53 25 l 1
 53 27 l 1
 55 27 l 1
 55 25 l 1
58 25 m 1
 56 25 l 1
 56 27 l 1
 57 27 l 1
 57 26 l 1
 58 26 l 1
 58 25 l 1
59 26 m 1
 58 26 l 1
 58 27 l 1
 60 27 l 1
 60 25 l 1
 59 25 l 1
 59 26 l 1
63 25 m 1
 61 25 l 1
 61 27 l 1
 63 27 l 1
 63 25 l 1
55 29 m 1
 53 29 l 1
 53 31 l 1
 55 31 l 1
 55 29 l 1
55 33 m 1
 53 33 l 1
 53 35 l 1
 55 35 l 1
 55 33 l 1
57 33 m 1
 56 33 l 1
 56 35 l 1
 58 35 l 1
 58 34 l 1
 57 34 l 1
 57 33 l 1
60 33 m 1
 58 33 l 1
 58 34 l 1
 59 34 l 1
 59 35 l 1
 60 35 l 1
 60 33 l 1
63 33 m 1
 61 33 l 1
 61 35 l 1
 63 35 l 1
 63 33 l 1
41 41 m 1
 39 41 l 1
 39 43 l 1
 41 43 l 1
 41 41 l 1
44 41 m 1
 42 41 l 1
 42 43 l 1
 43 43 l 1
 43 42 l 1
 44 42 l 1
 44 41 l 1
49 37 m 1
 47 37 l 1
 47 39 l 1
 49 39 l 1
 49 37 l 1
45 42 m 1
 44 42 l 1
 44 43 l 1
 46 43 l 1
 46 41 l 1
 45 41 l 1
 45 42 l 1
49 41 m 1
 47 41 l 1
 47 43 l 1
 49 43 l 1
 49 41 l 1
55 41 m 1
 53 41 l 1
 53 43 l 1
 55 43 l 1
 55 41 l 1
58 41 m 1
 56 41 l 1
 56 43 l 1
 57 43 l 1
 57 42 l 1
 58 42 l 1
 58 41 l 1
59 42 m 1
 58 42 l 1
 58 43 l 1
 60 43 l 1
 60 41 l 1
 59 41 l 1
 59 42 l 1
63 37 m 1
 61 37 l 1
 61 39 l 1
 63 39 l 1
 63 37 l 1
63 41 m 1
 61 41 l 1
 61 43 l 1
 63 43 l 1
 63 41 l 1
EndSplineSet
Ligature2: "'liga' Standard Ligatures in Latin lookup 0-1" three five zero two seven
LCarets2: 1 0
EndChar

StartChar: custom_3_5_0_2_8
Encoding: 10784 -1 10539
Width: 70
Flags: H
LayerCount: 2
Fore
SplineSet
17 25 m 1
 15 25 l 1
 15 27 l 1
 17 27 l 1
 17 25 l 1
17 29 m 1
 15 29 l 1
 15 31 l 1
 17 31 l 1
 17 29 l 1
17 33 m 1
 15 33 l 1
 15 35 l 1
 17 35 l 1
 17 33 l 1
23 25 m 1
 21 25 l 1
 21 27 l 1
 23 27 l 1
 23 25 l 1
26 25 m 1
 24 25 l 1
 24 27 l 1
 25 27 l 1
 25 26 l 1
 26 26 l 1
 26 25 l 1
27 26 m 1
 26 26 l 1
 26 27 l 1
 28 27 l 1
 28 25 l 1
 27 25 l 1
 27 26 l 1
31 25 m 1
 29 25 l 1
 29 27 l 1
 31 27 l 1
 31 25 l 1
23 33 m 1
 21 33 l 1
 21 35 l 1
 23 35 l 1
 23 33 l 1
25 33 m 1
 24 33 l 1
 24 35 l 1
 26 35 l 1
 26 34 l 1
 25 34 l 1
 25 33 l 1
28 33 m 1
 26 33 l 1
 26 34 l 1
 27 34 l 1
 27 35 l 1
 28 35 l 1
 28 33 l 1
31 29 m 1
 29 29 l 1
 29 31 l 1
 31 31 l 1
 31 29 l 1
36 31 m 1
 34 31 l 1
 34 33 l 1
 36 33 l 1
 36 31 l 1
31 33 m 1
 29 33 l 1
 29 35 l 1
 31 35 l 1
 31 33 l 1
36 35 m 1
 34 35 l 1
 34 37 l 1
 36 37 l 1
 36 35 l 1
17 37 m 1
 15 37 l 1
 15 39 l 1
 17 39 l 1
 17 37 l 1
17 41 m 1
 15 41 l 1
 15 43 l 1
 17 43 l 1
 17 41 l 1
23 37 m 1
 21 37 l 1
 21 39 l 1
 23 39 l 1
 23 37 l 1
23 41 m 1
 21 41 l 1
 21 43 l 1
 23 43 l 1
 23 41 l 1
26 41 m 1
 24 41 l 1
 24 43 l 1
 25 43 l 1
 25 42 l 1
 26 42 l 1
 26 41 l 1
27 42 m 1
 26 42 l 1
 26 43 l 1
 28 43 l 1
 28 41 l 1
 27 41 l 1
 27 42 l 1
31 41 m 1
 29 41 l 1
 29 43 l 1
 31 43 l 1
 31 41 l 1
41 25 m 1
 39 25 l 1
 39 27 l 1
 41 27 l 1
 41 25 l 1
44 25 m 1
 42 25 l 1
 42 27 l 1
 43 27 l 1
 43 26 l 1
 44 26 l 1
 44 25 l 1
45 26 m 1
 44 26 l 1
 44 27 l 1
 46 27 l 1
 46 25 l 1
 45 25 l 1
 45 26 l 1
49 25 m 1
 47 25 l 1
 47 27 l 1
 49 27 l 1
 49 25 l 1
41 33 m 1
 39 33 l 1
 39 35 l 1
 41 35 l 1
 41 33 l 1
43 33 m 1
 42 33 l 1
 42 35 l 1
 44 35 l 1
 44 34 l 1
 43 34 l 1
 43 33 l 1
49 29 m 1
 47 29 l 1
 47 31 l 1
 49 31 l 1
 49 29 l 1
46 33 m 1
 44 33 l 1
 44 34 l 1
 45 34 l 1
 45 35 l 1
 46 35 l 1
 46 33 l 1
49 33 m 1
 47 33 l 1
 47 35 l 1
 49 35 l 1
 49 33 l 1
55 25 m 1
 53 25 l 1
 53 27 l 1
 55 27 l 1
 55 25 l 1
58 25 m 1
 56 25 l 1
 56 27 l 1
 57 27 l 1
 57 26 l 1
 58 26 l 1
 58 25 l 1
59 26 m 1
 58 26 l 1
 58 27 l 1
 60 27 l 1
 60 25 l 1
 59 25 l 1
 59 26 l 1
63 25 m 1
 61 25 l 1
 61 27 l 1
 63 27 l 1
 63 25 l 1
55 29 m 1
 53 29 l 1
 53 31 l 1
 55 31 l 1
 55 29 l 1
55 33 m 1
 53 33 l 1
 53 35 l 1
 55 35 l 1
 55 33 l 1
57 33 m 1
 56 33 l 1
 56 35 l 1
 58 35 l 1
 58 34 l 1
 57 34 l 1
 57 33 l 1
60 33 m 1
 58 33 l 1
 58 34 l 1
 59 34 l 1
 59 35 l 1
 60 35 l 1
 60 33 l 1
63 33 m 1
 61 33 l 1
 61 35 l 1
 63 35 l 1
 63 33 l 1
41 41 m 1
 39 41 l 1
 39 43 l 1
 41 43 l 1
 41 41 l 1
44 41 m 1
 42 41 l 1
 42 43 l 1
 43 43 l 1
 43 42 l 1
 44 42 l 1
 44 41 l 1
49 37 m 1
 47 37 l 1
 47 39 l 1
 49 39 l 1
 49 37 l 1
45 42 m 1
 44 42 l 1
 44 43 l 1
 46 43 l 1
 46 41 l 1
 45 41 l 1
 45 42 l 1
49 41 m 1
 47 41 l 1
 47 43 l 1
 49 43 l 1
 49 41 l 1
55 41 m 1
 53 41 l 1
 53 43 l 1
 55 43 l 1
 55 41 l 1
58 41 m 1
 56 41 l 1
 56 43 l 1
 57 43 l 1
 57 42 l 1
 58 42 l 1
 58 41 l 1
59 42 m 1
 58 42 l 1
 58 43 l 1
 60 43 l 1
 60 41 l 1
 59 41 l 1
 59 42 l 1
63 37 m 1
 61 37 l 1
 61 39 l 1
 63 39 l 1
 63 37 l 1
63 41 m 1
 61 41 l 1
 61 43 l 1
 63 43 l 1
 63 41 l 1
EndSplineSet
Ligature2: "'liga' Standard Ligatures in Latin lookup 0-1" three five zero two eight
LCarets2: 1 0
EndChar

StartChar: custom_3_5_0_2_9
Encoding: 10785 -1 10540
Width: 70
Flags: H
LayerCount: 2
Fore
SplineSet
17 25 m 1
 15 25 l 1
 15 27 l 1
 17 27 l 1
 17 25 l 1
17 29 m 1
 15 29 l 1
 15 31 l 1
 17 31 l 1
 17 29 l 1
17 33 m 1
 15 33 l 1
 15 35 l 1
 17 35 l 1
 17 33 l 1
23 25 m 1
 21 25 l 1
 21 27 l 1
 23 27 l 1
 23 25 l 1
26 25 m 1
 24 25 l 1
 24 27 l 1
 25 27 l 1
 25 26 l 1
 26 26 l 1
 26 25 l 1
27 26 m 1
 26 26 l 1
 26 27 l 1
 28 27 l 1
 28 25 l 1
 27 25 l 1
 27 26 l 1
31 25 m 1
 29 25 l 1
 29 27 l 1
 31 27 l 1
 31 25 l 1
23 33 m 1
 21 33 l 1
 21 35 l 1
 23 35 l 1
 23 33 l 1
25 33 m 1
 24 33 l 1
 24 35 l 1
 26 35 l 1
 26 34 l 1
 25 34 l 1
 25 33 l 1
28 33 m 1
 26 33 l 1
 26 34 l 1
 27 34 l 1
 27 35 l 1
 28 35 l 1
 28 33 l 1
31 29 m 1
 29 29 l 1
 29 31 l 1
 31 31 l 1
 31 29 l 1
36 31 m 1
 34 31 l 1
 34 33 l 1
 36 33 l 1
 36 31 l 1
31 33 m 1
 29 33 l 1
 29 35 l 1
 31 35 l 1
 31 33 l 1
36 35 m 1
 34 35 l 1
 34 37 l 1
 36 37 l 1
 36 35 l 1
17 37 m 1
 15 37 l 1
 15 39 l 1
 17 39 l 1
 17 37 l 1
17 41 m 1
 15 41 l 1
 15 43 l 1
 17 43 l 1
 17 41 l 1
23 37 m 1
 21 37 l 1
 21 39 l 1
 23 39 l 1
 23 37 l 1
23 41 m 1
 21 41 l 1
 21 43 l 1
 23 43 l 1
 23 41 l 1
26 41 m 1
 24 41 l 1
 24 43 l 1
 25 43 l 1
 25 42 l 1
 26 42 l 1
 26 41 l 1
27 42 m 1
 26 42 l 1
 26 43 l 1
 28 43 l 1
 28 41 l 1
 27 41 l 1
 27 42 l 1
31 41 m 1
 29 41 l 1
 29 43 l 1
 31 43 l 1
 31 41 l 1
41 25 m 1
 39 25 l 1
 39 27 l 1
 41 27 l 1
 41 25 l 1
44 25 m 1
 42 25 l 1
 42 27 l 1
 43 27 l 1
 43 26 l 1
 44 26 l 1
 44 25 l 1
45 26 m 1
 44 26 l 1
 44 27 l 1
 46 27 l 1
 46 25 l 1
 45 25 l 1
 45 26 l 1
49 25 m 1
 47 25 l 1
 47 27 l 1
 49 27 l 1
 49 25 l 1
41 33 m 1
 39 33 l 1
 39 35 l 1
 41 35 l 1
 41 33 l 1
43 33 m 1
 42 33 l 1
 42 35 l 1
 44 35 l 1
 44 34 l 1
 43 34 l 1
 43 33 l 1
49 29 m 1
 47 29 l 1
 47 31 l 1
 49 31 l 1
 49 29 l 1
46 33 m 1
 44 33 l 1
 44 34 l 1
 45 34 l 1
 45 35 l 1
 46 35 l 1
 46 33 l 1
49 33 m 1
 47 33 l 1
 47 35 l 1
 49 35 l 1
 49 33 l 1
55 25 m 1
 53 25 l 1
 53 27 l 1
 55 27 l 1
 55 25 l 1
58 25 m 1
 56 25 l 1
 56 27 l 1
 57 27 l 1
 57 26 l 1
 58 26 l 1
 58 25 l 1
59 26 m 1
 58 26 l 1
 58 27 l 1
 60 27 l 1
 60 25 l 1
 59 25 l 1
 59 26 l 1
63 25 m 1
 61 25 l 1
 61 27 l 1
 63 27 l 1
 63 25 l 1
55 29 m 1
 53 29 l 1
 53 31 l 1
 55 31 l 1
 55 29 l 1
55 33 m 1
 53 33 l 1
 53 35 l 1
 55 35 l 1
 55 33 l 1
57 33 m 1
 56 33 l 1
 56 35 l 1
 58 35 l 1
 58 34 l 1
 57 34 l 1
 57 33 l 1
60 33 m 1
 58 33 l 1
 58 34 l 1
 59 34 l 1
 59 35 l 1
 60 35 l 1
 60 33 l 1
63 33 m 1
 61 33 l 1
 61 35 l 1
 63 35 l 1
 63 33 l 1
41 41 m 1
 39 41 l 1
 39 43 l 1
 41 43 l 1
 41 41 l 1
44 41 m 1
 42 41 l 1
 42 43 l 1
 43 43 l 1
 43 42 l 1
 44 42 l 1
 44 41 l 1
49 37 m 1
 47 37 l 1
 47 39 l 1
 49 39 l 1
 49 37 l 1
45 42 m 1
 44 42 l 1
 44 43 l 1
 46 43 l 1
 46 41 l 1
 45 41 l 1
 45 42 l 1
49 41 m 1
 47 41 l 1
 47 43 l 1
 49 43 l 1
 49 41 l 1
55 41 m 1
 53 41 l 1
 53 43 l 1
 55 43 l 1
 55 41 l 1
58 41 m 1
 56 41 l 1
 56 43 l 1
 57 43 l 1
 57 42 l 1
 58 42 l 1
 58 41 l 1
59 42 m 1
 58 42 l 1
 58 43 l 1
 60 43 l 1
 60 41 l 1
 59 41 l 1
 59 42 l 1
63 37 m 1
 61 37 l 1
 61 39 l 1
 63 39 l 1
 63 37 l 1
63 41 m 1
 61 41 l 1
 61 43 l 1
 63 43 l 1
 63 41 l 1
EndSplineSet
Ligature2: "'liga' Standard Ligatures in Latin lookup 0-1" three five zero two nine
LCarets2: 1 0
EndChar

StartChar: custom_3_5_0_3_0
Encoding: 10786 -1 10541
Width: 70
Flags: H
LayerCount: 2
Fore
SplineSet
17 25 m 1
 15 25 l 1
 15 27 l 1
 17 27 l 1
 17 25 l 1
17 29 m 1
 15 29 l 1
 15 31 l 1
 17 31 l 1
 17 29 l 1
17 33 m 1
 15 33 l 1
 15 35 l 1
 17 35 l 1
 17 33 l 1
23 25 m 1
 21 25 l 1
 21 27 l 1
 23 27 l 1
 23 25 l 1
26 25 m 1
 24 25 l 1
 24 27 l 1
 25 27 l 1
 25 26 l 1
 26 26 l 1
 26 25 l 1
27 26 m 1
 26 26 l 1
 26 27 l 1
 28 27 l 1
 28 25 l 1
 27 25 l 1
 27 26 l 1
31 25 m 1
 29 25 l 1
 29 27 l 1
 31 27 l 1
 31 25 l 1
23 33 m 1
 21 33 l 1
 21 35 l 1
 23 35 l 1
 23 33 l 1
25 33 m 1
 24 33 l 1
 24 35 l 1
 26 35 l 1
 26 34 l 1
 25 34 l 1
 25 33 l 1
28 33 m 1
 26 33 l 1
 26 34 l 1
 27 34 l 1
 27 35 l 1
 28 35 l 1
 28 33 l 1
31 29 m 1
 29 29 l 1
 29 31 l 1
 31 31 l 1
 31 29 l 1
36 31 m 1
 34 31 l 1
 34 33 l 1
 36 33 l 1
 36 31 l 1
31 33 m 1
 29 33 l 1
 29 35 l 1
 31 35 l 1
 31 33 l 1
36 35 m 1
 34 35 l 1
 34 37 l 1
 36 37 l 1
 36 35 l 1
17 37 m 1
 15 37 l 1
 15 39 l 1
 17 39 l 1
 17 37 l 1
17 41 m 1
 15 41 l 1
 15 43 l 1
 17 43 l 1
 17 41 l 1
23 37 m 1
 21 37 l 1
 21 39 l 1
 23 39 l 1
 23 37 l 1
23 41 m 1
 21 41 l 1
 21 43 l 1
 23 43 l 1
 23 41 l 1
26 41 m 1
 24 41 l 1
 24 43 l 1
 25 43 l 1
 25 42 l 1
 26 42 l 1
 26 41 l 1
27 42 m 1
 26 42 l 1
 26 43 l 1
 28 43 l 1
 28 41 l 1
 27 41 l 1
 27 42 l 1
31 41 m 1
 29 41 l 1
 29 43 l 1
 31 43 l 1
 31 41 l 1
41 25 m 1
 39 25 l 1
 39 27 l 1
 41 27 l 1
 41 25 l 1
44 25 m 1
 42 25 l 1
 42 27 l 1
 43 27 l 1
 43 26 l 1
 44 26 l 1
 44 25 l 1
45 26 m 1
 44 26 l 1
 44 27 l 1
 46 27 l 1
 46 25 l 1
 45 25 l 1
 45 26 l 1
49 25 m 1
 47 25 l 1
 47 27 l 1
 49 27 l 1
 49 25 l 1
41 33 m 1
 39 33 l 1
 39 35 l 1
 41 35 l 1
 41 33 l 1
43 33 m 1
 42 33 l 1
 42 35 l 1
 44 35 l 1
 44 34 l 1
 43 34 l 1
 43 33 l 1
49 29 m 1
 47 29 l 1
 47 31 l 1
 49 31 l 1
 49 29 l 1
46 33 m 1
 44 33 l 1
 44 34 l 1
 45 34 l 1
 45 35 l 1
 46 35 l 1
 46 33 l 1
49 33 m 1
 47 33 l 1
 47 35 l 1
 49 35 l 1
 49 33 l 1
55 25 m 1
 53 25 l 1
 53 27 l 1
 55 27 l 1
 55 25 l 1
58 25 m 1
 56 25 l 1
 56 27 l 1
 57 27 l 1
 57 26 l 1
 58 26 l 1
 58 25 l 1
59 26 m 1
 58 26 l 1
 58 27 l 1
 60 27 l 1
 60 25 l 1
 59 25 l 1
 59 26 l 1
63 25 m 1
 61 25 l 1
 61 27 l 1
 63 27 l 1
 63 25 l 1
55 29 m 1
 53 29 l 1
 53 31 l 1
 55 31 l 1
 55 29 l 1
55 33 m 1
 53 33 l 1
 53 35 l 1
 55 35 l 1
 55 33 l 1
57 33 m 1
 56 33 l 1
 56 35 l 1
 58 35 l 1
 58 34 l 1
 57 34 l 1
 57 33 l 1
60 33 m 1
 58 33 l 1
 58 34 l 1
 59 34 l 1
 59 35 l 1
 60 35 l 1
 60 33 l 1
63 33 m 1
 61 33 l 1
 61 35 l 1
 63 35 l 1
 63 33 l 1
41 41 m 1
 39 41 l 1
 39 43 l 1
 41 43 l 1
 41 41 l 1
44 41 m 1
 42 41 l 1
 42 43 l 1
 43 43 l 1
 43 42 l 1
 44 42 l 1
 44 41 l 1
49 37 m 1
 47 37 l 1
 47 39 l 1
 49 39 l 1
 49 37 l 1
45 42 m 1
 44 42 l 1
 44 43 l 1
 46 43 l 1
 46 41 l 1
 45 41 l 1
 45 42 l 1
49 41 m 1
 47 41 l 1
 47 43 l 1
 49 43 l 1
 49 41 l 1
55 41 m 1
 53 41 l 1
 53 43 l 1
 55 43 l 1
 55 41 l 1
58 41 m 1
 56 41 l 1
 56 43 l 1
 57 43 l 1
 57 42 l 1
 58 42 l 1
 58 41 l 1
59 42 m 1
 58 42 l 1
 58 43 l 1
 60 43 l 1
 60 41 l 1
 59 41 l 1
 59 42 l 1
63 37 m 1
 61 37 l 1
 61 39 l 1
 63 39 l 1
 63 37 l 1
63 41 m 1
 61 41 l 1
 61 43 l 1
 63 43 l 1
 63 41 l 1
EndSplineSet
Ligature2: "'liga' Standard Ligatures in Latin lookup 0-1" three five zero three zero
LCarets2: 1 0
EndChar

StartChar: custom_3_5_0_3_1
Encoding: 10787 -1 10542
Width: 70
Flags: H
LayerCount: 2
Fore
SplineSet
17 25 m 1
 15 25 l 1
 15 27 l 1
 17 27 l 1
 17 25 l 1
17 29 m 1
 15 29 l 1
 15 31 l 1
 17 31 l 1
 17 29 l 1
17 33 m 1
 15 33 l 1
 15 35 l 1
 17 35 l 1
 17 33 l 1
23 25 m 1
 21 25 l 1
 21 27 l 1
 23 27 l 1
 23 25 l 1
26 25 m 1
 24 25 l 1
 24 27 l 1
 25 27 l 1
 25 26 l 1
 26 26 l 1
 26 25 l 1
27 26 m 1
 26 26 l 1
 26 27 l 1
 28 27 l 1
 28 25 l 1
 27 25 l 1
 27 26 l 1
31 25 m 1
 29 25 l 1
 29 27 l 1
 31 27 l 1
 31 25 l 1
23 33 m 1
 21 33 l 1
 21 35 l 1
 23 35 l 1
 23 33 l 1
25 33 m 1
 24 33 l 1
 24 35 l 1
 26 35 l 1
 26 34 l 1
 25 34 l 1
 25 33 l 1
28 33 m 1
 26 33 l 1
 26 34 l 1
 27 34 l 1
 27 35 l 1
 28 35 l 1
 28 33 l 1
31 29 m 1
 29 29 l 1
 29 31 l 1
 31 31 l 1
 31 29 l 1
36 31 m 1
 34 31 l 1
 34 33 l 1
 36 33 l 1
 36 31 l 1
31 33 m 1
 29 33 l 1
 29 35 l 1
 31 35 l 1
 31 33 l 1
36 35 m 1
 34 35 l 1
 34 37 l 1
 36 37 l 1
 36 35 l 1
17 37 m 1
 15 37 l 1
 15 39 l 1
 17 39 l 1
 17 37 l 1
17 41 m 1
 15 41 l 1
 15 43 l 1
 17 43 l 1
 17 41 l 1
23 37 m 1
 21 37 l 1
 21 39 l 1
 23 39 l 1
 23 37 l 1
23 41 m 1
 21 41 l 1
 21 43 l 1
 23 43 l 1
 23 41 l 1
26 41 m 1
 24 41 l 1
 24 43 l 1
 25 43 l 1
 25 42 l 1
 26 42 l 1
 26 41 l 1
27 42 m 1
 26 42 l 1
 26 43 l 1
 28 43 l 1
 28 41 l 1
 27 41 l 1
 27 42 l 1
31 41 m 1
 29 41 l 1
 29 43 l 1
 31 43 l 1
 31 41 l 1
41 25 m 1
 39 25 l 1
 39 27 l 1
 41 27 l 1
 41 25 l 1
44 25 m 1
 42 25 l 1
 42 27 l 1
 43 27 l 1
 43 26 l 1
 44 26 l 1
 44 25 l 1
45 26 m 1
 44 26 l 1
 44 27 l 1
 46 27 l 1
 46 25 l 1
 45 25 l 1
 45 26 l 1
49 25 m 1
 47 25 l 1
 47 27 l 1
 49 27 l 1
 49 25 l 1
41 33 m 1
 39 33 l 1
 39 35 l 1
 41 35 l 1
 41 33 l 1
43 33 m 1
 42 33 l 1
 42 35 l 1
 44 35 l 1
 44 34 l 1
 43 34 l 1
 43 33 l 1
49 29 m 1
 47 29 l 1
 47 31 l 1
 49 31 l 1
 49 29 l 1
46 33 m 1
 44 33 l 1
 44 34 l 1
 45 34 l 1
 45 35 l 1
 46 35 l 1
 46 33 l 1
49 33 m 1
 47 33 l 1
 47 35 l 1
 49 35 l 1
 49 33 l 1
55 25 m 1
 53 25 l 1
 53 27 l 1
 55 27 l 1
 55 25 l 1
58 25 m 1
 56 25 l 1
 56 27 l 1
 57 27 l 1
 57 26 l 1
 58 26 l 1
 58 25 l 1
59 26 m 1
 58 26 l 1
 58 27 l 1
 60 27 l 1
 60 25 l 1
 59 25 l 1
 59 26 l 1
63 25 m 1
 61 25 l 1
 61 27 l 1
 63 27 l 1
 63 25 l 1
55 29 m 1
 53 29 l 1
 53 31 l 1
 55 31 l 1
 55 29 l 1
55 33 m 1
 53 33 l 1
 53 35 l 1
 55 35 l 1
 55 33 l 1
57 33 m 1
 56 33 l 1
 56 35 l 1
 58 35 l 1
 58 34 l 1
 57 34 l 1
 57 33 l 1
60 33 m 1
 58 33 l 1
 58 34 l 1
 59 34 l 1
 59 35 l 1
 60 35 l 1
 60 33 l 1
63 33 m 1
 61 33 l 1
 61 35 l 1
 63 35 l 1
 63 33 l 1
41 41 m 1
 39 41 l 1
 39 43 l 1
 41 43 l 1
 41 41 l 1
44 41 m 1
 42 41 l 1
 42 43 l 1
 43 43 l 1
 43 42 l 1
 44 42 l 1
 44 41 l 1
49 37 m 1
 47 37 l 1
 47 39 l 1
 49 39 l 1
 49 37 l 1
45 42 m 1
 44 42 l 1
 44 43 l 1
 46 43 l 1
 46 41 l 1
 45 41 l 1
 45 42 l 1
49 41 m 1
 47 41 l 1
 47 43 l 1
 49 43 l 1
 49 41 l 1
55 41 m 1
 53 41 l 1
 53 43 l 1
 55 43 l 1
 55 41 l 1
58 41 m 1
 56 41 l 1
 56 43 l 1
 57 43 l 1
 57 42 l 1
 58 42 l 1
 58 41 l 1
59 42 m 1
 58 42 l 1
 58 43 l 1
 60 43 l 1
 60 41 l 1
 59 41 l 1
 59 42 l 1
63 37 m 1
 61 37 l 1
 61 39 l 1
 63 39 l 1
 63 37 l 1
63 41 m 1
 61 41 l 1
 61 43 l 1
 63 43 l 1
 63 41 l 1
EndSplineSet
Ligature2: "'liga' Standard Ligatures in Latin lookup 0-1" three five zero three one
LCarets2: 1 0
EndChar

StartChar: custom_3_5_0_3_2
Encoding: 10788 -1 10543
Width: 70
Flags: H
LayerCount: 2
Fore
SplineSet
17 25 m 1
 15 25 l 1
 15 27 l 1
 17 27 l 1
 17 25 l 1
17 29 m 1
 15 29 l 1
 15 31 l 1
 17 31 l 1
 17 29 l 1
17 33 m 1
 15 33 l 1
 15 35 l 1
 17 35 l 1
 17 33 l 1
23 25 m 1
 21 25 l 1
 21 27 l 1
 23 27 l 1
 23 25 l 1
26 25 m 1
 24 25 l 1
 24 27 l 1
 25 27 l 1
 25 26 l 1
 26 26 l 1
 26 25 l 1
27 26 m 1
 26 26 l 1
 26 27 l 1
 28 27 l 1
 28 25 l 1
 27 25 l 1
 27 26 l 1
31 25 m 1
 29 25 l 1
 29 27 l 1
 31 27 l 1
 31 25 l 1
23 33 m 1
 21 33 l 1
 21 35 l 1
 23 35 l 1
 23 33 l 1
25 33 m 1
 24 33 l 1
 24 35 l 1
 26 35 l 1
 26 34 l 1
 25 34 l 1
 25 33 l 1
28 33 m 1
 26 33 l 1
 26 34 l 1
 27 34 l 1
 27 35 l 1
 28 35 l 1
 28 33 l 1
31 29 m 1
 29 29 l 1
 29 31 l 1
 31 31 l 1
 31 29 l 1
36 31 m 1
 34 31 l 1
 34 33 l 1
 36 33 l 1
 36 31 l 1
31 33 m 1
 29 33 l 1
 29 35 l 1
 31 35 l 1
 31 33 l 1
36 35 m 1
 34 35 l 1
 34 37 l 1
 36 37 l 1
 36 35 l 1
17 37 m 1
 15 37 l 1
 15 39 l 1
 17 39 l 1
 17 37 l 1
17 41 m 1
 15 41 l 1
 15 43 l 1
 17 43 l 1
 17 41 l 1
23 37 m 1
 21 37 l 1
 21 39 l 1
 23 39 l 1
 23 37 l 1
23 41 m 1
 21 41 l 1
 21 43 l 1
 23 43 l 1
 23 41 l 1
26 41 m 1
 24 41 l 1
 24 43 l 1
 25 43 l 1
 25 42 l 1
 26 42 l 1
 26 41 l 1
27 42 m 1
 26 42 l 1
 26 43 l 1
 28 43 l 1
 28 41 l 1
 27 41 l 1
 27 42 l 1
31 41 m 1
 29 41 l 1
 29 43 l 1
 31 43 l 1
 31 41 l 1
41 25 m 1
 39 25 l 1
 39 27 l 1
 41 27 l 1
 41 25 l 1
44 25 m 1
 42 25 l 1
 42 27 l 1
 43 27 l 1
 43 26 l 1
 44 26 l 1
 44 25 l 1
45 26 m 1
 44 26 l 1
 44 27 l 1
 46 27 l 1
 46 25 l 1
 45 25 l 1
 45 26 l 1
49 25 m 1
 47 25 l 1
 47 27 l 1
 49 27 l 1
 49 25 l 1
41 33 m 1
 39 33 l 1
 39 35 l 1
 41 35 l 1
 41 33 l 1
43 33 m 1
 42 33 l 1
 42 35 l 1
 44 35 l 1
 44 34 l 1
 43 34 l 1
 43 33 l 1
49 29 m 1
 47 29 l 1
 47 31 l 1
 49 31 l 1
 49 29 l 1
46 33 m 1
 44 33 l 1
 44 34 l 1
 45 34 l 1
 45 35 l 1
 46 35 l 1
 46 33 l 1
49 33 m 1
 47 33 l 1
 47 35 l 1
 49 35 l 1
 49 33 l 1
55 25 m 1
 53 25 l 1
 53 27 l 1
 55 27 l 1
 55 25 l 1
58 25 m 1
 56 25 l 1
 56 27 l 1
 57 27 l 1
 57 26 l 1
 58 26 l 1
 58 25 l 1
59 26 m 1
 58 26 l 1
 58 27 l 1
 60 27 l 1
 60 25 l 1
 59 25 l 1
 59 26 l 1
63 25 m 1
 61 25 l 1
 61 27 l 1
 63 27 l 1
 63 25 l 1
55 29 m 1
 53 29 l 1
 53 31 l 1
 55 31 l 1
 55 29 l 1
55 33 m 1
 53 33 l 1
 53 35 l 1
 55 35 l 1
 55 33 l 1
57 33 m 1
 56 33 l 1
 56 35 l 1
 58 35 l 1
 58 34 l 1
 57 34 l 1
 57 33 l 1
60 33 m 1
 58 33 l 1
 58 34 l 1
 59 34 l 1
 59 35 l 1
 60 35 l 1
 60 33 l 1
63 33 m 1
 61 33 l 1
 61 35 l 1
 63 35 l 1
 63 33 l 1
41 41 m 1
 39 41 l 1
 39 43 l 1
 41 43 l 1
 41 41 l 1
44 41 m 1
 42 41 l 1
 42 43 l 1
 43 43 l 1
 43 42 l 1
 44 42 l 1
 44 41 l 1
49 37 m 1
 47 37 l 1
 47 39 l 1
 49 39 l 1
 49 37 l 1
45 42 m 1
 44 42 l 1
 44 43 l 1
 46 43 l 1
 46 41 l 1
 45 41 l 1
 45 42 l 1
49 41 m 1
 47 41 l 1
 47 43 l 1
 49 43 l 1
 49 41 l 1
55 41 m 1
 53 41 l 1
 53 43 l 1
 55 43 l 1
 55 41 l 1
58 41 m 1
 56 41 l 1
 56 43 l 1
 57 43 l 1
 57 42 l 1
 58 42 l 1
 58 41 l 1
59 42 m 1
 58 42 l 1
 58 43 l 1
 60 43 l 1
 60 41 l 1
 59 41 l 1
 59 42 l 1
63 37 m 1
 61 37 l 1
 61 39 l 1
 63 39 l 1
 63 37 l 1
63 41 m 1
 61 41 l 1
 61 43 l 1
 63 43 l 1
 63 41 l 1
EndSplineSet
Ligature2: "'liga' Standard Ligatures in Latin lookup 0-1" three five zero three two
LCarets2: 1 0
EndChar

StartChar: custom_3_5_0_3_3
Encoding: 10789 -1 10544
Width: 70
Flags: H
LayerCount: 2
Fore
SplineSet
17 25 m 1
 15 25 l 1
 15 27 l 1
 17 27 l 1
 17 25 l 1
17 29 m 1
 15 29 l 1
 15 31 l 1
 17 31 l 1
 17 29 l 1
17 33 m 1
 15 33 l 1
 15 35 l 1
 17 35 l 1
 17 33 l 1
23 25 m 1
 21 25 l 1
 21 27 l 1
 23 27 l 1
 23 25 l 1
26 25 m 1
 24 25 l 1
 24 27 l 1
 25 27 l 1
 25 26 l 1
 26 26 l 1
 26 25 l 1
27 26 m 1
 26 26 l 1
 26 27 l 1
 28 27 l 1
 28 25 l 1
 27 25 l 1
 27 26 l 1
31 25 m 1
 29 25 l 1
 29 27 l 1
 31 27 l 1
 31 25 l 1
23 33 m 1
 21 33 l 1
 21 35 l 1
 23 35 l 1
 23 33 l 1
25 33 m 1
 24 33 l 1
 24 35 l 1
 26 35 l 1
 26 34 l 1
 25 34 l 1
 25 33 l 1
28 33 m 1
 26 33 l 1
 26 34 l 1
 27 34 l 1
 27 35 l 1
 28 35 l 1
 28 33 l 1
31 29 m 1
 29 29 l 1
 29 31 l 1
 31 31 l 1
 31 29 l 1
36 31 m 1
 34 31 l 1
 34 33 l 1
 36 33 l 1
 36 31 l 1
31 33 m 1
 29 33 l 1
 29 35 l 1
 31 35 l 1
 31 33 l 1
36 35 m 1
 34 35 l 1
 34 37 l 1
 36 37 l 1
 36 35 l 1
17 37 m 1
 15 37 l 1
 15 39 l 1
 17 39 l 1
 17 37 l 1
17 41 m 1
 15 41 l 1
 15 43 l 1
 17 43 l 1
 17 41 l 1
23 37 m 1
 21 37 l 1
 21 39 l 1
 23 39 l 1
 23 37 l 1
23 41 m 1
 21 41 l 1
 21 43 l 1
 23 43 l 1
 23 41 l 1
26 41 m 1
 24 41 l 1
 24 43 l 1
 25 43 l 1
 25 42 l 1
 26 42 l 1
 26 41 l 1
27 42 m 1
 26 42 l 1
 26 43 l 1
 28 43 l 1
 28 41 l 1
 27 41 l 1
 27 42 l 1
31 41 m 1
 29 41 l 1
 29 43 l 1
 31 43 l 1
 31 41 l 1
41 25 m 1
 39 25 l 1
 39 27 l 1
 41 27 l 1
 41 25 l 1
44 25 m 1
 42 25 l 1
 42 27 l 1
 43 27 l 1
 43 26 l 1
 44 26 l 1
 44 25 l 1
45 26 m 1
 44 26 l 1
 44 27 l 1
 46 27 l 1
 46 25 l 1
 45 25 l 1
 45 26 l 1
49 25 m 1
 47 25 l 1
 47 27 l 1
 49 27 l 1
 49 25 l 1
41 33 m 1
 39 33 l 1
 39 35 l 1
 41 35 l 1
 41 33 l 1
43 33 m 1
 42 33 l 1
 42 35 l 1
 44 35 l 1
 44 34 l 1
 43 34 l 1
 43 33 l 1
49 29 m 1
 47 29 l 1
 47 31 l 1
 49 31 l 1
 49 29 l 1
46 33 m 1
 44 33 l 1
 44 34 l 1
 45 34 l 1
 45 35 l 1
 46 35 l 1
 46 33 l 1
49 33 m 1
 47 33 l 1
 47 35 l 1
 49 35 l 1
 49 33 l 1
55 25 m 1
 53 25 l 1
 53 27 l 1
 55 27 l 1
 55 25 l 1
58 25 m 1
 56 25 l 1
 56 27 l 1
 57 27 l 1
 57 26 l 1
 58 26 l 1
 58 25 l 1
59 26 m 1
 58 26 l 1
 58 27 l 1
 60 27 l 1
 60 25 l 1
 59 25 l 1
 59 26 l 1
63 25 m 1
 61 25 l 1
 61 27 l 1
 63 27 l 1
 63 25 l 1
55 29 m 1
 53 29 l 1
 53 31 l 1
 55 31 l 1
 55 29 l 1
55 33 m 1
 53 33 l 1
 53 35 l 1
 55 35 l 1
 55 33 l 1
57 33 m 1
 56 33 l 1
 56 35 l 1
 58 35 l 1
 58 34 l 1
 57 34 l 1
 57 33 l 1
60 33 m 1
 58 33 l 1
 58 34 l 1
 59 34 l 1
 59 35 l 1
 60 35 l 1
 60 33 l 1
63 33 m 1
 61 33 l 1
 61 35 l 1
 63 35 l 1
 63 33 l 1
41 41 m 1
 39 41 l 1
 39 43 l 1
 41 43 l 1
 41 41 l 1
44 41 m 1
 42 41 l 1
 42 43 l 1
 43 43 l 1
 43 42 l 1
 44 42 l 1
 44 41 l 1
49 37 m 1
 47 37 l 1
 47 39 l 1
 49 39 l 1
 49 37 l 1
45 42 m 1
 44 42 l 1
 44 43 l 1
 46 43 l 1
 46 41 l 1
 45 41 l 1
 45 42 l 1
49 41 m 1
 47 41 l 1
 47 43 l 1
 49 43 l 1
 49 41 l 1
55 41 m 1
 53 41 l 1
 53 43 l 1
 55 43 l 1
 55 41 l 1
58 41 m 1
 56 41 l 1
 56 43 l 1
 57 43 l 1
 57 42 l 1
 58 42 l 1
 58 41 l 1
59 42 m 1
 58 42 l 1
 58 43 l 1
 60 43 l 1
 60 41 l 1
 59 41 l 1
 59 42 l 1
63 37 m 1
 61 37 l 1
 61 39 l 1
 63 39 l 1
 63 37 l 1
63 41 m 1
 61 41 l 1
 61 43 l 1
 63 43 l 1
 63 41 l 1
EndSplineSet
Ligature2: "'liga' Standard Ligatures in Latin lookup 0-1" three five zero three three
LCarets2: 1 0
EndChar

StartChar: custom_3_5_0_3_4
Encoding: 10790 -1 10545
Width: 70
Flags: H
LayerCount: 2
Fore
SplineSet
17 25 m 1
 15 25 l 1
 15 27 l 1
 17 27 l 1
 17 25 l 1
17 29 m 1
 15 29 l 1
 15 31 l 1
 17 31 l 1
 17 29 l 1
17 33 m 1
 15 33 l 1
 15 35 l 1
 17 35 l 1
 17 33 l 1
23 25 m 1
 21 25 l 1
 21 27 l 1
 23 27 l 1
 23 25 l 1
26 25 m 1
 24 25 l 1
 24 27 l 1
 25 27 l 1
 25 26 l 1
 26 26 l 1
 26 25 l 1
27 26 m 1
 26 26 l 1
 26 27 l 1
 28 27 l 1
 28 25 l 1
 27 25 l 1
 27 26 l 1
31 25 m 1
 29 25 l 1
 29 27 l 1
 31 27 l 1
 31 25 l 1
23 33 m 1
 21 33 l 1
 21 35 l 1
 23 35 l 1
 23 33 l 1
25 33 m 1
 24 33 l 1
 24 35 l 1
 26 35 l 1
 26 34 l 1
 25 34 l 1
 25 33 l 1
28 33 m 1
 26 33 l 1
 26 34 l 1
 27 34 l 1
 27 35 l 1
 28 35 l 1
 28 33 l 1
31 29 m 1
 29 29 l 1
 29 31 l 1
 31 31 l 1
 31 29 l 1
36 31 m 1
 34 31 l 1
 34 33 l 1
 36 33 l 1
 36 31 l 1
31 33 m 1
 29 33 l 1
 29 35 l 1
 31 35 l 1
 31 33 l 1
36 35 m 1
 34 35 l 1
 34 37 l 1
 36 37 l 1
 36 35 l 1
17 37 m 1
 15 37 l 1
 15 39 l 1
 17 39 l 1
 17 37 l 1
17 41 m 1
 15 41 l 1
 15 43 l 1
 17 43 l 1
 17 41 l 1
23 37 m 1
 21 37 l 1
 21 39 l 1
 23 39 l 1
 23 37 l 1
23 41 m 1
 21 41 l 1
 21 43 l 1
 23 43 l 1
 23 41 l 1
26 41 m 1
 24 41 l 1
 24 43 l 1
 25 43 l 1
 25 42 l 1
 26 42 l 1
 26 41 l 1
27 42 m 1
 26 42 l 1
 26 43 l 1
 28 43 l 1
 28 41 l 1
 27 41 l 1
 27 42 l 1
31 41 m 1
 29 41 l 1
 29 43 l 1
 31 43 l 1
 31 41 l 1
41 25 m 1
 39 25 l 1
 39 27 l 1
 41 27 l 1
 41 25 l 1
44 25 m 1
 42 25 l 1
 42 27 l 1
 43 27 l 1
 43 26 l 1
 44 26 l 1
 44 25 l 1
45 26 m 1
 44 26 l 1
 44 27 l 1
 46 27 l 1
 46 25 l 1
 45 25 l 1
 45 26 l 1
49 25 m 1
 47 25 l 1
 47 27 l 1
 49 27 l 1
 49 25 l 1
41 33 m 1
 39 33 l 1
 39 35 l 1
 41 35 l 1
 41 33 l 1
43 33 m 1
 42 33 l 1
 42 35 l 1
 44 35 l 1
 44 34 l 1
 43 34 l 1
 43 33 l 1
49 29 m 1
 47 29 l 1
 47 31 l 1
 49 31 l 1
 49 29 l 1
46 33 m 1
 44 33 l 1
 44 34 l 1
 45 34 l 1
 45 35 l 1
 46 35 l 1
 46 33 l 1
49 33 m 1
 47 33 l 1
 47 35 l 1
 49 35 l 1
 49 33 l 1
55 25 m 1
 53 25 l 1
 53 27 l 1
 55 27 l 1
 55 25 l 1
58 25 m 1
 56 25 l 1
 56 27 l 1
 57 27 l 1
 57 26 l 1
 58 26 l 1
 58 25 l 1
59 26 m 1
 58 26 l 1
 58 27 l 1
 60 27 l 1
 60 25 l 1
 59 25 l 1
 59 26 l 1
63 25 m 1
 61 25 l 1
 61 27 l 1
 63 27 l 1
 63 25 l 1
55 29 m 1
 53 29 l 1
 53 31 l 1
 55 31 l 1
 55 29 l 1
55 33 m 1
 53 33 l 1
 53 35 l 1
 55 35 l 1
 55 33 l 1
57 33 m 1
 56 33 l 1
 56 35 l 1
 58 35 l 1
 58 34 l 1
 57 34 l 1
 57 33 l 1
60 33 m 1
 58 33 l 1
 58 34 l 1
 59 34 l 1
 59 35 l 1
 60 35 l 1
 60 33 l 1
63 33 m 1
 61 33 l 1
 61 35 l 1
 63 35 l 1
 63 33 l 1
41 41 m 1
 39 41 l 1
 39 43 l 1
 41 43 l 1
 41 41 l 1
44 41 m 1
 42 41 l 1
 42 43 l 1
 43 43 l 1
 43 42 l 1
 44 42 l 1
 44 41 l 1
49 37 m 1
 47 37 l 1
 47 39 l 1
 49 39 l 1
 49 37 l 1
45 42 m 1
 44 42 l 1
 44 43 l 1
 46 43 l 1
 46 41 l 1
 45 41 l 1
 45 42 l 1
49 41 m 1
 47 41 l 1
 47 43 l 1
 49 43 l 1
 49 41 l 1
55 41 m 1
 53 41 l 1
 53 43 l 1
 55 43 l 1
 55 41 l 1
58 41 m 1
 56 41 l 1
 56 43 l 1
 57 43 l 1
 57 42 l 1
 58 42 l 1
 58 41 l 1
59 42 m 1
 58 42 l 1
 58 43 l 1
 60 43 l 1
 60 41 l 1
 59 41 l 1
 59 42 l 1
63 37 m 1
 61 37 l 1
 61 39 l 1
 63 39 l 1
 63 37 l 1
63 41 m 1
 61 41 l 1
 61 43 l 1
 63 43 l 1
 63 41 l 1
EndSplineSet
Ligature2: "'liga' Standard Ligatures in Latin lookup 0-1" three five zero three four
LCarets2: 1 0
EndChar

StartChar: custom_3_5_0_3_5
Encoding: 10791 -1 10546
Width: 70
Flags: H
LayerCount: 2
Fore
SplineSet
17 25 m 1
 15 25 l 1
 15 27 l 1
 17 27 l 1
 17 25 l 1
17 29 m 1
 15 29 l 1
 15 31 l 1
 17 31 l 1
 17 29 l 1
17 33 m 1
 15 33 l 1
 15 35 l 1
 17 35 l 1
 17 33 l 1
23 25 m 1
 21 25 l 1
 21 27 l 1
 23 27 l 1
 23 25 l 1
26 25 m 1
 24 25 l 1
 24 27 l 1
 25 27 l 1
 25 26 l 1
 26 26 l 1
 26 25 l 1
27 26 m 1
 26 26 l 1
 26 27 l 1
 28 27 l 1
 28 25 l 1
 27 25 l 1
 27 26 l 1
31 25 m 1
 29 25 l 1
 29 27 l 1
 31 27 l 1
 31 25 l 1
23 33 m 1
 21 33 l 1
 21 35 l 1
 23 35 l 1
 23 33 l 1
25 33 m 1
 24 33 l 1
 24 35 l 1
 26 35 l 1
 26 34 l 1
 25 34 l 1
 25 33 l 1
28 33 m 1
 26 33 l 1
 26 34 l 1
 27 34 l 1
 27 35 l 1
 28 35 l 1
 28 33 l 1
31 29 m 1
 29 29 l 1
 29 31 l 1
 31 31 l 1
 31 29 l 1
36 31 m 1
 34 31 l 1
 34 33 l 1
 36 33 l 1
 36 31 l 1
31 33 m 1
 29 33 l 1
 29 35 l 1
 31 35 l 1
 31 33 l 1
36 35 m 1
 34 35 l 1
 34 37 l 1
 36 37 l 1
 36 35 l 1
17 37 m 1
 15 37 l 1
 15 39 l 1
 17 39 l 1
 17 37 l 1
17 41 m 1
 15 41 l 1
 15 43 l 1
 17 43 l 1
 17 41 l 1
23 37 m 1
 21 37 l 1
 21 39 l 1
 23 39 l 1
 23 37 l 1
23 41 m 1
 21 41 l 1
 21 43 l 1
 23 43 l 1
 23 41 l 1
26 41 m 1
 24 41 l 1
 24 43 l 1
 25 43 l 1
 25 42 l 1
 26 42 l 1
 26 41 l 1
27 42 m 1
 26 42 l 1
 26 43 l 1
 28 43 l 1
 28 41 l 1
 27 41 l 1
 27 42 l 1
31 41 m 1
 29 41 l 1
 29 43 l 1
 31 43 l 1
 31 41 l 1
41 25 m 1
 39 25 l 1
 39 27 l 1
 41 27 l 1
 41 25 l 1
44 25 m 1
 42 25 l 1
 42 27 l 1
 43 27 l 1
 43 26 l 1
 44 26 l 1
 44 25 l 1
45 26 m 1
 44 26 l 1
 44 27 l 1
 46 27 l 1
 46 25 l 1
 45 25 l 1
 45 26 l 1
49 25 m 1
 47 25 l 1
 47 27 l 1
 49 27 l 1
 49 25 l 1
41 33 m 1
 39 33 l 1
 39 35 l 1
 41 35 l 1
 41 33 l 1
43 33 m 1
 42 33 l 1
 42 35 l 1
 44 35 l 1
 44 34 l 1
 43 34 l 1
 43 33 l 1
49 29 m 1
 47 29 l 1
 47 31 l 1
 49 31 l 1
 49 29 l 1
46 33 m 1
 44 33 l 1
 44 34 l 1
 45 34 l 1
 45 35 l 1
 46 35 l 1
 46 33 l 1
49 33 m 1
 47 33 l 1
 47 35 l 1
 49 35 l 1
 49 33 l 1
55 25 m 1
 53 25 l 1
 53 27 l 1
 55 27 l 1
 55 25 l 1
58 25 m 1
 56 25 l 1
 56 27 l 1
 57 27 l 1
 57 26 l 1
 58 26 l 1
 58 25 l 1
59 26 m 1
 58 26 l 1
 58 27 l 1
 60 27 l 1
 60 25 l 1
 59 25 l 1
 59 26 l 1
63 25 m 1
 61 25 l 1
 61 27 l 1
 63 27 l 1
 63 25 l 1
55 29 m 1
 53 29 l 1
 53 31 l 1
 55 31 l 1
 55 29 l 1
55 33 m 1
 53 33 l 1
 53 35 l 1
 55 35 l 1
 55 33 l 1
57 33 m 1
 56 33 l 1
 56 35 l 1
 58 35 l 1
 58 34 l 1
 57 34 l 1
 57 33 l 1
60 33 m 1
 58 33 l 1
 58 34 l 1
 59 34 l 1
 59 35 l 1
 60 35 l 1
 60 33 l 1
63 33 m 1
 61 33 l 1
 61 35 l 1
 63 35 l 1
 63 33 l 1
41 41 m 1
 39 41 l 1
 39 43 l 1
 41 43 l 1
 41 41 l 1
44 41 m 1
 42 41 l 1
 42 43 l 1
 43 43 l 1
 43 42 l 1
 44 42 l 1
 44 41 l 1
49 37 m 1
 47 37 l 1
 47 39 l 1
 49 39 l 1
 49 37 l 1
45 42 m 1
 44 42 l 1
 44 43 l 1
 46 43 l 1
 46 41 l 1
 45 41 l 1
 45 42 l 1
49 41 m 1
 47 41 l 1
 47 43 l 1
 49 43 l 1
 49 41 l 1
55 41 m 1
 53 41 l 1
 53 43 l 1
 55 43 l 1
 55 41 l 1
58 41 m 1
 56 41 l 1
 56 43 l 1
 57 43 l 1
 57 42 l 1
 58 42 l 1
 58 41 l 1
59 42 m 1
 58 42 l 1
 58 43 l 1
 60 43 l 1
 60 41 l 1
 59 41 l 1
 59 42 l 1
63 37 m 1
 61 37 l 1
 61 39 l 1
 63 39 l 1
 63 37 l 1
63 41 m 1
 61 41 l 1
 61 43 l 1
 63 43 l 1
 63 41 l 1
EndSplineSet
Ligature2: "'liga' Standard Ligatures in Latin lookup 0-1" three five zero three five
LCarets2: 1 0
EndChar

StartChar: custom_3_5_0_3_6
Encoding: 10792 -1 10547
Width: 70
Flags: H
LayerCount: 2
Fore
SplineSet
17 25 m 1
 15 25 l 1
 15 27 l 1
 17 27 l 1
 17 25 l 1
17 29 m 1
 15 29 l 1
 15 31 l 1
 17 31 l 1
 17 29 l 1
17 33 m 1
 15 33 l 1
 15 35 l 1
 17 35 l 1
 17 33 l 1
23 25 m 1
 21 25 l 1
 21 27 l 1
 23 27 l 1
 23 25 l 1
26 25 m 1
 24 25 l 1
 24 27 l 1
 25 27 l 1
 25 26 l 1
 26 26 l 1
 26 25 l 1
27 26 m 1
 26 26 l 1
 26 27 l 1
 28 27 l 1
 28 25 l 1
 27 25 l 1
 27 26 l 1
31 25 m 1
 29 25 l 1
 29 27 l 1
 31 27 l 1
 31 25 l 1
23 33 m 1
 21 33 l 1
 21 35 l 1
 23 35 l 1
 23 33 l 1
25 33 m 1
 24 33 l 1
 24 35 l 1
 26 35 l 1
 26 34 l 1
 25 34 l 1
 25 33 l 1
28 33 m 1
 26 33 l 1
 26 34 l 1
 27 34 l 1
 27 35 l 1
 28 35 l 1
 28 33 l 1
31 29 m 1
 29 29 l 1
 29 31 l 1
 31 31 l 1
 31 29 l 1
36 31 m 1
 34 31 l 1
 34 33 l 1
 36 33 l 1
 36 31 l 1
31 33 m 1
 29 33 l 1
 29 35 l 1
 31 35 l 1
 31 33 l 1
36 35 m 1
 34 35 l 1
 34 37 l 1
 36 37 l 1
 36 35 l 1
17 37 m 1
 15 37 l 1
 15 39 l 1
 17 39 l 1
 17 37 l 1
17 41 m 1
 15 41 l 1
 15 43 l 1
 17 43 l 1
 17 41 l 1
23 37 m 1
 21 37 l 1
 21 39 l 1
 23 39 l 1
 23 37 l 1
23 41 m 1
 21 41 l 1
 21 43 l 1
 23 43 l 1
 23 41 l 1
26 41 m 1
 24 41 l 1
 24 43 l 1
 25 43 l 1
 25 42 l 1
 26 42 l 1
 26 41 l 1
27 42 m 1
 26 42 l 1
 26 43 l 1
 28 43 l 1
 28 41 l 1
 27 41 l 1
 27 42 l 1
31 41 m 1
 29 41 l 1
 29 43 l 1
 31 43 l 1
 31 41 l 1
41 25 m 1
 39 25 l 1
 39 27 l 1
 41 27 l 1
 41 25 l 1
44 25 m 1
 42 25 l 1
 42 27 l 1
 43 27 l 1
 43 26 l 1
 44 26 l 1
 44 25 l 1
45 26 m 1
 44 26 l 1
 44 27 l 1
 46 27 l 1
 46 25 l 1
 45 25 l 1
 45 26 l 1
49 25 m 1
 47 25 l 1
 47 27 l 1
 49 27 l 1
 49 25 l 1
41 33 m 1
 39 33 l 1
 39 35 l 1
 41 35 l 1
 41 33 l 1
43 33 m 1
 42 33 l 1
 42 35 l 1
 44 35 l 1
 44 34 l 1
 43 34 l 1
 43 33 l 1
49 29 m 1
 47 29 l 1
 47 31 l 1
 49 31 l 1
 49 29 l 1
46 33 m 1
 44 33 l 1
 44 34 l 1
 45 34 l 1
 45 35 l 1
 46 35 l 1
 46 33 l 1
49 33 m 1
 47 33 l 1
 47 35 l 1
 49 35 l 1
 49 33 l 1
55 25 m 1
 53 25 l 1
 53 27 l 1
 55 27 l 1
 55 25 l 1
58 25 m 1
 56 25 l 1
 56 27 l 1
 57 27 l 1
 57 26 l 1
 58 26 l 1
 58 25 l 1
59 26 m 1
 58 26 l 1
 58 27 l 1
 60 27 l 1
 60 25 l 1
 59 25 l 1
 59 26 l 1
63 25 m 1
 61 25 l 1
 61 27 l 1
 63 27 l 1
 63 25 l 1
55 29 m 1
 53 29 l 1
 53 31 l 1
 55 31 l 1
 55 29 l 1
55 33 m 1
 53 33 l 1
 53 35 l 1
 55 35 l 1
 55 33 l 1
57 33 m 1
 56 33 l 1
 56 35 l 1
 58 35 l 1
 58 34 l 1
 57 34 l 1
 57 33 l 1
60 33 m 1
 58 33 l 1
 58 34 l 1
 59 34 l 1
 59 35 l 1
 60 35 l 1
 60 33 l 1
63 33 m 1
 61 33 l 1
 61 35 l 1
 63 35 l 1
 63 33 l 1
41 41 m 1
 39 41 l 1
 39 43 l 1
 41 43 l 1
 41 41 l 1
44 41 m 1
 42 41 l 1
 42 43 l 1
 43 43 l 1
 43 42 l 1
 44 42 l 1
 44 41 l 1
49 37 m 1
 47 37 l 1
 47 39 l 1
 49 39 l 1
 49 37 l 1
45 42 m 1
 44 42 l 1
 44 43 l 1
 46 43 l 1
 46 41 l 1
 45 41 l 1
 45 42 l 1
49 41 m 1
 47 41 l 1
 47 43 l 1
 49 43 l 1
 49 41 l 1
55 41 m 1
 53 41 l 1
 53 43 l 1
 55 43 l 1
 55 41 l 1
58 41 m 1
 56 41 l 1
 56 43 l 1
 57 43 l 1
 57 42 l 1
 58 42 l 1
 58 41 l 1
59 42 m 1
 58 42 l 1
 58 43 l 1
 60 43 l 1
 60 41 l 1
 59 41 l 1
 59 42 l 1
63 37 m 1
 61 37 l 1
 61 39 l 1
 63 39 l 1
 63 37 l 1
63 41 m 1
 61 41 l 1
 61 43 l 1
 63 43 l 1
 63 41 l 1
EndSplineSet
Ligature2: "'liga' Standard Ligatures in Latin lookup 0-1" three five zero three six
LCarets2: 1 0
EndChar

StartChar: custom_3_5_0_3_7
Encoding: 10793 -1 10548
Width: 70
Flags: H
LayerCount: 2
Fore
SplineSet
17 25 m 1
 15 25 l 1
 15 27 l 1
 17 27 l 1
 17 25 l 1
17 29 m 1
 15 29 l 1
 15 31 l 1
 17 31 l 1
 17 29 l 1
17 33 m 1
 15 33 l 1
 15 35 l 1
 17 35 l 1
 17 33 l 1
23 25 m 1
 21 25 l 1
 21 27 l 1
 23 27 l 1
 23 25 l 1
26 25 m 1
 24 25 l 1
 24 27 l 1
 25 27 l 1
 25 26 l 1
 26 26 l 1
 26 25 l 1
27 26 m 1
 26 26 l 1
 26 27 l 1
 28 27 l 1
 28 25 l 1
 27 25 l 1
 27 26 l 1
31 25 m 1
 29 25 l 1
 29 27 l 1
 31 27 l 1
 31 25 l 1
23 33 m 1
 21 33 l 1
 21 35 l 1
 23 35 l 1
 23 33 l 1
25 33 m 1
 24 33 l 1
 24 35 l 1
 26 35 l 1
 26 34 l 1
 25 34 l 1
 25 33 l 1
28 33 m 1
 26 33 l 1
 26 34 l 1
 27 34 l 1
 27 35 l 1
 28 35 l 1
 28 33 l 1
31 29 m 1
 29 29 l 1
 29 31 l 1
 31 31 l 1
 31 29 l 1
36 31 m 1
 34 31 l 1
 34 33 l 1
 36 33 l 1
 36 31 l 1
31 33 m 1
 29 33 l 1
 29 35 l 1
 31 35 l 1
 31 33 l 1
36 35 m 1
 34 35 l 1
 34 37 l 1
 36 37 l 1
 36 35 l 1
17 37 m 1
 15 37 l 1
 15 39 l 1
 17 39 l 1
 17 37 l 1
17 41 m 1
 15 41 l 1
 15 43 l 1
 17 43 l 1
 17 41 l 1
23 37 m 1
 21 37 l 1
 21 39 l 1
 23 39 l 1
 23 37 l 1
23 41 m 1
 21 41 l 1
 21 43 l 1
 23 43 l 1
 23 41 l 1
26 41 m 1
 24 41 l 1
 24 43 l 1
 25 43 l 1
 25 42 l 1
 26 42 l 1
 26 41 l 1
27 42 m 1
 26 42 l 1
 26 43 l 1
 28 43 l 1
 28 41 l 1
 27 41 l 1
 27 42 l 1
31 41 m 1
 29 41 l 1
 29 43 l 1
 31 43 l 1
 31 41 l 1
41 25 m 1
 39 25 l 1
 39 27 l 1
 41 27 l 1
 41 25 l 1
44 25 m 1
 42 25 l 1
 42 27 l 1
 43 27 l 1
 43 26 l 1
 44 26 l 1
 44 25 l 1
45 26 m 1
 44 26 l 1
 44 27 l 1
 46 27 l 1
 46 25 l 1
 45 25 l 1
 45 26 l 1
49 25 m 1
 47 25 l 1
 47 27 l 1
 49 27 l 1
 49 25 l 1
41 33 m 1
 39 33 l 1
 39 35 l 1
 41 35 l 1
 41 33 l 1
43 33 m 1
 42 33 l 1
 42 35 l 1
 44 35 l 1
 44 34 l 1
 43 34 l 1
 43 33 l 1
49 29 m 1
 47 29 l 1
 47 31 l 1
 49 31 l 1
 49 29 l 1
46 33 m 1
 44 33 l 1
 44 34 l 1
 45 34 l 1
 45 35 l 1
 46 35 l 1
 46 33 l 1
49 33 m 1
 47 33 l 1
 47 35 l 1
 49 35 l 1
 49 33 l 1
55 25 m 1
 53 25 l 1
 53 27 l 1
 55 27 l 1
 55 25 l 1
58 25 m 1
 56 25 l 1
 56 27 l 1
 57 27 l 1
 57 26 l 1
 58 26 l 1
 58 25 l 1
59 26 m 1
 58 26 l 1
 58 27 l 1
 60 27 l 1
 60 25 l 1
 59 25 l 1
 59 26 l 1
63 25 m 1
 61 25 l 1
 61 27 l 1
 63 27 l 1
 63 25 l 1
55 29 m 1
 53 29 l 1
 53 31 l 1
 55 31 l 1
 55 29 l 1
55 33 m 1
 53 33 l 1
 53 35 l 1
 55 35 l 1
 55 33 l 1
57 33 m 1
 56 33 l 1
 56 35 l 1
 58 35 l 1
 58 34 l 1
 57 34 l 1
 57 33 l 1
60 33 m 1
 58 33 l 1
 58 34 l 1
 59 34 l 1
 59 35 l 1
 60 35 l 1
 60 33 l 1
63 33 m 1
 61 33 l 1
 61 35 l 1
 63 35 l 1
 63 33 l 1
41 41 m 1
 39 41 l 1
 39 43 l 1
 41 43 l 1
 41 41 l 1
44 41 m 1
 42 41 l 1
 42 43 l 1
 43 43 l 1
 43 42 l 1
 44 42 l 1
 44 41 l 1
49 37 m 1
 47 37 l 1
 47 39 l 1
 49 39 l 1
 49 37 l 1
45 42 m 1
 44 42 l 1
 44 43 l 1
 46 43 l 1
 46 41 l 1
 45 41 l 1
 45 42 l 1
49 41 m 1
 47 41 l 1
 47 43 l 1
 49 43 l 1
 49 41 l 1
55 41 m 1
 53 41 l 1
 53 43 l 1
 55 43 l 1
 55 41 l 1
58 41 m 1
 56 41 l 1
 56 43 l 1
 57 43 l 1
 57 42 l 1
 58 42 l 1
 58 41 l 1
59 42 m 1
 58 42 l 1
 58 43 l 1
 60 43 l 1
 60 41 l 1
 59 41 l 1
 59 42 l 1
63 37 m 1
 61 37 l 1
 61 39 l 1
 63 39 l 1
 63 37 l 1
63 41 m 1
 61 41 l 1
 61 43 l 1
 63 43 l 1
 63 41 l 1
EndSplineSet
Ligature2: "'liga' Standard Ligatures in Latin lookup 0-1" three five zero three seven
LCarets2: 1 0
EndChar

StartChar: custom_3_5_0_3_8
Encoding: 10794 -1 10549
Width: 70
Flags: H
LayerCount: 2
Fore
SplineSet
17 25 m 1
 15 25 l 1
 15 27 l 1
 17 27 l 1
 17 25 l 1
17 29 m 1
 15 29 l 1
 15 31 l 1
 17 31 l 1
 17 29 l 1
17 33 m 1
 15 33 l 1
 15 35 l 1
 17 35 l 1
 17 33 l 1
23 25 m 1
 21 25 l 1
 21 27 l 1
 23 27 l 1
 23 25 l 1
26 25 m 1
 24 25 l 1
 24 27 l 1
 25 27 l 1
 25 26 l 1
 26 26 l 1
 26 25 l 1
27 26 m 1
 26 26 l 1
 26 27 l 1
 28 27 l 1
 28 25 l 1
 27 25 l 1
 27 26 l 1
31 25 m 1
 29 25 l 1
 29 27 l 1
 31 27 l 1
 31 25 l 1
23 33 m 1
 21 33 l 1
 21 35 l 1
 23 35 l 1
 23 33 l 1
25 33 m 1
 24 33 l 1
 24 35 l 1
 26 35 l 1
 26 34 l 1
 25 34 l 1
 25 33 l 1
28 33 m 1
 26 33 l 1
 26 34 l 1
 27 34 l 1
 27 35 l 1
 28 35 l 1
 28 33 l 1
31 29 m 1
 29 29 l 1
 29 31 l 1
 31 31 l 1
 31 29 l 1
36 31 m 1
 34 31 l 1
 34 33 l 1
 36 33 l 1
 36 31 l 1
31 33 m 1
 29 33 l 1
 29 35 l 1
 31 35 l 1
 31 33 l 1
36 35 m 1
 34 35 l 1
 34 37 l 1
 36 37 l 1
 36 35 l 1
17 37 m 1
 15 37 l 1
 15 39 l 1
 17 39 l 1
 17 37 l 1
17 41 m 1
 15 41 l 1
 15 43 l 1
 17 43 l 1
 17 41 l 1
23 37 m 1
 21 37 l 1
 21 39 l 1
 23 39 l 1
 23 37 l 1
23 41 m 1
 21 41 l 1
 21 43 l 1
 23 43 l 1
 23 41 l 1
26 41 m 1
 24 41 l 1
 24 43 l 1
 25 43 l 1
 25 42 l 1
 26 42 l 1
 26 41 l 1
27 42 m 1
 26 42 l 1
 26 43 l 1
 28 43 l 1
 28 41 l 1
 27 41 l 1
 27 42 l 1
31 41 m 1
 29 41 l 1
 29 43 l 1
 31 43 l 1
 31 41 l 1
41 25 m 1
 39 25 l 1
 39 27 l 1
 41 27 l 1
 41 25 l 1
44 25 m 1
 42 25 l 1
 42 27 l 1
 43 27 l 1
 43 26 l 1
 44 26 l 1
 44 25 l 1
45 26 m 1
 44 26 l 1
 44 27 l 1
 46 27 l 1
 46 25 l 1
 45 25 l 1
 45 26 l 1
49 25 m 1
 47 25 l 1
 47 27 l 1
 49 27 l 1
 49 25 l 1
41 33 m 1
 39 33 l 1
 39 35 l 1
 41 35 l 1
 41 33 l 1
43 33 m 1
 42 33 l 1
 42 35 l 1
 44 35 l 1
 44 34 l 1
 43 34 l 1
 43 33 l 1
49 29 m 1
 47 29 l 1
 47 31 l 1
 49 31 l 1
 49 29 l 1
46 33 m 1
 44 33 l 1
 44 34 l 1
 45 34 l 1
 45 35 l 1
 46 35 l 1
 46 33 l 1
49 33 m 1
 47 33 l 1
 47 35 l 1
 49 35 l 1
 49 33 l 1
55 25 m 1
 53 25 l 1
 53 27 l 1
 55 27 l 1
 55 25 l 1
58 25 m 1
 56 25 l 1
 56 27 l 1
 57 27 l 1
 57 26 l 1
 58 26 l 1
 58 25 l 1
59 26 m 1
 58 26 l 1
 58 27 l 1
 60 27 l 1
 60 25 l 1
 59 25 l 1
 59 26 l 1
63 25 m 1
 61 25 l 1
 61 27 l 1
 63 27 l 1
 63 25 l 1
55 29 m 1
 53 29 l 1
 53 31 l 1
 55 31 l 1
 55 29 l 1
55 33 m 1
 53 33 l 1
 53 35 l 1
 55 35 l 1
 55 33 l 1
57 33 m 1
 56 33 l 1
 56 35 l 1
 58 35 l 1
 58 34 l 1
 57 34 l 1
 57 33 l 1
60 33 m 1
 58 33 l 1
 58 34 l 1
 59 34 l 1
 59 35 l 1
 60 35 l 1
 60 33 l 1
63 33 m 1
 61 33 l 1
 61 35 l 1
 63 35 l 1
 63 33 l 1
41 41 m 1
 39 41 l 1
 39 43 l 1
 41 43 l 1
 41 41 l 1
44 41 m 1
 42 41 l 1
 42 43 l 1
 43 43 l 1
 43 42 l 1
 44 42 l 1
 44 41 l 1
49 37 m 1
 47 37 l 1
 47 39 l 1
 49 39 l 1
 49 37 l 1
45 42 m 1
 44 42 l 1
 44 43 l 1
 46 43 l 1
 46 41 l 1
 45 41 l 1
 45 42 l 1
49 41 m 1
 47 41 l 1
 47 43 l 1
 49 43 l 1
 49 41 l 1
55 41 m 1
 53 41 l 1
 53 43 l 1
 55 43 l 1
 55 41 l 1
58 41 m 1
 56 41 l 1
 56 43 l 1
 57 43 l 1
 57 42 l 1
 58 42 l 1
 58 41 l 1
59 42 m 1
 58 42 l 1
 58 43 l 1
 60 43 l 1
 60 41 l 1
 59 41 l 1
 59 42 l 1
63 37 m 1
 61 37 l 1
 61 39 l 1
 63 39 l 1
 63 37 l 1
63 41 m 1
 61 41 l 1
 61 43 l 1
 63 43 l 1
 63 41 l 1
EndSplineSet
Ligature2: "'liga' Standard Ligatures in Latin lookup 0-1" three five zero three eight
LCarets2: 1 0
EndChar

StartChar: custom_3_5_0_3_9
Encoding: 10795 -1 10550
Width: 70
Flags: H
LayerCount: 2
Fore
SplineSet
17 25 m 1
 15 25 l 1
 15 27 l 1
 17 27 l 1
 17 25 l 1
17 29 m 1
 15 29 l 1
 15 31 l 1
 17 31 l 1
 17 29 l 1
17 33 m 1
 15 33 l 1
 15 35 l 1
 17 35 l 1
 17 33 l 1
23 25 m 1
 21 25 l 1
 21 27 l 1
 23 27 l 1
 23 25 l 1
26 25 m 1
 24 25 l 1
 24 27 l 1
 25 27 l 1
 25 26 l 1
 26 26 l 1
 26 25 l 1
27 26 m 1
 26 26 l 1
 26 27 l 1
 28 27 l 1
 28 25 l 1
 27 25 l 1
 27 26 l 1
31 25 m 1
 29 25 l 1
 29 27 l 1
 31 27 l 1
 31 25 l 1
23 33 m 1
 21 33 l 1
 21 35 l 1
 23 35 l 1
 23 33 l 1
25 33 m 1
 24 33 l 1
 24 35 l 1
 26 35 l 1
 26 34 l 1
 25 34 l 1
 25 33 l 1
28 33 m 1
 26 33 l 1
 26 34 l 1
 27 34 l 1
 27 35 l 1
 28 35 l 1
 28 33 l 1
31 29 m 1
 29 29 l 1
 29 31 l 1
 31 31 l 1
 31 29 l 1
36 31 m 1
 34 31 l 1
 34 33 l 1
 36 33 l 1
 36 31 l 1
31 33 m 1
 29 33 l 1
 29 35 l 1
 31 35 l 1
 31 33 l 1
36 35 m 1
 34 35 l 1
 34 37 l 1
 36 37 l 1
 36 35 l 1
17 37 m 1
 15 37 l 1
 15 39 l 1
 17 39 l 1
 17 37 l 1
17 41 m 1
 15 41 l 1
 15 43 l 1
 17 43 l 1
 17 41 l 1
23 37 m 1
 21 37 l 1
 21 39 l 1
 23 39 l 1
 23 37 l 1
23 41 m 1
 21 41 l 1
 21 43 l 1
 23 43 l 1
 23 41 l 1
26 41 m 1
 24 41 l 1
 24 43 l 1
 25 43 l 1
 25 42 l 1
 26 42 l 1
 26 41 l 1
27 42 m 1
 26 42 l 1
 26 43 l 1
 28 43 l 1
 28 41 l 1
 27 41 l 1
 27 42 l 1
31 41 m 1
 29 41 l 1
 29 43 l 1
 31 43 l 1
 31 41 l 1
41 25 m 1
 39 25 l 1
 39 27 l 1
 41 27 l 1
 41 25 l 1
44 25 m 1
 42 25 l 1
 42 27 l 1
 43 27 l 1
 43 26 l 1
 44 26 l 1
 44 25 l 1
45 26 m 1
 44 26 l 1
 44 27 l 1
 46 27 l 1
 46 25 l 1
 45 25 l 1
 45 26 l 1
49 25 m 1
 47 25 l 1
 47 27 l 1
 49 27 l 1
 49 25 l 1
41 33 m 1
 39 33 l 1
 39 35 l 1
 41 35 l 1
 41 33 l 1
43 33 m 1
 42 33 l 1
 42 35 l 1
 44 35 l 1
 44 34 l 1
 43 34 l 1
 43 33 l 1
49 29 m 1
 47 29 l 1
 47 31 l 1
 49 31 l 1
 49 29 l 1
46 33 m 1
 44 33 l 1
 44 34 l 1
 45 34 l 1
 45 35 l 1
 46 35 l 1
 46 33 l 1
49 33 m 1
 47 33 l 1
 47 35 l 1
 49 35 l 1
 49 33 l 1
55 25 m 1
 53 25 l 1
 53 27 l 1
 55 27 l 1
 55 25 l 1
58 25 m 1
 56 25 l 1
 56 27 l 1
 57 27 l 1
 57 26 l 1
 58 26 l 1
 58 25 l 1
59 26 m 1
 58 26 l 1
 58 27 l 1
 60 27 l 1
 60 25 l 1
 59 25 l 1
 59 26 l 1
63 25 m 1
 61 25 l 1
 61 27 l 1
 63 27 l 1
 63 25 l 1
55 29 m 1
 53 29 l 1
 53 31 l 1
 55 31 l 1
 55 29 l 1
55 33 m 1
 53 33 l 1
 53 35 l 1
 55 35 l 1
 55 33 l 1
57 33 m 1
 56 33 l 1
 56 35 l 1
 58 35 l 1
 58 34 l 1
 57 34 l 1
 57 33 l 1
60 33 m 1
 58 33 l 1
 58 34 l 1
 59 34 l 1
 59 35 l 1
 60 35 l 1
 60 33 l 1
63 33 m 1
 61 33 l 1
 61 35 l 1
 63 35 l 1
 63 33 l 1
41 41 m 1
 39 41 l 1
 39 43 l 1
 41 43 l 1
 41 41 l 1
44 41 m 1
 42 41 l 1
 42 43 l 1
 43 43 l 1
 43 42 l 1
 44 42 l 1
 44 41 l 1
49 37 m 1
 47 37 l 1
 47 39 l 1
 49 39 l 1
 49 37 l 1
45 42 m 1
 44 42 l 1
 44 43 l 1
 46 43 l 1
 46 41 l 1
 45 41 l 1
 45 42 l 1
49 41 m 1
 47 41 l 1
 47 43 l 1
 49 43 l 1
 49 41 l 1
55 41 m 1
 53 41 l 1
 53 43 l 1
 55 43 l 1
 55 41 l 1
58 41 m 1
 56 41 l 1
 56 43 l 1
 57 43 l 1
 57 42 l 1
 58 42 l 1
 58 41 l 1
59 42 m 1
 58 42 l 1
 58 43 l 1
 60 43 l 1
 60 41 l 1
 59 41 l 1
 59 42 l 1
63 37 m 1
 61 37 l 1
 61 39 l 1
 63 39 l 1
 63 37 l 1
63 41 m 1
 61 41 l 1
 61 43 l 1
 63 43 l 1
 63 41 l 1
EndSplineSet
Ligature2: "'liga' Standard Ligatures in Latin lookup 0-1" three five zero three nine
LCarets2: 1 0
EndChar

StartChar: custom_3_5_0_4_0
Encoding: 10796 -1 10551
Width: 70
Flags: H
LayerCount: 2
Fore
SplineSet
17 25 m 1
 15 25 l 1
 15 27 l 1
 17 27 l 1
 17 25 l 1
17 29 m 1
 15 29 l 1
 15 31 l 1
 17 31 l 1
 17 29 l 1
17 33 m 1
 15 33 l 1
 15 35 l 1
 17 35 l 1
 17 33 l 1
23 25 m 1
 21 25 l 1
 21 27 l 1
 23 27 l 1
 23 25 l 1
26 25 m 1
 24 25 l 1
 24 27 l 1
 25 27 l 1
 25 26 l 1
 26 26 l 1
 26 25 l 1
27 26 m 1
 26 26 l 1
 26 27 l 1
 28 27 l 1
 28 25 l 1
 27 25 l 1
 27 26 l 1
31 25 m 1
 29 25 l 1
 29 27 l 1
 31 27 l 1
 31 25 l 1
23 33 m 1
 21 33 l 1
 21 35 l 1
 23 35 l 1
 23 33 l 1
25 33 m 1
 24 33 l 1
 24 35 l 1
 26 35 l 1
 26 34 l 1
 25 34 l 1
 25 33 l 1
28 33 m 1
 26 33 l 1
 26 34 l 1
 27 34 l 1
 27 35 l 1
 28 35 l 1
 28 33 l 1
31 29 m 1
 29 29 l 1
 29 31 l 1
 31 31 l 1
 31 29 l 1
36 31 m 1
 34 31 l 1
 34 33 l 1
 36 33 l 1
 36 31 l 1
31 33 m 1
 29 33 l 1
 29 35 l 1
 31 35 l 1
 31 33 l 1
36 35 m 1
 34 35 l 1
 34 37 l 1
 36 37 l 1
 36 35 l 1
17 37 m 1
 15 37 l 1
 15 39 l 1
 17 39 l 1
 17 37 l 1
17 41 m 1
 15 41 l 1
 15 43 l 1
 17 43 l 1
 17 41 l 1
23 37 m 1
 21 37 l 1
 21 39 l 1
 23 39 l 1
 23 37 l 1
23 41 m 1
 21 41 l 1
 21 43 l 1
 23 43 l 1
 23 41 l 1
26 41 m 1
 24 41 l 1
 24 43 l 1
 25 43 l 1
 25 42 l 1
 26 42 l 1
 26 41 l 1
27 42 m 1
 26 42 l 1
 26 43 l 1
 28 43 l 1
 28 41 l 1
 27 41 l 1
 27 42 l 1
31 41 m 1
 29 41 l 1
 29 43 l 1
 31 43 l 1
 31 41 l 1
41 25 m 1
 39 25 l 1
 39 27 l 1
 41 27 l 1
 41 25 l 1
44 25 m 1
 42 25 l 1
 42 27 l 1
 43 27 l 1
 43 26 l 1
 44 26 l 1
 44 25 l 1
45 26 m 1
 44 26 l 1
 44 27 l 1
 46 27 l 1
 46 25 l 1
 45 25 l 1
 45 26 l 1
49 25 m 1
 47 25 l 1
 47 27 l 1
 49 27 l 1
 49 25 l 1
41 33 m 1
 39 33 l 1
 39 35 l 1
 41 35 l 1
 41 33 l 1
43 33 m 1
 42 33 l 1
 42 35 l 1
 44 35 l 1
 44 34 l 1
 43 34 l 1
 43 33 l 1
49 29 m 1
 47 29 l 1
 47 31 l 1
 49 31 l 1
 49 29 l 1
46 33 m 1
 44 33 l 1
 44 34 l 1
 45 34 l 1
 45 35 l 1
 46 35 l 1
 46 33 l 1
49 33 m 1
 47 33 l 1
 47 35 l 1
 49 35 l 1
 49 33 l 1
55 25 m 1
 53 25 l 1
 53 27 l 1
 55 27 l 1
 55 25 l 1
58 25 m 1
 56 25 l 1
 56 27 l 1
 57 27 l 1
 57 26 l 1
 58 26 l 1
 58 25 l 1
59 26 m 1
 58 26 l 1
 58 27 l 1
 60 27 l 1
 60 25 l 1
 59 25 l 1
 59 26 l 1
63 25 m 1
 61 25 l 1
 61 27 l 1
 63 27 l 1
 63 25 l 1
55 29 m 1
 53 29 l 1
 53 31 l 1
 55 31 l 1
 55 29 l 1
55 33 m 1
 53 33 l 1
 53 35 l 1
 55 35 l 1
 55 33 l 1
57 33 m 1
 56 33 l 1
 56 35 l 1
 58 35 l 1
 58 34 l 1
 57 34 l 1
 57 33 l 1
60 33 m 1
 58 33 l 1
 58 34 l 1
 59 34 l 1
 59 35 l 1
 60 35 l 1
 60 33 l 1
63 33 m 1
 61 33 l 1
 61 35 l 1
 63 35 l 1
 63 33 l 1
41 41 m 1
 39 41 l 1
 39 43 l 1
 41 43 l 1
 41 41 l 1
44 41 m 1
 42 41 l 1
 42 43 l 1
 43 43 l 1
 43 42 l 1
 44 42 l 1
 44 41 l 1
49 37 m 1
 47 37 l 1
 47 39 l 1
 49 39 l 1
 49 37 l 1
45 42 m 1
 44 42 l 1
 44 43 l 1
 46 43 l 1
 46 41 l 1
 45 41 l 1
 45 42 l 1
49 41 m 1
 47 41 l 1
 47 43 l 1
 49 43 l 1
 49 41 l 1
55 41 m 1
 53 41 l 1
 53 43 l 1
 55 43 l 1
 55 41 l 1
58 41 m 1
 56 41 l 1
 56 43 l 1
 57 43 l 1
 57 42 l 1
 58 42 l 1
 58 41 l 1
59 42 m 1
 58 42 l 1
 58 43 l 1
 60 43 l 1
 60 41 l 1
 59 41 l 1
 59 42 l 1
63 37 m 1
 61 37 l 1
 61 39 l 1
 63 39 l 1
 63 37 l 1
63 41 m 1
 61 41 l 1
 61 43 l 1
 63 43 l 1
 63 41 l 1
EndSplineSet
Ligature2: "'liga' Standard Ligatures in Latin lookup 0-1" three five zero four zero
LCarets2: 1 0
EndChar

StartChar: custom_3_5_0_4_1
Encoding: 10797 -1 10552
Width: 70
Flags: H
LayerCount: 2
Fore
SplineSet
17 25 m 1
 15 25 l 1
 15 27 l 1
 17 27 l 1
 17 25 l 1
17 29 m 1
 15 29 l 1
 15 31 l 1
 17 31 l 1
 17 29 l 1
17 33 m 1
 15 33 l 1
 15 35 l 1
 17 35 l 1
 17 33 l 1
23 25 m 1
 21 25 l 1
 21 27 l 1
 23 27 l 1
 23 25 l 1
26 25 m 1
 24 25 l 1
 24 27 l 1
 25 27 l 1
 25 26 l 1
 26 26 l 1
 26 25 l 1
27 26 m 1
 26 26 l 1
 26 27 l 1
 28 27 l 1
 28 25 l 1
 27 25 l 1
 27 26 l 1
31 25 m 1
 29 25 l 1
 29 27 l 1
 31 27 l 1
 31 25 l 1
23 33 m 1
 21 33 l 1
 21 35 l 1
 23 35 l 1
 23 33 l 1
25 33 m 1
 24 33 l 1
 24 35 l 1
 26 35 l 1
 26 34 l 1
 25 34 l 1
 25 33 l 1
28 33 m 1
 26 33 l 1
 26 34 l 1
 27 34 l 1
 27 35 l 1
 28 35 l 1
 28 33 l 1
31 29 m 1
 29 29 l 1
 29 31 l 1
 31 31 l 1
 31 29 l 1
36 31 m 1
 34 31 l 1
 34 33 l 1
 36 33 l 1
 36 31 l 1
31 33 m 1
 29 33 l 1
 29 35 l 1
 31 35 l 1
 31 33 l 1
36 35 m 1
 34 35 l 1
 34 37 l 1
 36 37 l 1
 36 35 l 1
17 37 m 1
 15 37 l 1
 15 39 l 1
 17 39 l 1
 17 37 l 1
17 41 m 1
 15 41 l 1
 15 43 l 1
 17 43 l 1
 17 41 l 1
23 37 m 1
 21 37 l 1
 21 39 l 1
 23 39 l 1
 23 37 l 1
23 41 m 1
 21 41 l 1
 21 43 l 1
 23 43 l 1
 23 41 l 1
26 41 m 1
 24 41 l 1
 24 43 l 1
 25 43 l 1
 25 42 l 1
 26 42 l 1
 26 41 l 1
27 42 m 1
 26 42 l 1
 26 43 l 1
 28 43 l 1
 28 41 l 1
 27 41 l 1
 27 42 l 1
31 41 m 1
 29 41 l 1
 29 43 l 1
 31 43 l 1
 31 41 l 1
41 25 m 1
 39 25 l 1
 39 27 l 1
 41 27 l 1
 41 25 l 1
44 25 m 1
 42 25 l 1
 42 27 l 1
 43 27 l 1
 43 26 l 1
 44 26 l 1
 44 25 l 1
45 26 m 1
 44 26 l 1
 44 27 l 1
 46 27 l 1
 46 25 l 1
 45 25 l 1
 45 26 l 1
49 25 m 1
 47 25 l 1
 47 27 l 1
 49 27 l 1
 49 25 l 1
41 33 m 1
 39 33 l 1
 39 35 l 1
 41 35 l 1
 41 33 l 1
43 33 m 1
 42 33 l 1
 42 35 l 1
 44 35 l 1
 44 34 l 1
 43 34 l 1
 43 33 l 1
49 29 m 1
 47 29 l 1
 47 31 l 1
 49 31 l 1
 49 29 l 1
46 33 m 1
 44 33 l 1
 44 34 l 1
 45 34 l 1
 45 35 l 1
 46 35 l 1
 46 33 l 1
49 33 m 1
 47 33 l 1
 47 35 l 1
 49 35 l 1
 49 33 l 1
55 25 m 1
 53 25 l 1
 53 27 l 1
 55 27 l 1
 55 25 l 1
58 25 m 1
 56 25 l 1
 56 27 l 1
 57 27 l 1
 57 26 l 1
 58 26 l 1
 58 25 l 1
59 26 m 1
 58 26 l 1
 58 27 l 1
 60 27 l 1
 60 25 l 1
 59 25 l 1
 59 26 l 1
63 25 m 1
 61 25 l 1
 61 27 l 1
 63 27 l 1
 63 25 l 1
55 29 m 1
 53 29 l 1
 53 31 l 1
 55 31 l 1
 55 29 l 1
55 33 m 1
 53 33 l 1
 53 35 l 1
 55 35 l 1
 55 33 l 1
57 33 m 1
 56 33 l 1
 56 35 l 1
 58 35 l 1
 58 34 l 1
 57 34 l 1
 57 33 l 1
60 33 m 1
 58 33 l 1
 58 34 l 1
 59 34 l 1
 59 35 l 1
 60 35 l 1
 60 33 l 1
63 33 m 1
 61 33 l 1
 61 35 l 1
 63 35 l 1
 63 33 l 1
41 41 m 1
 39 41 l 1
 39 43 l 1
 41 43 l 1
 41 41 l 1
44 41 m 1
 42 41 l 1
 42 43 l 1
 43 43 l 1
 43 42 l 1
 44 42 l 1
 44 41 l 1
49 37 m 1
 47 37 l 1
 47 39 l 1
 49 39 l 1
 49 37 l 1
45 42 m 1
 44 42 l 1
 44 43 l 1
 46 43 l 1
 46 41 l 1
 45 41 l 1
 45 42 l 1
49 41 m 1
 47 41 l 1
 47 43 l 1
 49 43 l 1
 49 41 l 1
55 41 m 1
 53 41 l 1
 53 43 l 1
 55 43 l 1
 55 41 l 1
58 41 m 1
 56 41 l 1
 56 43 l 1
 57 43 l 1
 57 42 l 1
 58 42 l 1
 58 41 l 1
59 42 m 1
 58 42 l 1
 58 43 l 1
 60 43 l 1
 60 41 l 1
 59 41 l 1
 59 42 l 1
63 37 m 1
 61 37 l 1
 61 39 l 1
 63 39 l 1
 63 37 l 1
63 41 m 1
 61 41 l 1
 61 43 l 1
 63 43 l 1
 63 41 l 1
EndSplineSet
Ligature2: "'liga' Standard Ligatures in Latin lookup 0-1" three five zero four one
LCarets2: 1 0
EndChar

StartChar: custom_3_5_0_4_2
Encoding: 10798 -1 10553
Width: 70
Flags: H
LayerCount: 2
Fore
SplineSet
17 25 m 1
 15 25 l 1
 15 27 l 1
 17 27 l 1
 17 25 l 1
17 29 m 1
 15 29 l 1
 15 31 l 1
 17 31 l 1
 17 29 l 1
17 33 m 1
 15 33 l 1
 15 35 l 1
 17 35 l 1
 17 33 l 1
23 25 m 1
 21 25 l 1
 21 27 l 1
 23 27 l 1
 23 25 l 1
26 25 m 1
 24 25 l 1
 24 27 l 1
 25 27 l 1
 25 26 l 1
 26 26 l 1
 26 25 l 1
27 26 m 1
 26 26 l 1
 26 27 l 1
 28 27 l 1
 28 25 l 1
 27 25 l 1
 27 26 l 1
31 25 m 1
 29 25 l 1
 29 27 l 1
 31 27 l 1
 31 25 l 1
23 33 m 1
 21 33 l 1
 21 35 l 1
 23 35 l 1
 23 33 l 1
25 33 m 1
 24 33 l 1
 24 35 l 1
 26 35 l 1
 26 34 l 1
 25 34 l 1
 25 33 l 1
28 33 m 1
 26 33 l 1
 26 34 l 1
 27 34 l 1
 27 35 l 1
 28 35 l 1
 28 33 l 1
31 29 m 1
 29 29 l 1
 29 31 l 1
 31 31 l 1
 31 29 l 1
36 31 m 1
 34 31 l 1
 34 33 l 1
 36 33 l 1
 36 31 l 1
31 33 m 1
 29 33 l 1
 29 35 l 1
 31 35 l 1
 31 33 l 1
36 35 m 1
 34 35 l 1
 34 37 l 1
 36 37 l 1
 36 35 l 1
17 37 m 1
 15 37 l 1
 15 39 l 1
 17 39 l 1
 17 37 l 1
17 41 m 1
 15 41 l 1
 15 43 l 1
 17 43 l 1
 17 41 l 1
23 37 m 1
 21 37 l 1
 21 39 l 1
 23 39 l 1
 23 37 l 1
23 41 m 1
 21 41 l 1
 21 43 l 1
 23 43 l 1
 23 41 l 1
26 41 m 1
 24 41 l 1
 24 43 l 1
 25 43 l 1
 25 42 l 1
 26 42 l 1
 26 41 l 1
27 42 m 1
 26 42 l 1
 26 43 l 1
 28 43 l 1
 28 41 l 1
 27 41 l 1
 27 42 l 1
31 41 m 1
 29 41 l 1
 29 43 l 1
 31 43 l 1
 31 41 l 1
41 25 m 1
 39 25 l 1
 39 27 l 1
 41 27 l 1
 41 25 l 1
44 25 m 1
 42 25 l 1
 42 27 l 1
 43 27 l 1
 43 26 l 1
 44 26 l 1
 44 25 l 1
45 26 m 1
 44 26 l 1
 44 27 l 1
 46 27 l 1
 46 25 l 1
 45 25 l 1
 45 26 l 1
49 25 m 1
 47 25 l 1
 47 27 l 1
 49 27 l 1
 49 25 l 1
41 33 m 1
 39 33 l 1
 39 35 l 1
 41 35 l 1
 41 33 l 1
43 33 m 1
 42 33 l 1
 42 35 l 1
 44 35 l 1
 44 34 l 1
 43 34 l 1
 43 33 l 1
49 29 m 1
 47 29 l 1
 47 31 l 1
 49 31 l 1
 49 29 l 1
46 33 m 1
 44 33 l 1
 44 34 l 1
 45 34 l 1
 45 35 l 1
 46 35 l 1
 46 33 l 1
49 33 m 1
 47 33 l 1
 47 35 l 1
 49 35 l 1
 49 33 l 1
55 25 m 1
 53 25 l 1
 53 27 l 1
 55 27 l 1
 55 25 l 1
58 25 m 1
 56 25 l 1
 56 27 l 1
 57 27 l 1
 57 26 l 1
 58 26 l 1
 58 25 l 1
59 26 m 1
 58 26 l 1
 58 27 l 1
 60 27 l 1
 60 25 l 1
 59 25 l 1
 59 26 l 1
63 25 m 1
 61 25 l 1
 61 27 l 1
 63 27 l 1
 63 25 l 1
55 29 m 1
 53 29 l 1
 53 31 l 1
 55 31 l 1
 55 29 l 1
55 33 m 1
 53 33 l 1
 53 35 l 1
 55 35 l 1
 55 33 l 1
57 33 m 1
 56 33 l 1
 56 35 l 1
 58 35 l 1
 58 34 l 1
 57 34 l 1
 57 33 l 1
60 33 m 1
 58 33 l 1
 58 34 l 1
 59 34 l 1
 59 35 l 1
 60 35 l 1
 60 33 l 1
63 33 m 1
 61 33 l 1
 61 35 l 1
 63 35 l 1
 63 33 l 1
41 41 m 1
 39 41 l 1
 39 43 l 1
 41 43 l 1
 41 41 l 1
44 41 m 1
 42 41 l 1
 42 43 l 1
 43 43 l 1
 43 42 l 1
 44 42 l 1
 44 41 l 1
49 37 m 1
 47 37 l 1
 47 39 l 1
 49 39 l 1
 49 37 l 1
45 42 m 1
 44 42 l 1
 44 43 l 1
 46 43 l 1
 46 41 l 1
 45 41 l 1
 45 42 l 1
49 41 m 1
 47 41 l 1
 47 43 l 1
 49 43 l 1
 49 41 l 1
55 41 m 1
 53 41 l 1
 53 43 l 1
 55 43 l 1
 55 41 l 1
58 41 m 1
 56 41 l 1
 56 43 l 1
 57 43 l 1
 57 42 l 1
 58 42 l 1
 58 41 l 1
59 42 m 1
 58 42 l 1
 58 43 l 1
 60 43 l 1
 60 41 l 1
 59 41 l 1
 59 42 l 1
63 37 m 1
 61 37 l 1
 61 39 l 1
 63 39 l 1
 63 37 l 1
63 41 m 1
 61 41 l 1
 61 43 l 1
 63 43 l 1
 63 41 l 1
EndSplineSet
Ligature2: "'liga' Standard Ligatures in Latin lookup 0-1" three five zero four two
LCarets2: 1 0
EndChar

StartChar: custom_3_5_0_4_3
Encoding: 10799 -1 10554
Width: 70
Flags: H
LayerCount: 2
Fore
SplineSet
17 25 m 1
 15 25 l 1
 15 27 l 1
 17 27 l 1
 17 25 l 1
17 29 m 1
 15 29 l 1
 15 31 l 1
 17 31 l 1
 17 29 l 1
17 33 m 1
 15 33 l 1
 15 35 l 1
 17 35 l 1
 17 33 l 1
23 25 m 1
 21 25 l 1
 21 27 l 1
 23 27 l 1
 23 25 l 1
26 25 m 1
 24 25 l 1
 24 27 l 1
 25 27 l 1
 25 26 l 1
 26 26 l 1
 26 25 l 1
27 26 m 1
 26 26 l 1
 26 27 l 1
 28 27 l 1
 28 25 l 1
 27 25 l 1
 27 26 l 1
31 25 m 1
 29 25 l 1
 29 27 l 1
 31 27 l 1
 31 25 l 1
23 33 m 1
 21 33 l 1
 21 35 l 1
 23 35 l 1
 23 33 l 1
25 33 m 1
 24 33 l 1
 24 35 l 1
 26 35 l 1
 26 34 l 1
 25 34 l 1
 25 33 l 1
28 33 m 1
 26 33 l 1
 26 34 l 1
 27 34 l 1
 27 35 l 1
 28 35 l 1
 28 33 l 1
31 29 m 1
 29 29 l 1
 29 31 l 1
 31 31 l 1
 31 29 l 1
36 31 m 1
 34 31 l 1
 34 33 l 1
 36 33 l 1
 36 31 l 1
31 33 m 1
 29 33 l 1
 29 35 l 1
 31 35 l 1
 31 33 l 1
36 35 m 1
 34 35 l 1
 34 37 l 1
 36 37 l 1
 36 35 l 1
17 37 m 1
 15 37 l 1
 15 39 l 1
 17 39 l 1
 17 37 l 1
17 41 m 1
 15 41 l 1
 15 43 l 1
 17 43 l 1
 17 41 l 1
23 37 m 1
 21 37 l 1
 21 39 l 1
 23 39 l 1
 23 37 l 1
23 41 m 1
 21 41 l 1
 21 43 l 1
 23 43 l 1
 23 41 l 1
26 41 m 1
 24 41 l 1
 24 43 l 1
 25 43 l 1
 25 42 l 1
 26 42 l 1
 26 41 l 1
27 42 m 1
 26 42 l 1
 26 43 l 1
 28 43 l 1
 28 41 l 1
 27 41 l 1
 27 42 l 1
31 41 m 1
 29 41 l 1
 29 43 l 1
 31 43 l 1
 31 41 l 1
41 25 m 1
 39 25 l 1
 39 27 l 1
 41 27 l 1
 41 25 l 1
44 25 m 1
 42 25 l 1
 42 27 l 1
 43 27 l 1
 43 26 l 1
 44 26 l 1
 44 25 l 1
45 26 m 1
 44 26 l 1
 44 27 l 1
 46 27 l 1
 46 25 l 1
 45 25 l 1
 45 26 l 1
49 25 m 1
 47 25 l 1
 47 27 l 1
 49 27 l 1
 49 25 l 1
41 33 m 1
 39 33 l 1
 39 35 l 1
 41 35 l 1
 41 33 l 1
43 33 m 1
 42 33 l 1
 42 35 l 1
 44 35 l 1
 44 34 l 1
 43 34 l 1
 43 33 l 1
49 29 m 1
 47 29 l 1
 47 31 l 1
 49 31 l 1
 49 29 l 1
46 33 m 1
 44 33 l 1
 44 34 l 1
 45 34 l 1
 45 35 l 1
 46 35 l 1
 46 33 l 1
49 33 m 1
 47 33 l 1
 47 35 l 1
 49 35 l 1
 49 33 l 1
55 25 m 1
 53 25 l 1
 53 27 l 1
 55 27 l 1
 55 25 l 1
58 25 m 1
 56 25 l 1
 56 27 l 1
 57 27 l 1
 57 26 l 1
 58 26 l 1
 58 25 l 1
59 26 m 1
 58 26 l 1
 58 27 l 1
 60 27 l 1
 60 25 l 1
 59 25 l 1
 59 26 l 1
63 25 m 1
 61 25 l 1
 61 27 l 1
 63 27 l 1
 63 25 l 1
55 29 m 1
 53 29 l 1
 53 31 l 1
 55 31 l 1
 55 29 l 1
55 33 m 1
 53 33 l 1
 53 35 l 1
 55 35 l 1
 55 33 l 1
57 33 m 1
 56 33 l 1
 56 35 l 1
 58 35 l 1
 58 34 l 1
 57 34 l 1
 57 33 l 1
60 33 m 1
 58 33 l 1
 58 34 l 1
 59 34 l 1
 59 35 l 1
 60 35 l 1
 60 33 l 1
63 33 m 1
 61 33 l 1
 61 35 l 1
 63 35 l 1
 63 33 l 1
41 41 m 1
 39 41 l 1
 39 43 l 1
 41 43 l 1
 41 41 l 1
44 41 m 1
 42 41 l 1
 42 43 l 1
 43 43 l 1
 43 42 l 1
 44 42 l 1
 44 41 l 1
49 37 m 1
 47 37 l 1
 47 39 l 1
 49 39 l 1
 49 37 l 1
45 42 m 1
 44 42 l 1
 44 43 l 1
 46 43 l 1
 46 41 l 1
 45 41 l 1
 45 42 l 1
49 41 m 1
 47 41 l 1
 47 43 l 1
 49 43 l 1
 49 41 l 1
55 41 m 1
 53 41 l 1
 53 43 l 1
 55 43 l 1
 55 41 l 1
58 41 m 1
 56 41 l 1
 56 43 l 1
 57 43 l 1
 57 42 l 1
 58 42 l 1
 58 41 l 1
59 42 m 1
 58 42 l 1
 58 43 l 1
 60 43 l 1
 60 41 l 1
 59 41 l 1
 59 42 l 1
63 37 m 1
 61 37 l 1
 61 39 l 1
 63 39 l 1
 63 37 l 1
63 41 m 1
 61 41 l 1
 61 43 l 1
 63 43 l 1
 63 41 l 1
EndSplineSet
Ligature2: "'liga' Standard Ligatures in Latin lookup 0-1" three five zero four three
LCarets2: 1 0
EndChar

StartChar: custom_3_5_0_4_4
Encoding: 10800 -1 10555
Width: 70
Flags: H
LayerCount: 2
Fore
SplineSet
17 25 m 1
 15 25 l 1
 15 27 l 1
 17 27 l 1
 17 25 l 1
17 29 m 1
 15 29 l 1
 15 31 l 1
 17 31 l 1
 17 29 l 1
17 33 m 1
 15 33 l 1
 15 35 l 1
 17 35 l 1
 17 33 l 1
23 25 m 1
 21 25 l 1
 21 27 l 1
 23 27 l 1
 23 25 l 1
26 25 m 1
 24 25 l 1
 24 27 l 1
 25 27 l 1
 25 26 l 1
 26 26 l 1
 26 25 l 1
27 26 m 1
 26 26 l 1
 26 27 l 1
 28 27 l 1
 28 25 l 1
 27 25 l 1
 27 26 l 1
31 25 m 1
 29 25 l 1
 29 27 l 1
 31 27 l 1
 31 25 l 1
23 33 m 1
 21 33 l 1
 21 35 l 1
 23 35 l 1
 23 33 l 1
25 33 m 1
 24 33 l 1
 24 35 l 1
 26 35 l 1
 26 34 l 1
 25 34 l 1
 25 33 l 1
28 33 m 1
 26 33 l 1
 26 34 l 1
 27 34 l 1
 27 35 l 1
 28 35 l 1
 28 33 l 1
31 29 m 1
 29 29 l 1
 29 31 l 1
 31 31 l 1
 31 29 l 1
36 31 m 1
 34 31 l 1
 34 33 l 1
 36 33 l 1
 36 31 l 1
31 33 m 1
 29 33 l 1
 29 35 l 1
 31 35 l 1
 31 33 l 1
36 35 m 1
 34 35 l 1
 34 37 l 1
 36 37 l 1
 36 35 l 1
17 37 m 1
 15 37 l 1
 15 39 l 1
 17 39 l 1
 17 37 l 1
17 41 m 1
 15 41 l 1
 15 43 l 1
 17 43 l 1
 17 41 l 1
23 37 m 1
 21 37 l 1
 21 39 l 1
 23 39 l 1
 23 37 l 1
23 41 m 1
 21 41 l 1
 21 43 l 1
 23 43 l 1
 23 41 l 1
26 41 m 1
 24 41 l 1
 24 43 l 1
 25 43 l 1
 25 42 l 1
 26 42 l 1
 26 41 l 1
27 42 m 1
 26 42 l 1
 26 43 l 1
 28 43 l 1
 28 41 l 1
 27 41 l 1
 27 42 l 1
31 41 m 1
 29 41 l 1
 29 43 l 1
 31 43 l 1
 31 41 l 1
41 25 m 1
 39 25 l 1
 39 27 l 1
 41 27 l 1
 41 25 l 1
44 25 m 1
 42 25 l 1
 42 27 l 1
 43 27 l 1
 43 26 l 1
 44 26 l 1
 44 25 l 1
45 26 m 1
 44 26 l 1
 44 27 l 1
 46 27 l 1
 46 25 l 1
 45 25 l 1
 45 26 l 1
49 25 m 1
 47 25 l 1
 47 27 l 1
 49 27 l 1
 49 25 l 1
41 33 m 1
 39 33 l 1
 39 35 l 1
 41 35 l 1
 41 33 l 1
43 33 m 1
 42 33 l 1
 42 35 l 1
 44 35 l 1
 44 34 l 1
 43 34 l 1
 43 33 l 1
49 29 m 1
 47 29 l 1
 47 31 l 1
 49 31 l 1
 49 29 l 1
46 33 m 1
 44 33 l 1
 44 34 l 1
 45 34 l 1
 45 35 l 1
 46 35 l 1
 46 33 l 1
49 33 m 1
 47 33 l 1
 47 35 l 1
 49 35 l 1
 49 33 l 1
55 25 m 1
 53 25 l 1
 53 27 l 1
 55 27 l 1
 55 25 l 1
58 25 m 1
 56 25 l 1
 56 27 l 1
 57 27 l 1
 57 26 l 1
 58 26 l 1
 58 25 l 1
59 26 m 1
 58 26 l 1
 58 27 l 1
 60 27 l 1
 60 25 l 1
 59 25 l 1
 59 26 l 1
63 25 m 1
 61 25 l 1
 61 27 l 1
 63 27 l 1
 63 25 l 1
55 29 m 1
 53 29 l 1
 53 31 l 1
 55 31 l 1
 55 29 l 1
55 33 m 1
 53 33 l 1
 53 35 l 1
 55 35 l 1
 55 33 l 1
57 33 m 1
 56 33 l 1
 56 35 l 1
 58 35 l 1
 58 34 l 1
 57 34 l 1
 57 33 l 1
60 33 m 1
 58 33 l 1
 58 34 l 1
 59 34 l 1
 59 35 l 1
 60 35 l 1
 60 33 l 1
63 33 m 1
 61 33 l 1
 61 35 l 1
 63 35 l 1
 63 33 l 1
41 41 m 1
 39 41 l 1
 39 43 l 1
 41 43 l 1
 41 41 l 1
44 41 m 1
 42 41 l 1
 42 43 l 1
 43 43 l 1
 43 42 l 1
 44 42 l 1
 44 41 l 1
49 37 m 1
 47 37 l 1
 47 39 l 1
 49 39 l 1
 49 37 l 1
45 42 m 1
 44 42 l 1
 44 43 l 1
 46 43 l 1
 46 41 l 1
 45 41 l 1
 45 42 l 1
49 41 m 1
 47 41 l 1
 47 43 l 1
 49 43 l 1
 49 41 l 1
55 41 m 1
 53 41 l 1
 53 43 l 1
 55 43 l 1
 55 41 l 1
58 41 m 1
 56 41 l 1
 56 43 l 1
 57 43 l 1
 57 42 l 1
 58 42 l 1
 58 41 l 1
59 42 m 1
 58 42 l 1
 58 43 l 1
 60 43 l 1
 60 41 l 1
 59 41 l 1
 59 42 l 1
63 37 m 1
 61 37 l 1
 61 39 l 1
 63 39 l 1
 63 37 l 1
63 41 m 1
 61 41 l 1
 61 43 l 1
 63 43 l 1
 63 41 l 1
EndSplineSet
Ligature2: "'liga' Standard Ligatures in Latin lookup 0-1" three five zero four four
LCarets2: 1 0
EndChar

StartChar: custom_3_5_0_4_5
Encoding: 10801 -1 10556
Width: 70
Flags: H
LayerCount: 2
Fore
SplineSet
17 25 m 1
 15 25 l 1
 15 27 l 1
 17 27 l 1
 17 25 l 1
17 29 m 1
 15 29 l 1
 15 31 l 1
 17 31 l 1
 17 29 l 1
17 33 m 1
 15 33 l 1
 15 35 l 1
 17 35 l 1
 17 33 l 1
23 25 m 1
 21 25 l 1
 21 27 l 1
 23 27 l 1
 23 25 l 1
26 25 m 1
 24 25 l 1
 24 27 l 1
 25 27 l 1
 25 26 l 1
 26 26 l 1
 26 25 l 1
27 26 m 1
 26 26 l 1
 26 27 l 1
 28 27 l 1
 28 25 l 1
 27 25 l 1
 27 26 l 1
31 25 m 1
 29 25 l 1
 29 27 l 1
 31 27 l 1
 31 25 l 1
23 33 m 1
 21 33 l 1
 21 35 l 1
 23 35 l 1
 23 33 l 1
25 33 m 1
 24 33 l 1
 24 35 l 1
 26 35 l 1
 26 34 l 1
 25 34 l 1
 25 33 l 1
28 33 m 1
 26 33 l 1
 26 34 l 1
 27 34 l 1
 27 35 l 1
 28 35 l 1
 28 33 l 1
31 29 m 1
 29 29 l 1
 29 31 l 1
 31 31 l 1
 31 29 l 1
36 31 m 1
 34 31 l 1
 34 33 l 1
 36 33 l 1
 36 31 l 1
31 33 m 1
 29 33 l 1
 29 35 l 1
 31 35 l 1
 31 33 l 1
36 35 m 1
 34 35 l 1
 34 37 l 1
 36 37 l 1
 36 35 l 1
17 37 m 1
 15 37 l 1
 15 39 l 1
 17 39 l 1
 17 37 l 1
17 41 m 1
 15 41 l 1
 15 43 l 1
 17 43 l 1
 17 41 l 1
23 37 m 1
 21 37 l 1
 21 39 l 1
 23 39 l 1
 23 37 l 1
23 41 m 1
 21 41 l 1
 21 43 l 1
 23 43 l 1
 23 41 l 1
26 41 m 1
 24 41 l 1
 24 43 l 1
 25 43 l 1
 25 42 l 1
 26 42 l 1
 26 41 l 1
27 42 m 1
 26 42 l 1
 26 43 l 1
 28 43 l 1
 28 41 l 1
 27 41 l 1
 27 42 l 1
31 41 m 1
 29 41 l 1
 29 43 l 1
 31 43 l 1
 31 41 l 1
41 25 m 1
 39 25 l 1
 39 27 l 1
 41 27 l 1
 41 25 l 1
44 25 m 1
 42 25 l 1
 42 27 l 1
 43 27 l 1
 43 26 l 1
 44 26 l 1
 44 25 l 1
45 26 m 1
 44 26 l 1
 44 27 l 1
 46 27 l 1
 46 25 l 1
 45 25 l 1
 45 26 l 1
49 25 m 1
 47 25 l 1
 47 27 l 1
 49 27 l 1
 49 25 l 1
41 33 m 1
 39 33 l 1
 39 35 l 1
 41 35 l 1
 41 33 l 1
43 33 m 1
 42 33 l 1
 42 35 l 1
 44 35 l 1
 44 34 l 1
 43 34 l 1
 43 33 l 1
49 29 m 1
 47 29 l 1
 47 31 l 1
 49 31 l 1
 49 29 l 1
46 33 m 1
 44 33 l 1
 44 34 l 1
 45 34 l 1
 45 35 l 1
 46 35 l 1
 46 33 l 1
49 33 m 1
 47 33 l 1
 47 35 l 1
 49 35 l 1
 49 33 l 1
55 25 m 1
 53 25 l 1
 53 27 l 1
 55 27 l 1
 55 25 l 1
58 25 m 1
 56 25 l 1
 56 27 l 1
 57 27 l 1
 57 26 l 1
 58 26 l 1
 58 25 l 1
59 26 m 1
 58 26 l 1
 58 27 l 1
 60 27 l 1
 60 25 l 1
 59 25 l 1
 59 26 l 1
63 25 m 1
 61 25 l 1
 61 27 l 1
 63 27 l 1
 63 25 l 1
55 29 m 1
 53 29 l 1
 53 31 l 1
 55 31 l 1
 55 29 l 1
55 33 m 1
 53 33 l 1
 53 35 l 1
 55 35 l 1
 55 33 l 1
57 33 m 1
 56 33 l 1
 56 35 l 1
 58 35 l 1
 58 34 l 1
 57 34 l 1
 57 33 l 1
60 33 m 1
 58 33 l 1
 58 34 l 1
 59 34 l 1
 59 35 l 1
 60 35 l 1
 60 33 l 1
63 33 m 1
 61 33 l 1
 61 35 l 1
 63 35 l 1
 63 33 l 1
41 41 m 1
 39 41 l 1
 39 43 l 1
 41 43 l 1
 41 41 l 1
44 41 m 1
 42 41 l 1
 42 43 l 1
 43 43 l 1
 43 42 l 1
 44 42 l 1
 44 41 l 1
49 37 m 1
 47 37 l 1
 47 39 l 1
 49 39 l 1
 49 37 l 1
45 42 m 1
 44 42 l 1
 44 43 l 1
 46 43 l 1
 46 41 l 1
 45 41 l 1
 45 42 l 1
49 41 m 1
 47 41 l 1
 47 43 l 1
 49 43 l 1
 49 41 l 1
55 41 m 1
 53 41 l 1
 53 43 l 1
 55 43 l 1
 55 41 l 1
58 41 m 1
 56 41 l 1
 56 43 l 1
 57 43 l 1
 57 42 l 1
 58 42 l 1
 58 41 l 1
59 42 m 1
 58 42 l 1
 58 43 l 1
 60 43 l 1
 60 41 l 1
 59 41 l 1
 59 42 l 1
63 37 m 1
 61 37 l 1
 61 39 l 1
 63 39 l 1
 63 37 l 1
63 41 m 1
 61 41 l 1
 61 43 l 1
 63 43 l 1
 63 41 l 1
EndSplineSet
Ligature2: "'liga' Standard Ligatures in Latin lookup 0-1" three five zero four five
LCarets2: 1 0
EndChar

StartChar: custom_3_5_0_4_6
Encoding: 10802 -1 10557
Width: 70
Flags: H
LayerCount: 2
Fore
SplineSet
17 25 m 1
 15 25 l 1
 15 27 l 1
 17 27 l 1
 17 25 l 1
17 29 m 1
 15 29 l 1
 15 31 l 1
 17 31 l 1
 17 29 l 1
17 33 m 1
 15 33 l 1
 15 35 l 1
 17 35 l 1
 17 33 l 1
23 25 m 1
 21 25 l 1
 21 27 l 1
 23 27 l 1
 23 25 l 1
26 25 m 1
 24 25 l 1
 24 27 l 1
 25 27 l 1
 25 26 l 1
 26 26 l 1
 26 25 l 1
27 26 m 1
 26 26 l 1
 26 27 l 1
 28 27 l 1
 28 25 l 1
 27 25 l 1
 27 26 l 1
31 25 m 1
 29 25 l 1
 29 27 l 1
 31 27 l 1
 31 25 l 1
23 33 m 1
 21 33 l 1
 21 35 l 1
 23 35 l 1
 23 33 l 1
25 33 m 1
 24 33 l 1
 24 35 l 1
 26 35 l 1
 26 34 l 1
 25 34 l 1
 25 33 l 1
28 33 m 1
 26 33 l 1
 26 34 l 1
 27 34 l 1
 27 35 l 1
 28 35 l 1
 28 33 l 1
31 29 m 1
 29 29 l 1
 29 31 l 1
 31 31 l 1
 31 29 l 1
36 31 m 1
 34 31 l 1
 34 33 l 1
 36 33 l 1
 36 31 l 1
31 33 m 1
 29 33 l 1
 29 35 l 1
 31 35 l 1
 31 33 l 1
36 35 m 1
 34 35 l 1
 34 37 l 1
 36 37 l 1
 36 35 l 1
17 37 m 1
 15 37 l 1
 15 39 l 1
 17 39 l 1
 17 37 l 1
17 41 m 1
 15 41 l 1
 15 43 l 1
 17 43 l 1
 17 41 l 1
23 37 m 1
 21 37 l 1
 21 39 l 1
 23 39 l 1
 23 37 l 1
23 41 m 1
 21 41 l 1
 21 43 l 1
 23 43 l 1
 23 41 l 1
26 41 m 1
 24 41 l 1
 24 43 l 1
 25 43 l 1
 25 42 l 1
 26 42 l 1
 26 41 l 1
27 42 m 1
 26 42 l 1
 26 43 l 1
 28 43 l 1
 28 41 l 1
 27 41 l 1
 27 42 l 1
31 41 m 1
 29 41 l 1
 29 43 l 1
 31 43 l 1
 31 41 l 1
41 25 m 1
 39 25 l 1
 39 27 l 1
 41 27 l 1
 41 25 l 1
44 25 m 1
 42 25 l 1
 42 27 l 1
 43 27 l 1
 43 26 l 1
 44 26 l 1
 44 25 l 1
45 26 m 1
 44 26 l 1
 44 27 l 1
 46 27 l 1
 46 25 l 1
 45 25 l 1
 45 26 l 1
49 25 m 1
 47 25 l 1
 47 27 l 1
 49 27 l 1
 49 25 l 1
41 33 m 1
 39 33 l 1
 39 35 l 1
 41 35 l 1
 41 33 l 1
43 33 m 1
 42 33 l 1
 42 35 l 1
 44 35 l 1
 44 34 l 1
 43 34 l 1
 43 33 l 1
49 29 m 1
 47 29 l 1
 47 31 l 1
 49 31 l 1
 49 29 l 1
46 33 m 1
 44 33 l 1
 44 34 l 1
 45 34 l 1
 45 35 l 1
 46 35 l 1
 46 33 l 1
49 33 m 1
 47 33 l 1
 47 35 l 1
 49 35 l 1
 49 33 l 1
55 25 m 1
 53 25 l 1
 53 27 l 1
 55 27 l 1
 55 25 l 1
58 25 m 1
 56 25 l 1
 56 27 l 1
 57 27 l 1
 57 26 l 1
 58 26 l 1
 58 25 l 1
59 26 m 1
 58 26 l 1
 58 27 l 1
 60 27 l 1
 60 25 l 1
 59 25 l 1
 59 26 l 1
63 25 m 1
 61 25 l 1
 61 27 l 1
 63 27 l 1
 63 25 l 1
55 29 m 1
 53 29 l 1
 53 31 l 1
 55 31 l 1
 55 29 l 1
55 33 m 1
 53 33 l 1
 53 35 l 1
 55 35 l 1
 55 33 l 1
57 33 m 1
 56 33 l 1
 56 35 l 1
 58 35 l 1
 58 34 l 1
 57 34 l 1
 57 33 l 1
60 33 m 1
 58 33 l 1
 58 34 l 1
 59 34 l 1
 59 35 l 1
 60 35 l 1
 60 33 l 1
63 33 m 1
 61 33 l 1
 61 35 l 1
 63 35 l 1
 63 33 l 1
41 41 m 1
 39 41 l 1
 39 43 l 1
 41 43 l 1
 41 41 l 1
44 41 m 1
 42 41 l 1
 42 43 l 1
 43 43 l 1
 43 42 l 1
 44 42 l 1
 44 41 l 1
49 37 m 1
 47 37 l 1
 47 39 l 1
 49 39 l 1
 49 37 l 1
45 42 m 1
 44 42 l 1
 44 43 l 1
 46 43 l 1
 46 41 l 1
 45 41 l 1
 45 42 l 1
49 41 m 1
 47 41 l 1
 47 43 l 1
 49 43 l 1
 49 41 l 1
55 41 m 1
 53 41 l 1
 53 43 l 1
 55 43 l 1
 55 41 l 1
58 41 m 1
 56 41 l 1
 56 43 l 1
 57 43 l 1
 57 42 l 1
 58 42 l 1
 58 41 l 1
59 42 m 1
 58 42 l 1
 58 43 l 1
 60 43 l 1
 60 41 l 1
 59 41 l 1
 59 42 l 1
63 37 m 1
 61 37 l 1
 61 39 l 1
 63 39 l 1
 63 37 l 1
63 41 m 1
 61 41 l 1
 61 43 l 1
 63 43 l 1
 63 41 l 1
EndSplineSet
Ligature2: "'liga' Standard Ligatures in Latin lookup 0-1" three five zero four six
LCarets2: 1 0
EndChar

StartChar: custom_3_5_0_4_7
Encoding: 10803 -1 10558
Width: 70
Flags: H
LayerCount: 2
Fore
SplineSet
17 25 m 1
 15 25 l 1
 15 27 l 1
 17 27 l 1
 17 25 l 1
17 29 m 1
 15 29 l 1
 15 31 l 1
 17 31 l 1
 17 29 l 1
17 33 m 1
 15 33 l 1
 15 35 l 1
 17 35 l 1
 17 33 l 1
23 25 m 1
 21 25 l 1
 21 27 l 1
 23 27 l 1
 23 25 l 1
26 25 m 1
 24 25 l 1
 24 27 l 1
 25 27 l 1
 25 26 l 1
 26 26 l 1
 26 25 l 1
27 26 m 1
 26 26 l 1
 26 27 l 1
 28 27 l 1
 28 25 l 1
 27 25 l 1
 27 26 l 1
31 25 m 1
 29 25 l 1
 29 27 l 1
 31 27 l 1
 31 25 l 1
23 33 m 1
 21 33 l 1
 21 35 l 1
 23 35 l 1
 23 33 l 1
25 33 m 1
 24 33 l 1
 24 35 l 1
 26 35 l 1
 26 34 l 1
 25 34 l 1
 25 33 l 1
28 33 m 1
 26 33 l 1
 26 34 l 1
 27 34 l 1
 27 35 l 1
 28 35 l 1
 28 33 l 1
31 29 m 1
 29 29 l 1
 29 31 l 1
 31 31 l 1
 31 29 l 1
36 31 m 1
 34 31 l 1
 34 33 l 1
 36 33 l 1
 36 31 l 1
31 33 m 1
 29 33 l 1
 29 35 l 1
 31 35 l 1
 31 33 l 1
36 35 m 1
 34 35 l 1
 34 37 l 1
 36 37 l 1
 36 35 l 1
17 37 m 1
 15 37 l 1
 15 39 l 1
 17 39 l 1
 17 37 l 1
17 41 m 1
 15 41 l 1
 15 43 l 1
 17 43 l 1
 17 41 l 1
23 37 m 1
 21 37 l 1
 21 39 l 1
 23 39 l 1
 23 37 l 1
23 41 m 1
 21 41 l 1
 21 43 l 1
 23 43 l 1
 23 41 l 1
26 41 m 1
 24 41 l 1
 24 43 l 1
 25 43 l 1
 25 42 l 1
 26 42 l 1
 26 41 l 1
27 42 m 1
 26 42 l 1
 26 43 l 1
 28 43 l 1
 28 41 l 1
 27 41 l 1
 27 42 l 1
31 41 m 1
 29 41 l 1
 29 43 l 1
 31 43 l 1
 31 41 l 1
41 25 m 1
 39 25 l 1
 39 27 l 1
 41 27 l 1
 41 25 l 1
44 25 m 1
 42 25 l 1
 42 27 l 1
 43 27 l 1
 43 26 l 1
 44 26 l 1
 44 25 l 1
45 26 m 1
 44 26 l 1
 44 27 l 1
 46 27 l 1
 46 25 l 1
 45 25 l 1
 45 26 l 1
49 25 m 1
 47 25 l 1
 47 27 l 1
 49 27 l 1
 49 25 l 1
41 33 m 1
 39 33 l 1
 39 35 l 1
 41 35 l 1
 41 33 l 1
43 33 m 1
 42 33 l 1
 42 35 l 1
 44 35 l 1
 44 34 l 1
 43 34 l 1
 43 33 l 1
49 29 m 1
 47 29 l 1
 47 31 l 1
 49 31 l 1
 49 29 l 1
46 33 m 1
 44 33 l 1
 44 34 l 1
 45 34 l 1
 45 35 l 1
 46 35 l 1
 46 33 l 1
49 33 m 1
 47 33 l 1
 47 35 l 1
 49 35 l 1
 49 33 l 1
55 25 m 1
 53 25 l 1
 53 27 l 1
 55 27 l 1
 55 25 l 1
58 25 m 1
 56 25 l 1
 56 27 l 1
 57 27 l 1
 57 26 l 1
 58 26 l 1
 58 25 l 1
59 26 m 1
 58 26 l 1
 58 27 l 1
 60 27 l 1
 60 25 l 1
 59 25 l 1
 59 26 l 1
63 25 m 1
 61 25 l 1
 61 27 l 1
 63 27 l 1
 63 25 l 1
55 29 m 1
 53 29 l 1
 53 31 l 1
 55 31 l 1
 55 29 l 1
55 33 m 1
 53 33 l 1
 53 35 l 1
 55 35 l 1
 55 33 l 1
57 33 m 1
 56 33 l 1
 56 35 l 1
 58 35 l 1
 58 34 l 1
 57 34 l 1
 57 33 l 1
60 33 m 1
 58 33 l 1
 58 34 l 1
 59 34 l 1
 59 35 l 1
 60 35 l 1
 60 33 l 1
63 33 m 1
 61 33 l 1
 61 35 l 1
 63 35 l 1
 63 33 l 1
41 41 m 1
 39 41 l 1
 39 43 l 1
 41 43 l 1
 41 41 l 1
44 41 m 1
 42 41 l 1
 42 43 l 1
 43 43 l 1
 43 42 l 1
 44 42 l 1
 44 41 l 1
49 37 m 1
 47 37 l 1
 47 39 l 1
 49 39 l 1
 49 37 l 1
45 42 m 1
 44 42 l 1
 44 43 l 1
 46 43 l 1
 46 41 l 1
 45 41 l 1
 45 42 l 1
49 41 m 1
 47 41 l 1
 47 43 l 1
 49 43 l 1
 49 41 l 1
55 41 m 1
 53 41 l 1
 53 43 l 1
 55 43 l 1
 55 41 l 1
58 41 m 1
 56 41 l 1
 56 43 l 1
 57 43 l 1
 57 42 l 1
 58 42 l 1
 58 41 l 1
59 42 m 1
 58 42 l 1
 58 43 l 1
 60 43 l 1
 60 41 l 1
 59 41 l 1
 59 42 l 1
63 37 m 1
 61 37 l 1
 61 39 l 1
 63 39 l 1
 63 37 l 1
63 41 m 1
 61 41 l 1
 61 43 l 1
 63 43 l 1
 63 41 l 1
EndSplineSet
Ligature2: "'liga' Standard Ligatures in Latin lookup 0-1" three five zero four seven
LCarets2: 1 0
EndChar

StartChar: custom_3_5_0_4_8
Encoding: 10804 -1 10559
Width: 70
Flags: H
LayerCount: 2
Fore
SplineSet
17 25 m 1
 15 25 l 1
 15 27 l 1
 17 27 l 1
 17 25 l 1
17 29 m 1
 15 29 l 1
 15 31 l 1
 17 31 l 1
 17 29 l 1
17 33 m 1
 15 33 l 1
 15 35 l 1
 17 35 l 1
 17 33 l 1
23 25 m 1
 21 25 l 1
 21 27 l 1
 23 27 l 1
 23 25 l 1
26 25 m 1
 24 25 l 1
 24 27 l 1
 25 27 l 1
 25 26 l 1
 26 26 l 1
 26 25 l 1
27 26 m 1
 26 26 l 1
 26 27 l 1
 28 27 l 1
 28 25 l 1
 27 25 l 1
 27 26 l 1
31 25 m 1
 29 25 l 1
 29 27 l 1
 31 27 l 1
 31 25 l 1
23 33 m 1
 21 33 l 1
 21 35 l 1
 23 35 l 1
 23 33 l 1
25 33 m 1
 24 33 l 1
 24 35 l 1
 26 35 l 1
 26 34 l 1
 25 34 l 1
 25 33 l 1
28 33 m 1
 26 33 l 1
 26 34 l 1
 27 34 l 1
 27 35 l 1
 28 35 l 1
 28 33 l 1
31 29 m 1
 29 29 l 1
 29 31 l 1
 31 31 l 1
 31 29 l 1
36 31 m 1
 34 31 l 1
 34 33 l 1
 36 33 l 1
 36 31 l 1
31 33 m 1
 29 33 l 1
 29 35 l 1
 31 35 l 1
 31 33 l 1
36 35 m 1
 34 35 l 1
 34 37 l 1
 36 37 l 1
 36 35 l 1
17 37 m 1
 15 37 l 1
 15 39 l 1
 17 39 l 1
 17 37 l 1
17 41 m 1
 15 41 l 1
 15 43 l 1
 17 43 l 1
 17 41 l 1
23 37 m 1
 21 37 l 1
 21 39 l 1
 23 39 l 1
 23 37 l 1
23 41 m 1
 21 41 l 1
 21 43 l 1
 23 43 l 1
 23 41 l 1
26 41 m 1
 24 41 l 1
 24 43 l 1
 25 43 l 1
 25 42 l 1
 26 42 l 1
 26 41 l 1
27 42 m 1
 26 42 l 1
 26 43 l 1
 28 43 l 1
 28 41 l 1
 27 41 l 1
 27 42 l 1
31 41 m 1
 29 41 l 1
 29 43 l 1
 31 43 l 1
 31 41 l 1
41 25 m 1
 39 25 l 1
 39 27 l 1
 41 27 l 1
 41 25 l 1
44 25 m 1
 42 25 l 1
 42 27 l 1
 43 27 l 1
 43 26 l 1
 44 26 l 1
 44 25 l 1
45 26 m 1
 44 26 l 1
 44 27 l 1
 46 27 l 1
 46 25 l 1
 45 25 l 1
 45 26 l 1
49 25 m 1
 47 25 l 1
 47 27 l 1
 49 27 l 1
 49 25 l 1
41 33 m 1
 39 33 l 1
 39 35 l 1
 41 35 l 1
 41 33 l 1
43 33 m 1
 42 33 l 1
 42 35 l 1
 44 35 l 1
 44 34 l 1
 43 34 l 1
 43 33 l 1
49 29 m 1
 47 29 l 1
 47 31 l 1
 49 31 l 1
 49 29 l 1
46 33 m 1
 44 33 l 1
 44 34 l 1
 45 34 l 1
 45 35 l 1
 46 35 l 1
 46 33 l 1
49 33 m 1
 47 33 l 1
 47 35 l 1
 49 35 l 1
 49 33 l 1
55 25 m 1
 53 25 l 1
 53 27 l 1
 55 27 l 1
 55 25 l 1
58 25 m 1
 56 25 l 1
 56 27 l 1
 57 27 l 1
 57 26 l 1
 58 26 l 1
 58 25 l 1
59 26 m 1
 58 26 l 1
 58 27 l 1
 60 27 l 1
 60 25 l 1
 59 25 l 1
 59 26 l 1
63 25 m 1
 61 25 l 1
 61 27 l 1
 63 27 l 1
 63 25 l 1
55 29 m 1
 53 29 l 1
 53 31 l 1
 55 31 l 1
 55 29 l 1
55 33 m 1
 53 33 l 1
 53 35 l 1
 55 35 l 1
 55 33 l 1
57 33 m 1
 56 33 l 1
 56 35 l 1
 58 35 l 1
 58 34 l 1
 57 34 l 1
 57 33 l 1
60 33 m 1
 58 33 l 1
 58 34 l 1
 59 34 l 1
 59 35 l 1
 60 35 l 1
 60 33 l 1
63 33 m 1
 61 33 l 1
 61 35 l 1
 63 35 l 1
 63 33 l 1
41 41 m 1
 39 41 l 1
 39 43 l 1
 41 43 l 1
 41 41 l 1
44 41 m 1
 42 41 l 1
 42 43 l 1
 43 43 l 1
 43 42 l 1
 44 42 l 1
 44 41 l 1
49 37 m 1
 47 37 l 1
 47 39 l 1
 49 39 l 1
 49 37 l 1
45 42 m 1
 44 42 l 1
 44 43 l 1
 46 43 l 1
 46 41 l 1
 45 41 l 1
 45 42 l 1
49 41 m 1
 47 41 l 1
 47 43 l 1
 49 43 l 1
 49 41 l 1
55 41 m 1
 53 41 l 1
 53 43 l 1
 55 43 l 1
 55 41 l 1
58 41 m 1
 56 41 l 1
 56 43 l 1
 57 43 l 1
 57 42 l 1
 58 42 l 1
 58 41 l 1
59 42 m 1
 58 42 l 1
 58 43 l 1
 60 43 l 1
 60 41 l 1
 59 41 l 1
 59 42 l 1
63 37 m 1
 61 37 l 1
 61 39 l 1
 63 39 l 1
 63 37 l 1
63 41 m 1
 61 41 l 1
 61 43 l 1
 63 43 l 1
 63 41 l 1
EndSplineSet
Ligature2: "'liga' Standard Ligatures in Latin lookup 0-1" three five zero four eight
LCarets2: 1 0
EndChar

StartChar: custom_3_5_0_4_9
Encoding: 10805 -1 10560
Width: 70
Flags: H
LayerCount: 2
Fore
SplineSet
17 25 m 1
 15 25 l 1
 15 27 l 1
 17 27 l 1
 17 25 l 1
17 29 m 1
 15 29 l 1
 15 31 l 1
 17 31 l 1
 17 29 l 1
17 33 m 1
 15 33 l 1
 15 35 l 1
 17 35 l 1
 17 33 l 1
23 25 m 1
 21 25 l 1
 21 27 l 1
 23 27 l 1
 23 25 l 1
26 25 m 1
 24 25 l 1
 24 27 l 1
 25 27 l 1
 25 26 l 1
 26 26 l 1
 26 25 l 1
27 26 m 1
 26 26 l 1
 26 27 l 1
 28 27 l 1
 28 25 l 1
 27 25 l 1
 27 26 l 1
31 25 m 1
 29 25 l 1
 29 27 l 1
 31 27 l 1
 31 25 l 1
23 33 m 1
 21 33 l 1
 21 35 l 1
 23 35 l 1
 23 33 l 1
25 33 m 1
 24 33 l 1
 24 35 l 1
 26 35 l 1
 26 34 l 1
 25 34 l 1
 25 33 l 1
28 33 m 1
 26 33 l 1
 26 34 l 1
 27 34 l 1
 27 35 l 1
 28 35 l 1
 28 33 l 1
31 29 m 1
 29 29 l 1
 29 31 l 1
 31 31 l 1
 31 29 l 1
36 31 m 1
 34 31 l 1
 34 33 l 1
 36 33 l 1
 36 31 l 1
31 33 m 1
 29 33 l 1
 29 35 l 1
 31 35 l 1
 31 33 l 1
36 35 m 1
 34 35 l 1
 34 37 l 1
 36 37 l 1
 36 35 l 1
17 37 m 1
 15 37 l 1
 15 39 l 1
 17 39 l 1
 17 37 l 1
17 41 m 1
 15 41 l 1
 15 43 l 1
 17 43 l 1
 17 41 l 1
23 37 m 1
 21 37 l 1
 21 39 l 1
 23 39 l 1
 23 37 l 1
23 41 m 1
 21 41 l 1
 21 43 l 1
 23 43 l 1
 23 41 l 1
26 41 m 1
 24 41 l 1
 24 43 l 1
 25 43 l 1
 25 42 l 1
 26 42 l 1
 26 41 l 1
27 42 m 1
 26 42 l 1
 26 43 l 1
 28 43 l 1
 28 41 l 1
 27 41 l 1
 27 42 l 1
31 41 m 1
 29 41 l 1
 29 43 l 1
 31 43 l 1
 31 41 l 1
41 25 m 1
 39 25 l 1
 39 27 l 1
 41 27 l 1
 41 25 l 1
44 25 m 1
 42 25 l 1
 42 27 l 1
 43 27 l 1
 43 26 l 1
 44 26 l 1
 44 25 l 1
45 26 m 1
 44 26 l 1
 44 27 l 1
 46 27 l 1
 46 25 l 1
 45 25 l 1
 45 26 l 1
49 25 m 1
 47 25 l 1
 47 27 l 1
 49 27 l 1
 49 25 l 1
41 33 m 1
 39 33 l 1
 39 35 l 1
 41 35 l 1
 41 33 l 1
43 33 m 1
 42 33 l 1
 42 35 l 1
 44 35 l 1
 44 34 l 1
 43 34 l 1
 43 33 l 1
49 29 m 1
 47 29 l 1
 47 31 l 1
 49 31 l 1
 49 29 l 1
46 33 m 1
 44 33 l 1
 44 34 l 1
 45 34 l 1
 45 35 l 1
 46 35 l 1
 46 33 l 1
49 33 m 1
 47 33 l 1
 47 35 l 1
 49 35 l 1
 49 33 l 1
55 25 m 1
 53 25 l 1
 53 27 l 1
 55 27 l 1
 55 25 l 1
58 25 m 1
 56 25 l 1
 56 27 l 1
 57 27 l 1
 57 26 l 1
 58 26 l 1
 58 25 l 1
59 26 m 1
 58 26 l 1
 58 27 l 1
 60 27 l 1
 60 25 l 1
 59 25 l 1
 59 26 l 1
63 25 m 1
 61 25 l 1
 61 27 l 1
 63 27 l 1
 63 25 l 1
55 29 m 1
 53 29 l 1
 53 31 l 1
 55 31 l 1
 55 29 l 1
55 33 m 1
 53 33 l 1
 53 35 l 1
 55 35 l 1
 55 33 l 1
57 33 m 1
 56 33 l 1
 56 35 l 1
 58 35 l 1
 58 34 l 1
 57 34 l 1
 57 33 l 1
60 33 m 1
 58 33 l 1
 58 34 l 1
 59 34 l 1
 59 35 l 1
 60 35 l 1
 60 33 l 1
63 33 m 1
 61 33 l 1
 61 35 l 1
 63 35 l 1
 63 33 l 1
41 41 m 1
 39 41 l 1
 39 43 l 1
 41 43 l 1
 41 41 l 1
44 41 m 1
 42 41 l 1
 42 43 l 1
 43 43 l 1
 43 42 l 1
 44 42 l 1
 44 41 l 1
49 37 m 1
 47 37 l 1
 47 39 l 1
 49 39 l 1
 49 37 l 1
45 42 m 1
 44 42 l 1
 44 43 l 1
 46 43 l 1
 46 41 l 1
 45 41 l 1
 45 42 l 1
49 41 m 1
 47 41 l 1
 47 43 l 1
 49 43 l 1
 49 41 l 1
55 41 m 1
 53 41 l 1
 53 43 l 1
 55 43 l 1
 55 41 l 1
58 41 m 1
 56 41 l 1
 56 43 l 1
 57 43 l 1
 57 42 l 1
 58 42 l 1
 58 41 l 1
59 42 m 1
 58 42 l 1
 58 43 l 1
 60 43 l 1
 60 41 l 1
 59 41 l 1
 59 42 l 1
63 37 m 1
 61 37 l 1
 61 39 l 1
 63 39 l 1
 63 37 l 1
63 41 m 1
 61 41 l 1
 61 43 l 1
 63 43 l 1
 63 41 l 1
EndSplineSet
Ligature2: "'liga' Standard Ligatures in Latin lookup 0-1" three five zero four nine
LCarets2: 1 0
EndChar

StartChar: custom_3_5_0_5_0
Encoding: 10806 -1 10561
Width: 70
Flags: H
LayerCount: 2
Fore
SplineSet
17 25 m 1
 15 25 l 1
 15 27 l 1
 17 27 l 1
 17 25 l 1
17 29 m 1
 15 29 l 1
 15 31 l 1
 17 31 l 1
 17 29 l 1
17 33 m 1
 15 33 l 1
 15 35 l 1
 17 35 l 1
 17 33 l 1
23 25 m 1
 21 25 l 1
 21 27 l 1
 23 27 l 1
 23 25 l 1
26 25 m 1
 24 25 l 1
 24 27 l 1
 25 27 l 1
 25 26 l 1
 26 26 l 1
 26 25 l 1
27 26 m 1
 26 26 l 1
 26 27 l 1
 28 27 l 1
 28 25 l 1
 27 25 l 1
 27 26 l 1
31 25 m 1
 29 25 l 1
 29 27 l 1
 31 27 l 1
 31 25 l 1
23 33 m 1
 21 33 l 1
 21 35 l 1
 23 35 l 1
 23 33 l 1
25 33 m 1
 24 33 l 1
 24 35 l 1
 26 35 l 1
 26 34 l 1
 25 34 l 1
 25 33 l 1
28 33 m 1
 26 33 l 1
 26 34 l 1
 27 34 l 1
 27 35 l 1
 28 35 l 1
 28 33 l 1
31 29 m 1
 29 29 l 1
 29 31 l 1
 31 31 l 1
 31 29 l 1
36 31 m 1
 34 31 l 1
 34 33 l 1
 36 33 l 1
 36 31 l 1
31 33 m 1
 29 33 l 1
 29 35 l 1
 31 35 l 1
 31 33 l 1
36 35 m 1
 34 35 l 1
 34 37 l 1
 36 37 l 1
 36 35 l 1
17 37 m 1
 15 37 l 1
 15 39 l 1
 17 39 l 1
 17 37 l 1
17 41 m 1
 15 41 l 1
 15 43 l 1
 17 43 l 1
 17 41 l 1
23 37 m 1
 21 37 l 1
 21 39 l 1
 23 39 l 1
 23 37 l 1
23 41 m 1
 21 41 l 1
 21 43 l 1
 23 43 l 1
 23 41 l 1
26 41 m 1
 24 41 l 1
 24 43 l 1
 25 43 l 1
 25 42 l 1
 26 42 l 1
 26 41 l 1
27 42 m 1
 26 42 l 1
 26 43 l 1
 28 43 l 1
 28 41 l 1
 27 41 l 1
 27 42 l 1
31 41 m 1
 29 41 l 1
 29 43 l 1
 31 43 l 1
 31 41 l 1
41 25 m 1
 39 25 l 1
 39 27 l 1
 41 27 l 1
 41 25 l 1
44 25 m 1
 42 25 l 1
 42 27 l 1
 43 27 l 1
 43 26 l 1
 44 26 l 1
 44 25 l 1
45 26 m 1
 44 26 l 1
 44 27 l 1
 46 27 l 1
 46 25 l 1
 45 25 l 1
 45 26 l 1
49 25 m 1
 47 25 l 1
 47 27 l 1
 49 27 l 1
 49 25 l 1
41 33 m 1
 39 33 l 1
 39 35 l 1
 41 35 l 1
 41 33 l 1
43 33 m 1
 42 33 l 1
 42 35 l 1
 44 35 l 1
 44 34 l 1
 43 34 l 1
 43 33 l 1
49 29 m 1
 47 29 l 1
 47 31 l 1
 49 31 l 1
 49 29 l 1
46 33 m 1
 44 33 l 1
 44 34 l 1
 45 34 l 1
 45 35 l 1
 46 35 l 1
 46 33 l 1
49 33 m 1
 47 33 l 1
 47 35 l 1
 49 35 l 1
 49 33 l 1
55 25 m 1
 53 25 l 1
 53 27 l 1
 55 27 l 1
 55 25 l 1
58 25 m 1
 56 25 l 1
 56 27 l 1
 57 27 l 1
 57 26 l 1
 58 26 l 1
 58 25 l 1
59 26 m 1
 58 26 l 1
 58 27 l 1
 60 27 l 1
 60 25 l 1
 59 25 l 1
 59 26 l 1
63 25 m 1
 61 25 l 1
 61 27 l 1
 63 27 l 1
 63 25 l 1
55 29 m 1
 53 29 l 1
 53 31 l 1
 55 31 l 1
 55 29 l 1
55 33 m 1
 53 33 l 1
 53 35 l 1
 55 35 l 1
 55 33 l 1
57 33 m 1
 56 33 l 1
 56 35 l 1
 58 35 l 1
 58 34 l 1
 57 34 l 1
 57 33 l 1
60 33 m 1
 58 33 l 1
 58 34 l 1
 59 34 l 1
 59 35 l 1
 60 35 l 1
 60 33 l 1
63 33 m 1
 61 33 l 1
 61 35 l 1
 63 35 l 1
 63 33 l 1
41 41 m 1
 39 41 l 1
 39 43 l 1
 41 43 l 1
 41 41 l 1
44 41 m 1
 42 41 l 1
 42 43 l 1
 43 43 l 1
 43 42 l 1
 44 42 l 1
 44 41 l 1
49 37 m 1
 47 37 l 1
 47 39 l 1
 49 39 l 1
 49 37 l 1
45 42 m 1
 44 42 l 1
 44 43 l 1
 46 43 l 1
 46 41 l 1
 45 41 l 1
 45 42 l 1
49 41 m 1
 47 41 l 1
 47 43 l 1
 49 43 l 1
 49 41 l 1
55 41 m 1
 53 41 l 1
 53 43 l 1
 55 43 l 1
 55 41 l 1
58 41 m 1
 56 41 l 1
 56 43 l 1
 57 43 l 1
 57 42 l 1
 58 42 l 1
 58 41 l 1
59 42 m 1
 58 42 l 1
 58 43 l 1
 60 43 l 1
 60 41 l 1
 59 41 l 1
 59 42 l 1
63 37 m 1
 61 37 l 1
 61 39 l 1
 63 39 l 1
 63 37 l 1
63 41 m 1
 61 41 l 1
 61 43 l 1
 63 43 l 1
 63 41 l 1
EndSplineSet
Ligature2: "'liga' Standard Ligatures in Latin lookup 0-1" three five zero five zero
LCarets2: 1 0
EndChar

StartChar: custom_3_5_0_5_1
Encoding: 10807 -1 10562
Width: 70
Flags: H
LayerCount: 2
Fore
SplineSet
17 25 m 1
 15 25 l 1
 15 27 l 1
 17 27 l 1
 17 25 l 1
17 29 m 1
 15 29 l 1
 15 31 l 1
 17 31 l 1
 17 29 l 1
17 33 m 1
 15 33 l 1
 15 35 l 1
 17 35 l 1
 17 33 l 1
23 25 m 1
 21 25 l 1
 21 27 l 1
 23 27 l 1
 23 25 l 1
26 25 m 1
 24 25 l 1
 24 27 l 1
 25 27 l 1
 25 26 l 1
 26 26 l 1
 26 25 l 1
27 26 m 1
 26 26 l 1
 26 27 l 1
 28 27 l 1
 28 25 l 1
 27 25 l 1
 27 26 l 1
31 25 m 1
 29 25 l 1
 29 27 l 1
 31 27 l 1
 31 25 l 1
23 33 m 1
 21 33 l 1
 21 35 l 1
 23 35 l 1
 23 33 l 1
25 33 m 1
 24 33 l 1
 24 35 l 1
 26 35 l 1
 26 34 l 1
 25 34 l 1
 25 33 l 1
28 33 m 1
 26 33 l 1
 26 34 l 1
 27 34 l 1
 27 35 l 1
 28 35 l 1
 28 33 l 1
31 29 m 1
 29 29 l 1
 29 31 l 1
 31 31 l 1
 31 29 l 1
36 31 m 1
 34 31 l 1
 34 33 l 1
 36 33 l 1
 36 31 l 1
31 33 m 1
 29 33 l 1
 29 35 l 1
 31 35 l 1
 31 33 l 1
36 35 m 1
 34 35 l 1
 34 37 l 1
 36 37 l 1
 36 35 l 1
17 37 m 1
 15 37 l 1
 15 39 l 1
 17 39 l 1
 17 37 l 1
17 41 m 1
 15 41 l 1
 15 43 l 1
 17 43 l 1
 17 41 l 1
23 37 m 1
 21 37 l 1
 21 39 l 1
 23 39 l 1
 23 37 l 1
23 41 m 1
 21 41 l 1
 21 43 l 1
 23 43 l 1
 23 41 l 1
26 41 m 1
 24 41 l 1
 24 43 l 1
 25 43 l 1
 25 42 l 1
 26 42 l 1
 26 41 l 1
27 42 m 1
 26 42 l 1
 26 43 l 1
 28 43 l 1
 28 41 l 1
 27 41 l 1
 27 42 l 1
31 41 m 1
 29 41 l 1
 29 43 l 1
 31 43 l 1
 31 41 l 1
41 25 m 1
 39 25 l 1
 39 27 l 1
 41 27 l 1
 41 25 l 1
44 25 m 1
 42 25 l 1
 42 27 l 1
 43 27 l 1
 43 26 l 1
 44 26 l 1
 44 25 l 1
45 26 m 1
 44 26 l 1
 44 27 l 1
 46 27 l 1
 46 25 l 1
 45 25 l 1
 45 26 l 1
49 25 m 1
 47 25 l 1
 47 27 l 1
 49 27 l 1
 49 25 l 1
41 33 m 1
 39 33 l 1
 39 35 l 1
 41 35 l 1
 41 33 l 1
43 33 m 1
 42 33 l 1
 42 35 l 1
 44 35 l 1
 44 34 l 1
 43 34 l 1
 43 33 l 1
49 29 m 1
 47 29 l 1
 47 31 l 1
 49 31 l 1
 49 29 l 1
46 33 m 1
 44 33 l 1
 44 34 l 1
 45 34 l 1
 45 35 l 1
 46 35 l 1
 46 33 l 1
49 33 m 1
 47 33 l 1
 47 35 l 1
 49 35 l 1
 49 33 l 1
55 25 m 1
 53 25 l 1
 53 27 l 1
 55 27 l 1
 55 25 l 1
58 25 m 1
 56 25 l 1
 56 27 l 1
 57 27 l 1
 57 26 l 1
 58 26 l 1
 58 25 l 1
59 26 m 1
 58 26 l 1
 58 27 l 1
 60 27 l 1
 60 25 l 1
 59 25 l 1
 59 26 l 1
63 25 m 1
 61 25 l 1
 61 27 l 1
 63 27 l 1
 63 25 l 1
55 29 m 1
 53 29 l 1
 53 31 l 1
 55 31 l 1
 55 29 l 1
55 33 m 1
 53 33 l 1
 53 35 l 1
 55 35 l 1
 55 33 l 1
57 33 m 1
 56 33 l 1
 56 35 l 1
 58 35 l 1
 58 34 l 1
 57 34 l 1
 57 33 l 1
60 33 m 1
 58 33 l 1
 58 34 l 1
 59 34 l 1
 59 35 l 1
 60 35 l 1
 60 33 l 1
63 33 m 1
 61 33 l 1
 61 35 l 1
 63 35 l 1
 63 33 l 1
41 41 m 1
 39 41 l 1
 39 43 l 1
 41 43 l 1
 41 41 l 1
44 41 m 1
 42 41 l 1
 42 43 l 1
 43 43 l 1
 43 42 l 1
 44 42 l 1
 44 41 l 1
49 37 m 1
 47 37 l 1
 47 39 l 1
 49 39 l 1
 49 37 l 1
45 42 m 1
 44 42 l 1
 44 43 l 1
 46 43 l 1
 46 41 l 1
 45 41 l 1
 45 42 l 1
49 41 m 1
 47 41 l 1
 47 43 l 1
 49 43 l 1
 49 41 l 1
55 41 m 1
 53 41 l 1
 53 43 l 1
 55 43 l 1
 55 41 l 1
58 41 m 1
 56 41 l 1
 56 43 l 1
 57 43 l 1
 57 42 l 1
 58 42 l 1
 58 41 l 1
59 42 m 1
 58 42 l 1
 58 43 l 1
 60 43 l 1
 60 41 l 1
 59 41 l 1
 59 42 l 1
63 37 m 1
 61 37 l 1
 61 39 l 1
 63 39 l 1
 63 37 l 1
63 41 m 1
 61 41 l 1
 61 43 l 1
 63 43 l 1
 63 41 l 1
EndSplineSet
Ligature2: "'liga' Standard Ligatures in Latin lookup 0-1" three five zero five one
LCarets2: 1 0
EndChar

StartChar: custom_3_5_0_5_2
Encoding: 10808 -1 10563
Width: 70
Flags: H
LayerCount: 2
Fore
SplineSet
17 25 m 1
 15 25 l 1
 15 27 l 1
 17 27 l 1
 17 25 l 1
17 29 m 1
 15 29 l 1
 15 31 l 1
 17 31 l 1
 17 29 l 1
17 33 m 1
 15 33 l 1
 15 35 l 1
 17 35 l 1
 17 33 l 1
23 25 m 1
 21 25 l 1
 21 27 l 1
 23 27 l 1
 23 25 l 1
26 25 m 1
 24 25 l 1
 24 27 l 1
 25 27 l 1
 25 26 l 1
 26 26 l 1
 26 25 l 1
27 26 m 1
 26 26 l 1
 26 27 l 1
 28 27 l 1
 28 25 l 1
 27 25 l 1
 27 26 l 1
31 25 m 1
 29 25 l 1
 29 27 l 1
 31 27 l 1
 31 25 l 1
23 33 m 1
 21 33 l 1
 21 35 l 1
 23 35 l 1
 23 33 l 1
25 33 m 1
 24 33 l 1
 24 35 l 1
 26 35 l 1
 26 34 l 1
 25 34 l 1
 25 33 l 1
28 33 m 1
 26 33 l 1
 26 34 l 1
 27 34 l 1
 27 35 l 1
 28 35 l 1
 28 33 l 1
31 29 m 1
 29 29 l 1
 29 31 l 1
 31 31 l 1
 31 29 l 1
36 31 m 1
 34 31 l 1
 34 33 l 1
 36 33 l 1
 36 31 l 1
31 33 m 1
 29 33 l 1
 29 35 l 1
 31 35 l 1
 31 33 l 1
36 35 m 1
 34 35 l 1
 34 37 l 1
 36 37 l 1
 36 35 l 1
17 37 m 1
 15 37 l 1
 15 39 l 1
 17 39 l 1
 17 37 l 1
17 41 m 1
 15 41 l 1
 15 43 l 1
 17 43 l 1
 17 41 l 1
23 37 m 1
 21 37 l 1
 21 39 l 1
 23 39 l 1
 23 37 l 1
23 41 m 1
 21 41 l 1
 21 43 l 1
 23 43 l 1
 23 41 l 1
26 41 m 1
 24 41 l 1
 24 43 l 1
 25 43 l 1
 25 42 l 1
 26 42 l 1
 26 41 l 1
27 42 m 1
 26 42 l 1
 26 43 l 1
 28 43 l 1
 28 41 l 1
 27 41 l 1
 27 42 l 1
31 41 m 1
 29 41 l 1
 29 43 l 1
 31 43 l 1
 31 41 l 1
41 25 m 1
 39 25 l 1
 39 27 l 1
 41 27 l 1
 41 25 l 1
44 25 m 1
 42 25 l 1
 42 27 l 1
 43 27 l 1
 43 26 l 1
 44 26 l 1
 44 25 l 1
45 26 m 1
 44 26 l 1
 44 27 l 1
 46 27 l 1
 46 25 l 1
 45 25 l 1
 45 26 l 1
49 25 m 1
 47 25 l 1
 47 27 l 1
 49 27 l 1
 49 25 l 1
41 33 m 1
 39 33 l 1
 39 35 l 1
 41 35 l 1
 41 33 l 1
43 33 m 1
 42 33 l 1
 42 35 l 1
 44 35 l 1
 44 34 l 1
 43 34 l 1
 43 33 l 1
49 29 m 1
 47 29 l 1
 47 31 l 1
 49 31 l 1
 49 29 l 1
46 33 m 1
 44 33 l 1
 44 34 l 1
 45 34 l 1
 45 35 l 1
 46 35 l 1
 46 33 l 1
49 33 m 1
 47 33 l 1
 47 35 l 1
 49 35 l 1
 49 33 l 1
55 25 m 1
 53 25 l 1
 53 27 l 1
 55 27 l 1
 55 25 l 1
58 25 m 1
 56 25 l 1
 56 27 l 1
 57 27 l 1
 57 26 l 1
 58 26 l 1
 58 25 l 1
59 26 m 1
 58 26 l 1
 58 27 l 1
 60 27 l 1
 60 25 l 1
 59 25 l 1
 59 26 l 1
63 25 m 1
 61 25 l 1
 61 27 l 1
 63 27 l 1
 63 25 l 1
55 29 m 1
 53 29 l 1
 53 31 l 1
 55 31 l 1
 55 29 l 1
55 33 m 1
 53 33 l 1
 53 35 l 1
 55 35 l 1
 55 33 l 1
57 33 m 1
 56 33 l 1
 56 35 l 1
 58 35 l 1
 58 34 l 1
 57 34 l 1
 57 33 l 1
60 33 m 1
 58 33 l 1
 58 34 l 1
 59 34 l 1
 59 35 l 1
 60 35 l 1
 60 33 l 1
63 33 m 1
 61 33 l 1
 61 35 l 1
 63 35 l 1
 63 33 l 1
41 41 m 1
 39 41 l 1
 39 43 l 1
 41 43 l 1
 41 41 l 1
44 41 m 1
 42 41 l 1
 42 43 l 1
 43 43 l 1
 43 42 l 1
 44 42 l 1
 44 41 l 1
49 37 m 1
 47 37 l 1
 47 39 l 1
 49 39 l 1
 49 37 l 1
45 42 m 1
 44 42 l 1
 44 43 l 1
 46 43 l 1
 46 41 l 1
 45 41 l 1
 45 42 l 1
49 41 m 1
 47 41 l 1
 47 43 l 1
 49 43 l 1
 49 41 l 1
55 41 m 1
 53 41 l 1
 53 43 l 1
 55 43 l 1
 55 41 l 1
58 41 m 1
 56 41 l 1
 56 43 l 1
 57 43 l 1
 57 42 l 1
 58 42 l 1
 58 41 l 1
59 42 m 1
 58 42 l 1
 58 43 l 1
 60 43 l 1
 60 41 l 1
 59 41 l 1
 59 42 l 1
63 37 m 1
 61 37 l 1
 61 39 l 1
 63 39 l 1
 63 37 l 1
63 41 m 1
 61 41 l 1
 61 43 l 1
 63 43 l 1
 63 41 l 1
EndSplineSet
Ligature2: "'liga' Standard Ligatures in Latin lookup 0-1" three five zero five two
LCarets2: 1 0
EndChar

StartChar: custom_3_5_0_5_3
Encoding: 10809 -1 10564
Width: 70
Flags: H
LayerCount: 2
Fore
SplineSet
17 25 m 1
 15 25 l 1
 15 27 l 1
 17 27 l 1
 17 25 l 1
17 29 m 1
 15 29 l 1
 15 31 l 1
 17 31 l 1
 17 29 l 1
17 33 m 1
 15 33 l 1
 15 35 l 1
 17 35 l 1
 17 33 l 1
23 25 m 1
 21 25 l 1
 21 27 l 1
 23 27 l 1
 23 25 l 1
26 25 m 1
 24 25 l 1
 24 27 l 1
 25 27 l 1
 25 26 l 1
 26 26 l 1
 26 25 l 1
27 26 m 1
 26 26 l 1
 26 27 l 1
 28 27 l 1
 28 25 l 1
 27 25 l 1
 27 26 l 1
31 25 m 1
 29 25 l 1
 29 27 l 1
 31 27 l 1
 31 25 l 1
23 33 m 1
 21 33 l 1
 21 35 l 1
 23 35 l 1
 23 33 l 1
25 33 m 1
 24 33 l 1
 24 35 l 1
 26 35 l 1
 26 34 l 1
 25 34 l 1
 25 33 l 1
28 33 m 1
 26 33 l 1
 26 34 l 1
 27 34 l 1
 27 35 l 1
 28 35 l 1
 28 33 l 1
31 29 m 1
 29 29 l 1
 29 31 l 1
 31 31 l 1
 31 29 l 1
36 31 m 1
 34 31 l 1
 34 33 l 1
 36 33 l 1
 36 31 l 1
31 33 m 1
 29 33 l 1
 29 35 l 1
 31 35 l 1
 31 33 l 1
36 35 m 1
 34 35 l 1
 34 37 l 1
 36 37 l 1
 36 35 l 1
17 37 m 1
 15 37 l 1
 15 39 l 1
 17 39 l 1
 17 37 l 1
17 41 m 1
 15 41 l 1
 15 43 l 1
 17 43 l 1
 17 41 l 1
23 37 m 1
 21 37 l 1
 21 39 l 1
 23 39 l 1
 23 37 l 1
23 41 m 1
 21 41 l 1
 21 43 l 1
 23 43 l 1
 23 41 l 1
26 41 m 1
 24 41 l 1
 24 43 l 1
 25 43 l 1
 25 42 l 1
 26 42 l 1
 26 41 l 1
27 42 m 1
 26 42 l 1
 26 43 l 1
 28 43 l 1
 28 41 l 1
 27 41 l 1
 27 42 l 1
31 41 m 1
 29 41 l 1
 29 43 l 1
 31 43 l 1
 31 41 l 1
41 25 m 1
 39 25 l 1
 39 27 l 1
 41 27 l 1
 41 25 l 1
44 25 m 1
 42 25 l 1
 42 27 l 1
 43 27 l 1
 43 26 l 1
 44 26 l 1
 44 25 l 1
45 26 m 1
 44 26 l 1
 44 27 l 1
 46 27 l 1
 46 25 l 1
 45 25 l 1
 45 26 l 1
49 25 m 1
 47 25 l 1
 47 27 l 1
 49 27 l 1
 49 25 l 1
41 33 m 1
 39 33 l 1
 39 35 l 1
 41 35 l 1
 41 33 l 1
43 33 m 1
 42 33 l 1
 42 35 l 1
 44 35 l 1
 44 34 l 1
 43 34 l 1
 43 33 l 1
49 29 m 1
 47 29 l 1
 47 31 l 1
 49 31 l 1
 49 29 l 1
46 33 m 1
 44 33 l 1
 44 34 l 1
 45 34 l 1
 45 35 l 1
 46 35 l 1
 46 33 l 1
49 33 m 1
 47 33 l 1
 47 35 l 1
 49 35 l 1
 49 33 l 1
55 25 m 1
 53 25 l 1
 53 27 l 1
 55 27 l 1
 55 25 l 1
58 25 m 1
 56 25 l 1
 56 27 l 1
 57 27 l 1
 57 26 l 1
 58 26 l 1
 58 25 l 1
59 26 m 1
 58 26 l 1
 58 27 l 1
 60 27 l 1
 60 25 l 1
 59 25 l 1
 59 26 l 1
63 25 m 1
 61 25 l 1
 61 27 l 1
 63 27 l 1
 63 25 l 1
55 29 m 1
 53 29 l 1
 53 31 l 1
 55 31 l 1
 55 29 l 1
55 33 m 1
 53 33 l 1
 53 35 l 1
 55 35 l 1
 55 33 l 1
57 33 m 1
 56 33 l 1
 56 35 l 1
 58 35 l 1
 58 34 l 1
 57 34 l 1
 57 33 l 1
60 33 m 1
 58 33 l 1
 58 34 l 1
 59 34 l 1
 59 35 l 1
 60 35 l 1
 60 33 l 1
63 33 m 1
 61 33 l 1
 61 35 l 1
 63 35 l 1
 63 33 l 1
41 41 m 1
 39 41 l 1
 39 43 l 1
 41 43 l 1
 41 41 l 1
44 41 m 1
 42 41 l 1
 42 43 l 1
 43 43 l 1
 43 42 l 1
 44 42 l 1
 44 41 l 1
49 37 m 1
 47 37 l 1
 47 39 l 1
 49 39 l 1
 49 37 l 1
45 42 m 1
 44 42 l 1
 44 43 l 1
 46 43 l 1
 46 41 l 1
 45 41 l 1
 45 42 l 1
49 41 m 1
 47 41 l 1
 47 43 l 1
 49 43 l 1
 49 41 l 1
55 41 m 1
 53 41 l 1
 53 43 l 1
 55 43 l 1
 55 41 l 1
58 41 m 1
 56 41 l 1
 56 43 l 1
 57 43 l 1
 57 42 l 1
 58 42 l 1
 58 41 l 1
59 42 m 1
 58 42 l 1
 58 43 l 1
 60 43 l 1
 60 41 l 1
 59 41 l 1
 59 42 l 1
63 37 m 1
 61 37 l 1
 61 39 l 1
 63 39 l 1
 63 37 l 1
63 41 m 1
 61 41 l 1
 61 43 l 1
 63 43 l 1
 63 41 l 1
EndSplineSet
Ligature2: "'liga' Standard Ligatures in Latin lookup 0-1" three five zero five three
LCarets2: 1 0
EndChar

StartChar: custom_3_5_0_5_4
Encoding: 10810 -1 10565
Width: 70
Flags: H
LayerCount: 2
Fore
SplineSet
17 25 m 1
 15 25 l 1
 15 27 l 1
 17 27 l 1
 17 25 l 1
17 29 m 1
 15 29 l 1
 15 31 l 1
 17 31 l 1
 17 29 l 1
17 33 m 1
 15 33 l 1
 15 35 l 1
 17 35 l 1
 17 33 l 1
23 25 m 1
 21 25 l 1
 21 27 l 1
 23 27 l 1
 23 25 l 1
26 25 m 1
 24 25 l 1
 24 27 l 1
 25 27 l 1
 25 26 l 1
 26 26 l 1
 26 25 l 1
27 26 m 1
 26 26 l 1
 26 27 l 1
 28 27 l 1
 28 25 l 1
 27 25 l 1
 27 26 l 1
31 25 m 1
 29 25 l 1
 29 27 l 1
 31 27 l 1
 31 25 l 1
23 33 m 1
 21 33 l 1
 21 35 l 1
 23 35 l 1
 23 33 l 1
25 33 m 1
 24 33 l 1
 24 35 l 1
 26 35 l 1
 26 34 l 1
 25 34 l 1
 25 33 l 1
28 33 m 1
 26 33 l 1
 26 34 l 1
 27 34 l 1
 27 35 l 1
 28 35 l 1
 28 33 l 1
31 29 m 1
 29 29 l 1
 29 31 l 1
 31 31 l 1
 31 29 l 1
36 31 m 1
 34 31 l 1
 34 33 l 1
 36 33 l 1
 36 31 l 1
31 33 m 1
 29 33 l 1
 29 35 l 1
 31 35 l 1
 31 33 l 1
36 35 m 1
 34 35 l 1
 34 37 l 1
 36 37 l 1
 36 35 l 1
17 37 m 1
 15 37 l 1
 15 39 l 1
 17 39 l 1
 17 37 l 1
17 41 m 1
 15 41 l 1
 15 43 l 1
 17 43 l 1
 17 41 l 1
23 37 m 1
 21 37 l 1
 21 39 l 1
 23 39 l 1
 23 37 l 1
23 41 m 1
 21 41 l 1
 21 43 l 1
 23 43 l 1
 23 41 l 1
26 41 m 1
 24 41 l 1
 24 43 l 1
 25 43 l 1
 25 42 l 1
 26 42 l 1
 26 41 l 1
27 42 m 1
 26 42 l 1
 26 43 l 1
 28 43 l 1
 28 41 l 1
 27 41 l 1
 27 42 l 1
31 41 m 1
 29 41 l 1
 29 43 l 1
 31 43 l 1
 31 41 l 1
41 25 m 1
 39 25 l 1
 39 27 l 1
 41 27 l 1
 41 25 l 1
44 25 m 1
 42 25 l 1
 42 27 l 1
 43 27 l 1
 43 26 l 1
 44 26 l 1
 44 25 l 1
45 26 m 1
 44 26 l 1
 44 27 l 1
 46 27 l 1
 46 25 l 1
 45 25 l 1
 45 26 l 1
49 25 m 1
 47 25 l 1
 47 27 l 1
 49 27 l 1
 49 25 l 1
41 33 m 1
 39 33 l 1
 39 35 l 1
 41 35 l 1
 41 33 l 1
43 33 m 1
 42 33 l 1
 42 35 l 1
 44 35 l 1
 44 34 l 1
 43 34 l 1
 43 33 l 1
49 29 m 1
 47 29 l 1
 47 31 l 1
 49 31 l 1
 49 29 l 1
46 33 m 1
 44 33 l 1
 44 34 l 1
 45 34 l 1
 45 35 l 1
 46 35 l 1
 46 33 l 1
49 33 m 1
 47 33 l 1
 47 35 l 1
 49 35 l 1
 49 33 l 1
55 25 m 1
 53 25 l 1
 53 27 l 1
 55 27 l 1
 55 25 l 1
58 25 m 1
 56 25 l 1
 56 27 l 1
 57 27 l 1
 57 26 l 1
 58 26 l 1
 58 25 l 1
59 26 m 1
 58 26 l 1
 58 27 l 1
 60 27 l 1
 60 25 l 1
 59 25 l 1
 59 26 l 1
63 25 m 1
 61 25 l 1
 61 27 l 1
 63 27 l 1
 63 25 l 1
55 29 m 1
 53 29 l 1
 53 31 l 1
 55 31 l 1
 55 29 l 1
55 33 m 1
 53 33 l 1
 53 35 l 1
 55 35 l 1
 55 33 l 1
57 33 m 1
 56 33 l 1
 56 35 l 1
 58 35 l 1
 58 34 l 1
 57 34 l 1
 57 33 l 1
60 33 m 1
 58 33 l 1
 58 34 l 1
 59 34 l 1
 59 35 l 1
 60 35 l 1
 60 33 l 1
63 33 m 1
 61 33 l 1
 61 35 l 1
 63 35 l 1
 63 33 l 1
41 41 m 1
 39 41 l 1
 39 43 l 1
 41 43 l 1
 41 41 l 1
44 41 m 1
 42 41 l 1
 42 43 l 1
 43 43 l 1
 43 42 l 1
 44 42 l 1
 44 41 l 1
49 37 m 1
 47 37 l 1
 47 39 l 1
 49 39 l 1
 49 37 l 1
45 42 m 1
 44 42 l 1
 44 43 l 1
 46 43 l 1
 46 41 l 1
 45 41 l 1
 45 42 l 1
49 41 m 1
 47 41 l 1
 47 43 l 1
 49 43 l 1
 49 41 l 1
55 41 m 1
 53 41 l 1
 53 43 l 1
 55 43 l 1
 55 41 l 1
58 41 m 1
 56 41 l 1
 56 43 l 1
 57 43 l 1
 57 42 l 1
 58 42 l 1
 58 41 l 1
59 42 m 1
 58 42 l 1
 58 43 l 1
 60 43 l 1
 60 41 l 1
 59 41 l 1
 59 42 l 1
63 37 m 1
 61 37 l 1
 61 39 l 1
 63 39 l 1
 63 37 l 1
63 41 m 1
 61 41 l 1
 61 43 l 1
 63 43 l 1
 63 41 l 1
EndSplineSet
Ligature2: "'liga' Standard Ligatures in Latin lookup 0-1" three five zero five four
LCarets2: 1 0
EndChar

StartChar: custom_3_5_0_5_5
Encoding: 10811 -1 10566
Width: 70
Flags: H
LayerCount: 2
Fore
SplineSet
17 25 m 1
 15 25 l 1
 15 27 l 1
 17 27 l 1
 17 25 l 1
17 29 m 1
 15 29 l 1
 15 31 l 1
 17 31 l 1
 17 29 l 1
17 33 m 1
 15 33 l 1
 15 35 l 1
 17 35 l 1
 17 33 l 1
23 25 m 1
 21 25 l 1
 21 27 l 1
 23 27 l 1
 23 25 l 1
26 25 m 1
 24 25 l 1
 24 27 l 1
 25 27 l 1
 25 26 l 1
 26 26 l 1
 26 25 l 1
27 26 m 1
 26 26 l 1
 26 27 l 1
 28 27 l 1
 28 25 l 1
 27 25 l 1
 27 26 l 1
31 25 m 1
 29 25 l 1
 29 27 l 1
 31 27 l 1
 31 25 l 1
23 33 m 1
 21 33 l 1
 21 35 l 1
 23 35 l 1
 23 33 l 1
25 33 m 1
 24 33 l 1
 24 35 l 1
 26 35 l 1
 26 34 l 1
 25 34 l 1
 25 33 l 1
28 33 m 1
 26 33 l 1
 26 34 l 1
 27 34 l 1
 27 35 l 1
 28 35 l 1
 28 33 l 1
31 29 m 1
 29 29 l 1
 29 31 l 1
 31 31 l 1
 31 29 l 1
36 31 m 1
 34 31 l 1
 34 33 l 1
 36 33 l 1
 36 31 l 1
31 33 m 1
 29 33 l 1
 29 35 l 1
 31 35 l 1
 31 33 l 1
36 35 m 1
 34 35 l 1
 34 37 l 1
 36 37 l 1
 36 35 l 1
17 37 m 1
 15 37 l 1
 15 39 l 1
 17 39 l 1
 17 37 l 1
17 41 m 1
 15 41 l 1
 15 43 l 1
 17 43 l 1
 17 41 l 1
23 37 m 1
 21 37 l 1
 21 39 l 1
 23 39 l 1
 23 37 l 1
23 41 m 1
 21 41 l 1
 21 43 l 1
 23 43 l 1
 23 41 l 1
26 41 m 1
 24 41 l 1
 24 43 l 1
 25 43 l 1
 25 42 l 1
 26 42 l 1
 26 41 l 1
27 42 m 1
 26 42 l 1
 26 43 l 1
 28 43 l 1
 28 41 l 1
 27 41 l 1
 27 42 l 1
31 41 m 1
 29 41 l 1
 29 43 l 1
 31 43 l 1
 31 41 l 1
41 25 m 1
 39 25 l 1
 39 27 l 1
 41 27 l 1
 41 25 l 1
44 25 m 1
 42 25 l 1
 42 27 l 1
 43 27 l 1
 43 26 l 1
 44 26 l 1
 44 25 l 1
45 26 m 1
 44 26 l 1
 44 27 l 1
 46 27 l 1
 46 25 l 1
 45 25 l 1
 45 26 l 1
49 25 m 1
 47 25 l 1
 47 27 l 1
 49 27 l 1
 49 25 l 1
41 33 m 1
 39 33 l 1
 39 35 l 1
 41 35 l 1
 41 33 l 1
43 33 m 1
 42 33 l 1
 42 35 l 1
 44 35 l 1
 44 34 l 1
 43 34 l 1
 43 33 l 1
49 29 m 1
 47 29 l 1
 47 31 l 1
 49 31 l 1
 49 29 l 1
46 33 m 1
 44 33 l 1
 44 34 l 1
 45 34 l 1
 45 35 l 1
 46 35 l 1
 46 33 l 1
49 33 m 1
 47 33 l 1
 47 35 l 1
 49 35 l 1
 49 33 l 1
55 25 m 1
 53 25 l 1
 53 27 l 1
 55 27 l 1
 55 25 l 1
58 25 m 1
 56 25 l 1
 56 27 l 1
 57 27 l 1
 57 26 l 1
 58 26 l 1
 58 25 l 1
59 26 m 1
 58 26 l 1
 58 27 l 1
 60 27 l 1
 60 25 l 1
 59 25 l 1
 59 26 l 1
63 25 m 1
 61 25 l 1
 61 27 l 1
 63 27 l 1
 63 25 l 1
55 29 m 1
 53 29 l 1
 53 31 l 1
 55 31 l 1
 55 29 l 1
55 33 m 1
 53 33 l 1
 53 35 l 1
 55 35 l 1
 55 33 l 1
57 33 m 1
 56 33 l 1
 56 35 l 1
 58 35 l 1
 58 34 l 1
 57 34 l 1
 57 33 l 1
60 33 m 1
 58 33 l 1
 58 34 l 1
 59 34 l 1
 59 35 l 1
 60 35 l 1
 60 33 l 1
63 33 m 1
 61 33 l 1
 61 35 l 1
 63 35 l 1
 63 33 l 1
41 41 m 1
 39 41 l 1
 39 43 l 1
 41 43 l 1
 41 41 l 1
44 41 m 1
 42 41 l 1
 42 43 l 1
 43 43 l 1
 43 42 l 1
 44 42 l 1
 44 41 l 1
49 37 m 1
 47 37 l 1
 47 39 l 1
 49 39 l 1
 49 37 l 1
45 42 m 1
 44 42 l 1
 44 43 l 1
 46 43 l 1
 46 41 l 1
 45 41 l 1
 45 42 l 1
49 41 m 1
 47 41 l 1
 47 43 l 1
 49 43 l 1
 49 41 l 1
55 41 m 1
 53 41 l 1
 53 43 l 1
 55 43 l 1
 55 41 l 1
58 41 m 1
 56 41 l 1
 56 43 l 1
 57 43 l 1
 57 42 l 1
 58 42 l 1
 58 41 l 1
59 42 m 1
 58 42 l 1
 58 43 l 1
 60 43 l 1
 60 41 l 1
 59 41 l 1
 59 42 l 1
63 37 m 1
 61 37 l 1
 61 39 l 1
 63 39 l 1
 63 37 l 1
63 41 m 1
 61 41 l 1
 61 43 l 1
 63 43 l 1
 63 41 l 1
EndSplineSet
Ligature2: "'liga' Standard Ligatures in Latin lookup 0-1" three five zero five five
LCarets2: 1 0
EndChar

StartChar: custom_3_5_0_5_6
Encoding: 10812 -1 10567
Width: 70
Flags: H
LayerCount: 2
Fore
SplineSet
17 25 m 1
 15 25 l 1
 15 27 l 1
 17 27 l 1
 17 25 l 1
17 29 m 1
 15 29 l 1
 15 31 l 1
 17 31 l 1
 17 29 l 1
17 33 m 1
 15 33 l 1
 15 35 l 1
 17 35 l 1
 17 33 l 1
23 25 m 1
 21 25 l 1
 21 27 l 1
 23 27 l 1
 23 25 l 1
26 25 m 1
 24 25 l 1
 24 27 l 1
 25 27 l 1
 25 26 l 1
 26 26 l 1
 26 25 l 1
27 26 m 1
 26 26 l 1
 26 27 l 1
 28 27 l 1
 28 25 l 1
 27 25 l 1
 27 26 l 1
31 25 m 1
 29 25 l 1
 29 27 l 1
 31 27 l 1
 31 25 l 1
23 33 m 1
 21 33 l 1
 21 35 l 1
 23 35 l 1
 23 33 l 1
25 33 m 1
 24 33 l 1
 24 35 l 1
 26 35 l 1
 26 34 l 1
 25 34 l 1
 25 33 l 1
28 33 m 1
 26 33 l 1
 26 34 l 1
 27 34 l 1
 27 35 l 1
 28 35 l 1
 28 33 l 1
31 29 m 1
 29 29 l 1
 29 31 l 1
 31 31 l 1
 31 29 l 1
36 31 m 1
 34 31 l 1
 34 33 l 1
 36 33 l 1
 36 31 l 1
31 33 m 1
 29 33 l 1
 29 35 l 1
 31 35 l 1
 31 33 l 1
36 35 m 1
 34 35 l 1
 34 37 l 1
 36 37 l 1
 36 35 l 1
17 37 m 1
 15 37 l 1
 15 39 l 1
 17 39 l 1
 17 37 l 1
17 41 m 1
 15 41 l 1
 15 43 l 1
 17 43 l 1
 17 41 l 1
23 37 m 1
 21 37 l 1
 21 39 l 1
 23 39 l 1
 23 37 l 1
23 41 m 1
 21 41 l 1
 21 43 l 1
 23 43 l 1
 23 41 l 1
26 41 m 1
 24 41 l 1
 24 43 l 1
 25 43 l 1
 25 42 l 1
 26 42 l 1
 26 41 l 1
27 42 m 1
 26 42 l 1
 26 43 l 1
 28 43 l 1
 28 41 l 1
 27 41 l 1
 27 42 l 1
31 41 m 1
 29 41 l 1
 29 43 l 1
 31 43 l 1
 31 41 l 1
41 25 m 1
 39 25 l 1
 39 27 l 1
 41 27 l 1
 41 25 l 1
44 25 m 1
 42 25 l 1
 42 27 l 1
 43 27 l 1
 43 26 l 1
 44 26 l 1
 44 25 l 1
45 26 m 1
 44 26 l 1
 44 27 l 1
 46 27 l 1
 46 25 l 1
 45 25 l 1
 45 26 l 1
49 25 m 1
 47 25 l 1
 47 27 l 1
 49 27 l 1
 49 25 l 1
41 33 m 1
 39 33 l 1
 39 35 l 1
 41 35 l 1
 41 33 l 1
43 33 m 1
 42 33 l 1
 42 35 l 1
 44 35 l 1
 44 34 l 1
 43 34 l 1
 43 33 l 1
49 29 m 1
 47 29 l 1
 47 31 l 1
 49 31 l 1
 49 29 l 1
46 33 m 1
 44 33 l 1
 44 34 l 1
 45 34 l 1
 45 35 l 1
 46 35 l 1
 46 33 l 1
49 33 m 1
 47 33 l 1
 47 35 l 1
 49 35 l 1
 49 33 l 1
55 25 m 1
 53 25 l 1
 53 27 l 1
 55 27 l 1
 55 25 l 1
58 25 m 1
 56 25 l 1
 56 27 l 1
 57 27 l 1
 57 26 l 1
 58 26 l 1
 58 25 l 1
59 26 m 1
 58 26 l 1
 58 27 l 1
 60 27 l 1
 60 25 l 1
 59 25 l 1
 59 26 l 1
63 25 m 1
 61 25 l 1
 61 27 l 1
 63 27 l 1
 63 25 l 1
55 29 m 1
 53 29 l 1
 53 31 l 1
 55 31 l 1
 55 29 l 1
55 33 m 1
 53 33 l 1
 53 35 l 1
 55 35 l 1
 55 33 l 1
57 33 m 1
 56 33 l 1
 56 35 l 1
 58 35 l 1
 58 34 l 1
 57 34 l 1
 57 33 l 1
60 33 m 1
 58 33 l 1
 58 34 l 1
 59 34 l 1
 59 35 l 1
 60 35 l 1
 60 33 l 1
63 33 m 1
 61 33 l 1
 61 35 l 1
 63 35 l 1
 63 33 l 1
41 41 m 1
 39 41 l 1
 39 43 l 1
 41 43 l 1
 41 41 l 1
44 41 m 1
 42 41 l 1
 42 43 l 1
 43 43 l 1
 43 42 l 1
 44 42 l 1
 44 41 l 1
49 37 m 1
 47 37 l 1
 47 39 l 1
 49 39 l 1
 49 37 l 1
45 42 m 1
 44 42 l 1
 44 43 l 1
 46 43 l 1
 46 41 l 1
 45 41 l 1
 45 42 l 1
49 41 m 1
 47 41 l 1
 47 43 l 1
 49 43 l 1
 49 41 l 1
55 41 m 1
 53 41 l 1
 53 43 l 1
 55 43 l 1
 55 41 l 1
58 41 m 1
 56 41 l 1
 56 43 l 1
 57 43 l 1
 57 42 l 1
 58 42 l 1
 58 41 l 1
59 42 m 1
 58 42 l 1
 58 43 l 1
 60 43 l 1
 60 41 l 1
 59 41 l 1
 59 42 l 1
63 37 m 1
 61 37 l 1
 61 39 l 1
 63 39 l 1
 63 37 l 1
63 41 m 1
 61 41 l 1
 61 43 l 1
 63 43 l 1
 63 41 l 1
EndSplineSet
Ligature2: "'liga' Standard Ligatures in Latin lookup 0-1" three five zero five six
LCarets2: 1 0
EndChar

StartChar: custom_3_5_0_5_7
Encoding: 10813 -1 10568
Width: 70
Flags: H
LayerCount: 2
Fore
SplineSet
17 25 m 1
 15 25 l 1
 15 27 l 1
 17 27 l 1
 17 25 l 1
17 29 m 1
 15 29 l 1
 15 31 l 1
 17 31 l 1
 17 29 l 1
17 33 m 1
 15 33 l 1
 15 35 l 1
 17 35 l 1
 17 33 l 1
23 25 m 1
 21 25 l 1
 21 27 l 1
 23 27 l 1
 23 25 l 1
26 25 m 1
 24 25 l 1
 24 27 l 1
 25 27 l 1
 25 26 l 1
 26 26 l 1
 26 25 l 1
27 26 m 1
 26 26 l 1
 26 27 l 1
 28 27 l 1
 28 25 l 1
 27 25 l 1
 27 26 l 1
31 25 m 1
 29 25 l 1
 29 27 l 1
 31 27 l 1
 31 25 l 1
23 33 m 1
 21 33 l 1
 21 35 l 1
 23 35 l 1
 23 33 l 1
25 33 m 1
 24 33 l 1
 24 35 l 1
 26 35 l 1
 26 34 l 1
 25 34 l 1
 25 33 l 1
28 33 m 1
 26 33 l 1
 26 34 l 1
 27 34 l 1
 27 35 l 1
 28 35 l 1
 28 33 l 1
31 29 m 1
 29 29 l 1
 29 31 l 1
 31 31 l 1
 31 29 l 1
36 31 m 1
 34 31 l 1
 34 33 l 1
 36 33 l 1
 36 31 l 1
31 33 m 1
 29 33 l 1
 29 35 l 1
 31 35 l 1
 31 33 l 1
36 35 m 1
 34 35 l 1
 34 37 l 1
 36 37 l 1
 36 35 l 1
17 37 m 1
 15 37 l 1
 15 39 l 1
 17 39 l 1
 17 37 l 1
17 41 m 1
 15 41 l 1
 15 43 l 1
 17 43 l 1
 17 41 l 1
23 37 m 1
 21 37 l 1
 21 39 l 1
 23 39 l 1
 23 37 l 1
23 41 m 1
 21 41 l 1
 21 43 l 1
 23 43 l 1
 23 41 l 1
26 41 m 1
 24 41 l 1
 24 43 l 1
 25 43 l 1
 25 42 l 1
 26 42 l 1
 26 41 l 1
27 42 m 1
 26 42 l 1
 26 43 l 1
 28 43 l 1
 28 41 l 1
 27 41 l 1
 27 42 l 1
31 41 m 1
 29 41 l 1
 29 43 l 1
 31 43 l 1
 31 41 l 1
41 25 m 1
 39 25 l 1
 39 27 l 1
 41 27 l 1
 41 25 l 1
44 25 m 1
 42 25 l 1
 42 27 l 1
 43 27 l 1
 43 26 l 1
 44 26 l 1
 44 25 l 1
45 26 m 1
 44 26 l 1
 44 27 l 1
 46 27 l 1
 46 25 l 1
 45 25 l 1
 45 26 l 1
49 25 m 1
 47 25 l 1
 47 27 l 1
 49 27 l 1
 49 25 l 1
41 33 m 1
 39 33 l 1
 39 35 l 1
 41 35 l 1
 41 33 l 1
43 33 m 1
 42 33 l 1
 42 35 l 1
 44 35 l 1
 44 34 l 1
 43 34 l 1
 43 33 l 1
49 29 m 1
 47 29 l 1
 47 31 l 1
 49 31 l 1
 49 29 l 1
46 33 m 1
 44 33 l 1
 44 34 l 1
 45 34 l 1
 45 35 l 1
 46 35 l 1
 46 33 l 1
49 33 m 1
 47 33 l 1
 47 35 l 1
 49 35 l 1
 49 33 l 1
55 25 m 1
 53 25 l 1
 53 27 l 1
 55 27 l 1
 55 25 l 1
58 25 m 1
 56 25 l 1
 56 27 l 1
 57 27 l 1
 57 26 l 1
 58 26 l 1
 58 25 l 1
59 26 m 1
 58 26 l 1
 58 27 l 1
 60 27 l 1
 60 25 l 1
 59 25 l 1
 59 26 l 1
63 25 m 1
 61 25 l 1
 61 27 l 1
 63 27 l 1
 63 25 l 1
55 29 m 1
 53 29 l 1
 53 31 l 1
 55 31 l 1
 55 29 l 1
55 33 m 1
 53 33 l 1
 53 35 l 1
 55 35 l 1
 55 33 l 1
57 33 m 1
 56 33 l 1
 56 35 l 1
 58 35 l 1
 58 34 l 1
 57 34 l 1
 57 33 l 1
60 33 m 1
 58 33 l 1
 58 34 l 1
 59 34 l 1
 59 35 l 1
 60 35 l 1
 60 33 l 1
63 33 m 1
 61 33 l 1
 61 35 l 1
 63 35 l 1
 63 33 l 1
41 41 m 1
 39 41 l 1
 39 43 l 1
 41 43 l 1
 41 41 l 1
44 41 m 1
 42 41 l 1
 42 43 l 1
 43 43 l 1
 43 42 l 1
 44 42 l 1
 44 41 l 1
49 37 m 1
 47 37 l 1
 47 39 l 1
 49 39 l 1
 49 37 l 1
45 42 m 1
 44 42 l 1
 44 43 l 1
 46 43 l 1
 46 41 l 1
 45 41 l 1
 45 42 l 1
49 41 m 1
 47 41 l 1
 47 43 l 1
 49 43 l 1
 49 41 l 1
55 41 m 1
 53 41 l 1
 53 43 l 1
 55 43 l 1
 55 41 l 1
58 41 m 1
 56 41 l 1
 56 43 l 1
 57 43 l 1
 57 42 l 1
 58 42 l 1
 58 41 l 1
59 42 m 1
 58 42 l 1
 58 43 l 1
 60 43 l 1
 60 41 l 1
 59 41 l 1
 59 42 l 1
63 37 m 1
 61 37 l 1
 61 39 l 1
 63 39 l 1
 63 37 l 1
63 41 m 1
 61 41 l 1
 61 43 l 1
 63 43 l 1
 63 41 l 1
EndSplineSet
Ligature2: "'liga' Standard Ligatures in Latin lookup 0-1" three five zero five seven
LCarets2: 1 0
EndChar

StartChar: custom_3_5_0_5_8
Encoding: 10814 -1 10569
Width: 70
Flags: H
LayerCount: 2
Fore
SplineSet
17 25 m 1
 15 25 l 1
 15 27 l 1
 17 27 l 1
 17 25 l 1
17 29 m 1
 15 29 l 1
 15 31 l 1
 17 31 l 1
 17 29 l 1
17 33 m 1
 15 33 l 1
 15 35 l 1
 17 35 l 1
 17 33 l 1
23 25 m 1
 21 25 l 1
 21 27 l 1
 23 27 l 1
 23 25 l 1
26 25 m 1
 24 25 l 1
 24 27 l 1
 25 27 l 1
 25 26 l 1
 26 26 l 1
 26 25 l 1
27 26 m 1
 26 26 l 1
 26 27 l 1
 28 27 l 1
 28 25 l 1
 27 25 l 1
 27 26 l 1
31 25 m 1
 29 25 l 1
 29 27 l 1
 31 27 l 1
 31 25 l 1
23 33 m 1
 21 33 l 1
 21 35 l 1
 23 35 l 1
 23 33 l 1
25 33 m 1
 24 33 l 1
 24 35 l 1
 26 35 l 1
 26 34 l 1
 25 34 l 1
 25 33 l 1
28 33 m 1
 26 33 l 1
 26 34 l 1
 27 34 l 1
 27 35 l 1
 28 35 l 1
 28 33 l 1
31 29 m 1
 29 29 l 1
 29 31 l 1
 31 31 l 1
 31 29 l 1
36 31 m 1
 34 31 l 1
 34 33 l 1
 36 33 l 1
 36 31 l 1
31 33 m 1
 29 33 l 1
 29 35 l 1
 31 35 l 1
 31 33 l 1
36 35 m 1
 34 35 l 1
 34 37 l 1
 36 37 l 1
 36 35 l 1
17 37 m 1
 15 37 l 1
 15 39 l 1
 17 39 l 1
 17 37 l 1
17 41 m 1
 15 41 l 1
 15 43 l 1
 17 43 l 1
 17 41 l 1
23 37 m 1
 21 37 l 1
 21 39 l 1
 23 39 l 1
 23 37 l 1
23 41 m 1
 21 41 l 1
 21 43 l 1
 23 43 l 1
 23 41 l 1
26 41 m 1
 24 41 l 1
 24 43 l 1
 25 43 l 1
 25 42 l 1
 26 42 l 1
 26 41 l 1
27 42 m 1
 26 42 l 1
 26 43 l 1
 28 43 l 1
 28 41 l 1
 27 41 l 1
 27 42 l 1
31 41 m 1
 29 41 l 1
 29 43 l 1
 31 43 l 1
 31 41 l 1
41 25 m 1
 39 25 l 1
 39 27 l 1
 41 27 l 1
 41 25 l 1
44 25 m 1
 42 25 l 1
 42 27 l 1
 43 27 l 1
 43 26 l 1
 44 26 l 1
 44 25 l 1
45 26 m 1
 44 26 l 1
 44 27 l 1
 46 27 l 1
 46 25 l 1
 45 25 l 1
 45 26 l 1
49 25 m 1
 47 25 l 1
 47 27 l 1
 49 27 l 1
 49 25 l 1
41 33 m 1
 39 33 l 1
 39 35 l 1
 41 35 l 1
 41 33 l 1
43 33 m 1
 42 33 l 1
 42 35 l 1
 44 35 l 1
 44 34 l 1
 43 34 l 1
 43 33 l 1
49 29 m 1
 47 29 l 1
 47 31 l 1
 49 31 l 1
 49 29 l 1
46 33 m 1
 44 33 l 1
 44 34 l 1
 45 34 l 1
 45 35 l 1
 46 35 l 1
 46 33 l 1
49 33 m 1
 47 33 l 1
 47 35 l 1
 49 35 l 1
 49 33 l 1
55 25 m 1
 53 25 l 1
 53 27 l 1
 55 27 l 1
 55 25 l 1
58 25 m 1
 56 25 l 1
 56 27 l 1
 57 27 l 1
 57 26 l 1
 58 26 l 1
 58 25 l 1
59 26 m 1
 58 26 l 1
 58 27 l 1
 60 27 l 1
 60 25 l 1
 59 25 l 1
 59 26 l 1
63 25 m 1
 61 25 l 1
 61 27 l 1
 63 27 l 1
 63 25 l 1
55 29 m 1
 53 29 l 1
 53 31 l 1
 55 31 l 1
 55 29 l 1
55 33 m 1
 53 33 l 1
 53 35 l 1
 55 35 l 1
 55 33 l 1
57 33 m 1
 56 33 l 1
 56 35 l 1
 58 35 l 1
 58 34 l 1
 57 34 l 1
 57 33 l 1
60 33 m 1
 58 33 l 1
 58 34 l 1
 59 34 l 1
 59 35 l 1
 60 35 l 1
 60 33 l 1
63 33 m 1
 61 33 l 1
 61 35 l 1
 63 35 l 1
 63 33 l 1
41 41 m 1
 39 41 l 1
 39 43 l 1
 41 43 l 1
 41 41 l 1
44 41 m 1
 42 41 l 1
 42 43 l 1
 43 43 l 1
 43 42 l 1
 44 42 l 1
 44 41 l 1
49 37 m 1
 47 37 l 1
 47 39 l 1
 49 39 l 1
 49 37 l 1
45 42 m 1
 44 42 l 1
 44 43 l 1
 46 43 l 1
 46 41 l 1
 45 41 l 1
 45 42 l 1
49 41 m 1
 47 41 l 1
 47 43 l 1
 49 43 l 1
 49 41 l 1
55 41 m 1
 53 41 l 1
 53 43 l 1
 55 43 l 1
 55 41 l 1
58 41 m 1
 56 41 l 1
 56 43 l 1
 57 43 l 1
 57 42 l 1
 58 42 l 1
 58 41 l 1
59 42 m 1
 58 42 l 1
 58 43 l 1
 60 43 l 1
 60 41 l 1
 59 41 l 1
 59 42 l 1
63 37 m 1
 61 37 l 1
 61 39 l 1
 63 39 l 1
 63 37 l 1
63 41 m 1
 61 41 l 1
 61 43 l 1
 63 43 l 1
 63 41 l 1
EndSplineSet
Ligature2: "'liga' Standard Ligatures in Latin lookup 0-1" three five zero five eight
LCarets2: 1 0
EndChar

StartChar: custom_3_5_0_5_9
Encoding: 10815 -1 10570
Width: 70
Flags: H
LayerCount: 2
Fore
SplineSet
17 25 m 1
 15 25 l 1
 15 27 l 1
 17 27 l 1
 17 25 l 1
17 29 m 1
 15 29 l 1
 15 31 l 1
 17 31 l 1
 17 29 l 1
17 33 m 1
 15 33 l 1
 15 35 l 1
 17 35 l 1
 17 33 l 1
23 25 m 1
 21 25 l 1
 21 27 l 1
 23 27 l 1
 23 25 l 1
26 25 m 1
 24 25 l 1
 24 27 l 1
 25 27 l 1
 25 26 l 1
 26 26 l 1
 26 25 l 1
27 26 m 1
 26 26 l 1
 26 27 l 1
 28 27 l 1
 28 25 l 1
 27 25 l 1
 27 26 l 1
31 25 m 1
 29 25 l 1
 29 27 l 1
 31 27 l 1
 31 25 l 1
23 33 m 1
 21 33 l 1
 21 35 l 1
 23 35 l 1
 23 33 l 1
25 33 m 1
 24 33 l 1
 24 35 l 1
 26 35 l 1
 26 34 l 1
 25 34 l 1
 25 33 l 1
28 33 m 1
 26 33 l 1
 26 34 l 1
 27 34 l 1
 27 35 l 1
 28 35 l 1
 28 33 l 1
31 29 m 1
 29 29 l 1
 29 31 l 1
 31 31 l 1
 31 29 l 1
36 31 m 1
 34 31 l 1
 34 33 l 1
 36 33 l 1
 36 31 l 1
31 33 m 1
 29 33 l 1
 29 35 l 1
 31 35 l 1
 31 33 l 1
36 35 m 1
 34 35 l 1
 34 37 l 1
 36 37 l 1
 36 35 l 1
17 37 m 1
 15 37 l 1
 15 39 l 1
 17 39 l 1
 17 37 l 1
17 41 m 1
 15 41 l 1
 15 43 l 1
 17 43 l 1
 17 41 l 1
23 37 m 1
 21 37 l 1
 21 39 l 1
 23 39 l 1
 23 37 l 1
23 41 m 1
 21 41 l 1
 21 43 l 1
 23 43 l 1
 23 41 l 1
26 41 m 1
 24 41 l 1
 24 43 l 1
 25 43 l 1
 25 42 l 1
 26 42 l 1
 26 41 l 1
27 42 m 1
 26 42 l 1
 26 43 l 1
 28 43 l 1
 28 41 l 1
 27 41 l 1
 27 42 l 1
31 41 m 1
 29 41 l 1
 29 43 l 1
 31 43 l 1
 31 41 l 1
41 25 m 1
 39 25 l 1
 39 27 l 1
 41 27 l 1
 41 25 l 1
44 25 m 1
 42 25 l 1
 42 27 l 1
 43 27 l 1
 43 26 l 1
 44 26 l 1
 44 25 l 1
45 26 m 1
 44 26 l 1
 44 27 l 1
 46 27 l 1
 46 25 l 1
 45 25 l 1
 45 26 l 1
49 25 m 1
 47 25 l 1
 47 27 l 1
 49 27 l 1
 49 25 l 1
41 33 m 1
 39 33 l 1
 39 35 l 1
 41 35 l 1
 41 33 l 1
43 33 m 1
 42 33 l 1
 42 35 l 1
 44 35 l 1
 44 34 l 1
 43 34 l 1
 43 33 l 1
49 29 m 1
 47 29 l 1
 47 31 l 1
 49 31 l 1
 49 29 l 1
46 33 m 1
 44 33 l 1
 44 34 l 1
 45 34 l 1
 45 35 l 1
 46 35 l 1
 46 33 l 1
49 33 m 1
 47 33 l 1
 47 35 l 1
 49 35 l 1
 49 33 l 1
55 25 m 1
 53 25 l 1
 53 27 l 1
 55 27 l 1
 55 25 l 1
58 25 m 1
 56 25 l 1
 56 27 l 1
 57 27 l 1
 57 26 l 1
 58 26 l 1
 58 25 l 1
59 26 m 1
 58 26 l 1
 58 27 l 1
 60 27 l 1
 60 25 l 1
 59 25 l 1
 59 26 l 1
63 25 m 1
 61 25 l 1
 61 27 l 1
 63 27 l 1
 63 25 l 1
55 29 m 1
 53 29 l 1
 53 31 l 1
 55 31 l 1
 55 29 l 1
55 33 m 1
 53 33 l 1
 53 35 l 1
 55 35 l 1
 55 33 l 1
57 33 m 1
 56 33 l 1
 56 35 l 1
 58 35 l 1
 58 34 l 1
 57 34 l 1
 57 33 l 1
60 33 m 1
 58 33 l 1
 58 34 l 1
 59 34 l 1
 59 35 l 1
 60 35 l 1
 60 33 l 1
63 33 m 1
 61 33 l 1
 61 35 l 1
 63 35 l 1
 63 33 l 1
41 41 m 1
 39 41 l 1
 39 43 l 1
 41 43 l 1
 41 41 l 1
44 41 m 1
 42 41 l 1
 42 43 l 1
 43 43 l 1
 43 42 l 1
 44 42 l 1
 44 41 l 1
49 37 m 1
 47 37 l 1
 47 39 l 1
 49 39 l 1
 49 37 l 1
45 42 m 1
 44 42 l 1
 44 43 l 1
 46 43 l 1
 46 41 l 1
 45 41 l 1
 45 42 l 1
49 41 m 1
 47 41 l 1
 47 43 l 1
 49 43 l 1
 49 41 l 1
55 41 m 1
 53 41 l 1
 53 43 l 1
 55 43 l 1
 55 41 l 1
58 41 m 1
 56 41 l 1
 56 43 l 1
 57 43 l 1
 57 42 l 1
 58 42 l 1
 58 41 l 1
59 42 m 1
 58 42 l 1
 58 43 l 1
 60 43 l 1
 60 41 l 1
 59 41 l 1
 59 42 l 1
63 37 m 1
 61 37 l 1
 61 39 l 1
 63 39 l 1
 63 37 l 1
63 41 m 1
 61 41 l 1
 61 43 l 1
 63 43 l 1
 63 41 l 1
EndSplineSet
Ligature2: "'liga' Standard Ligatures in Latin lookup 0-1" three five zero five nine
LCarets2: 1 0
EndChar

StartChar: custom_3_5_0_6_0
Encoding: 10816 -1 10571
Width: 70
Flags: H
LayerCount: 2
Fore
SplineSet
17 25 m 1
 15 25 l 1
 15 27 l 1
 17 27 l 1
 17 25 l 1
17 29 m 1
 15 29 l 1
 15 31 l 1
 17 31 l 1
 17 29 l 1
17 33 m 1
 15 33 l 1
 15 35 l 1
 17 35 l 1
 17 33 l 1
23 25 m 1
 21 25 l 1
 21 27 l 1
 23 27 l 1
 23 25 l 1
26 25 m 1
 24 25 l 1
 24 27 l 1
 25 27 l 1
 25 26 l 1
 26 26 l 1
 26 25 l 1
27 26 m 1
 26 26 l 1
 26 27 l 1
 28 27 l 1
 28 25 l 1
 27 25 l 1
 27 26 l 1
31 25 m 1
 29 25 l 1
 29 27 l 1
 31 27 l 1
 31 25 l 1
23 33 m 1
 21 33 l 1
 21 35 l 1
 23 35 l 1
 23 33 l 1
25 33 m 1
 24 33 l 1
 24 35 l 1
 26 35 l 1
 26 34 l 1
 25 34 l 1
 25 33 l 1
28 33 m 1
 26 33 l 1
 26 34 l 1
 27 34 l 1
 27 35 l 1
 28 35 l 1
 28 33 l 1
31 29 m 1
 29 29 l 1
 29 31 l 1
 31 31 l 1
 31 29 l 1
36 31 m 1
 34 31 l 1
 34 33 l 1
 36 33 l 1
 36 31 l 1
31 33 m 1
 29 33 l 1
 29 35 l 1
 31 35 l 1
 31 33 l 1
36 35 m 1
 34 35 l 1
 34 37 l 1
 36 37 l 1
 36 35 l 1
17 37 m 1
 15 37 l 1
 15 39 l 1
 17 39 l 1
 17 37 l 1
17 41 m 1
 15 41 l 1
 15 43 l 1
 17 43 l 1
 17 41 l 1
23 37 m 1
 21 37 l 1
 21 39 l 1
 23 39 l 1
 23 37 l 1
23 41 m 1
 21 41 l 1
 21 43 l 1
 23 43 l 1
 23 41 l 1
26 41 m 1
 24 41 l 1
 24 43 l 1
 25 43 l 1
 25 42 l 1
 26 42 l 1
 26 41 l 1
27 42 m 1
 26 42 l 1
 26 43 l 1
 28 43 l 1
 28 41 l 1
 27 41 l 1
 27 42 l 1
31 41 m 1
 29 41 l 1
 29 43 l 1
 31 43 l 1
 31 41 l 1
41 25 m 1
 39 25 l 1
 39 27 l 1
 41 27 l 1
 41 25 l 1
44 25 m 1
 42 25 l 1
 42 27 l 1
 43 27 l 1
 43 26 l 1
 44 26 l 1
 44 25 l 1
45 26 m 1
 44 26 l 1
 44 27 l 1
 46 27 l 1
 46 25 l 1
 45 25 l 1
 45 26 l 1
49 25 m 1
 47 25 l 1
 47 27 l 1
 49 27 l 1
 49 25 l 1
41 33 m 1
 39 33 l 1
 39 35 l 1
 41 35 l 1
 41 33 l 1
43 33 m 1
 42 33 l 1
 42 35 l 1
 44 35 l 1
 44 34 l 1
 43 34 l 1
 43 33 l 1
49 29 m 1
 47 29 l 1
 47 31 l 1
 49 31 l 1
 49 29 l 1
46 33 m 1
 44 33 l 1
 44 34 l 1
 45 34 l 1
 45 35 l 1
 46 35 l 1
 46 33 l 1
49 33 m 1
 47 33 l 1
 47 35 l 1
 49 35 l 1
 49 33 l 1
55 25 m 1
 53 25 l 1
 53 27 l 1
 55 27 l 1
 55 25 l 1
58 25 m 1
 56 25 l 1
 56 27 l 1
 57 27 l 1
 57 26 l 1
 58 26 l 1
 58 25 l 1
59 26 m 1
 58 26 l 1
 58 27 l 1
 60 27 l 1
 60 25 l 1
 59 25 l 1
 59 26 l 1
63 25 m 1
 61 25 l 1
 61 27 l 1
 63 27 l 1
 63 25 l 1
55 29 m 1
 53 29 l 1
 53 31 l 1
 55 31 l 1
 55 29 l 1
55 33 m 1
 53 33 l 1
 53 35 l 1
 55 35 l 1
 55 33 l 1
57 33 m 1
 56 33 l 1
 56 35 l 1
 58 35 l 1
 58 34 l 1
 57 34 l 1
 57 33 l 1
60 33 m 1
 58 33 l 1
 58 34 l 1
 59 34 l 1
 59 35 l 1
 60 35 l 1
 60 33 l 1
63 33 m 1
 61 33 l 1
 61 35 l 1
 63 35 l 1
 63 33 l 1
41 41 m 1
 39 41 l 1
 39 43 l 1
 41 43 l 1
 41 41 l 1
44 41 m 1
 42 41 l 1
 42 43 l 1
 43 43 l 1
 43 42 l 1
 44 42 l 1
 44 41 l 1
49 37 m 1
 47 37 l 1
 47 39 l 1
 49 39 l 1
 49 37 l 1
45 42 m 1
 44 42 l 1
 44 43 l 1
 46 43 l 1
 46 41 l 1
 45 41 l 1
 45 42 l 1
49 41 m 1
 47 41 l 1
 47 43 l 1
 49 43 l 1
 49 41 l 1
55 41 m 1
 53 41 l 1
 53 43 l 1
 55 43 l 1
 55 41 l 1
58 41 m 1
 56 41 l 1
 56 43 l 1
 57 43 l 1
 57 42 l 1
 58 42 l 1
 58 41 l 1
59 42 m 1
 58 42 l 1
 58 43 l 1
 60 43 l 1
 60 41 l 1
 59 41 l 1
 59 42 l 1
63 37 m 1
 61 37 l 1
 61 39 l 1
 63 39 l 1
 63 37 l 1
63 41 m 1
 61 41 l 1
 61 43 l 1
 63 43 l 1
 63 41 l 1
EndSplineSet
Ligature2: "'liga' Standard Ligatures in Latin lookup 0-1" three five zero six zero
LCarets2: 1 0
EndChar

